<svg xmlns="http://www.w3.org/2000/svg" xmlns:xlink="http://www.w3.org/1999/xlink" width="982" height="659">
  <defs>
    <linearGradient id="a">
      <stop offset="0" stop-color="#fff"/>
      <stop offset="1" stop-color="#f15770"/>
    </linearGradient>
    <radialGradient id="b" cx="842.3" cy="103.7" r="25.9" gradientTransform="matrix(.18574 .04718 -.04532 .18635 233.8 198.8)" gradientUnits="userSpaceOnUse" xlink:href="#a"/>
    <radialGradient id="c" cx="651.5" cy="550.5" r="25.9" gradientTransform="matrix(-.17642 -.07067 .06515 -.16392 430.5 377.9)" gradientUnits="userSpaceOnUse" xlink:href="#a"/>
    <radialGradient id="d" cx="380.8" cy="740.4" r="25.9" gradientTransform="matrix(.0989 .0037 -.0045 .1943 442.4 123.3)" gradientUnits="userSpaceOnUse" xlink:href="#a"/>
  </defs>
  <path d="M0 0h982v659H0z"/>
  <path fill="#ce1126" d="M7 7h968v645H7z"/>
  <path fill="#fff" d="M7 7h653.3v645H7z"/>
  <path fill="#006847" d="M7 7h326.7v645H7z"/>
  <g fill="#fcca3e" stroke="#aa8c30" stroke-width=".3" transform="translate(-.7 51.2) scale(1.16833)">
    <path d="M467 303.5l.3 6 2.2-1.6-1.7-4.8z"/>
    <circle cx="466.7" cy="301.9" r="1.9"/>
    <path d="M474 312.7l-4.3-4.1-2 1.5 6 3.4z"/>
    <path d="M473.6 315c-.6-.8-.4-2 .5-2.6.8-.7 2-.6 2.6.2.6.9.4 2-.4 2.7-.9.7-2 .5-2.7-.3zM507 251.2l4.4 4.4.6-2.2-4-2.7z"/>
    <circle cx="506.5" cy="250.1" r="1.8"/>
    <path d="M518.6 253.8l-6.7 2 .6-2.3 5.8-.5z"/>
    <circle cx="519.7" cy="252.9" r="1.8"/>
    <path d="M496 287l-4-6.4.6-.3 4.6 5.5z"/>
    <circle cx="491.5" cy="279.1" r="1.9"/>
    <path d="M496.3 287.2l5.2 1 .2-.8-4.4-1.7z"/>
    <circle cx="503.1" cy="288.2" r="1.9"/>
    <path d="M373.6 301.7c0 1-.7 1.6-1.4 1.6s-1.2-.8-1.2-1.7c0-.9.5-1.6 1.2-1.6s1.4.8 1.4 1.7zM373.6 304.6l1.2 6.6-1.6-.6-.6-5.7z"/>
    <path d="M375 302.4c.8 1-.5 2.5-1.9 3-1.4.3-3-.4-3-1.6 0-1.4 2-.7 2.5-.9.8-.2 1.6-1.5 2.4-.5z"/>
    <ellipse cx="363.6" cy="312.5" rx="2" ry="1.5"/>
    <path d="M367 312.1l6.3-.3-1-1.2-5.2.5z"/>
    <path d="M367.6 311.4c.5 1.6.5 3.8-1.3 3.6-1.7-.3-1.4-1.9-1.5-2.5-.3-1.1-1.4-2.1-.3-3.2 1.1-1.1 2.5.5 3 2.1z"/>
    <ellipse cx="347" cy="277" rx="1.2" ry="1.9"/>
    <path d="M347 281.1l.2 6.1-1.6-1.4v-4.9z"/>
    <path d="M349.4 279.3c.3 1.4-1.8 2.2-3.2 2-1.4-.4-2.4-1-2.2-2.4.2-1.3 2-1 2.5-.6.6.3 2.4-1 2.9 1z"/>
    <ellipse cx="336.2" cy="286.5" rx="2.1" ry="1"/>
    <path d="M340 286.5l4.9-.3 2 1.6-7-.3z"/>
    <path d="M338.3 284c1.3 0 2.2 1.4 2 3-.2 1.4-1.3 2.6-2.5 2.5-1.2-.2-1.1-1.2-1.1-1.5 0-.3.7-.9.8-1.4 0-.5-.4-1.5-.2-2 .1-.6.4-.7 1-.7zm-3.9-37.3c-.5.9-1.5 1.5-2 1.2-.6-.3-.4-1.5.2-2.4.5-.8 1.3-1.2 1.9-1 .5.4.5 1.4 0 2.2zM329 256.4l2.8-6.4-.4-.3-3 4.4z"/>
    <path d="M331.3 250c-1.4-1-1.6-2-1.2-2.9.4-1 1.4-.3 1.4-.3s.6.7 1.1 1c.5.2 1.3-.1 1.9.7.5.8.2 1.6-.3 1.8-.4.2-1.8.6-3-.2zm-11.2-.8c1 .6 1.5 1.5 1.2 2-.4.7-1.4.7-2.4.2-.9-.6-1.4-1.5-1-2 .3-.7 1.3-.7 2.2-.2zM323 252l4.9 3-.2 2.3-5.3-4.6z"/>
    <path d="M322.9 252.6c-1.1 1.2-2.1 1.4-3 .8-1-.5-.2-1.5-.2-1.5s.8-.5 1-1c.4-.4.1-1.3 1-1.7.8-.5 1.6 0 1.7.4.2.5.4 2-.5 3z"/>
  </g>
  <g fill="#aa8c30">
    <path d="M546.1 406.3s-.4.3-.6.8c-.3.4-.5 1.3-.5 1.3v-2.2l.8-.4.3.5zM546.4 405s-.5.8-1.7.7c-1.2 0-1.8-.6-2-1.2-.1-.6-.1-1.1.3-1.8s-.6.7-.6.7v1.3l.9 1.1.7.2h.8l1-.2.6-.5zm6.5 11.2s-.6.3-1 .2c-3-1-5.4-2.8-5.4-2.8l5.8 3.7zm3.6 1.7s0 1-1.2 1.5c-1 .5-1.9.3-2.3-.2-.4-.5-.6-1-.6-1.7 0-.9-.2.8-.2.8l.6 1.3 1.3.5.8-.1.7-.3.7-.8.4-.7zm37.2-73l-.1.6v1l-1.3-1.3.6-.9zm-.6-1.8c0 1-1.4 2.4-2.5 2-1.1-.5-2-1.6-1.3-2.8l-.3.5.1 1.6 1 1h1.4l1-.5.6-1.2zm15.3 2.7s-.2-.7 0 0c0 .9-1 2.6-2.1 2.4-1.2-.1-1.7-1.2-1.6-2.1 0-1-.2.3-.2.3l.2 1.3.6.6.9.5 1-.2 1-.6.4-.9v-.6z"/>
    <path d="M603.2 347s0 .5-.7.9l-2 1.2 4.3-1.3-.3-1-1.3.2zM577 381.3s-.3.3-.3.8a6.5 6.5 0 0 0 .1 1.2l-2.4-3.8.7-.5 1.9 2.3zm-1.4-3.6c-.4 1-2.2 1.7-3 1.2-.9-.5-1.6-2.4-.6-3.2l-.5.5-.3 1 .4 1.1.9 1 .8.2 1.2-.2 1-.7s.6-2 .1-.9zm8.6 8.8s0 .5-.8.5H581l4 .8.3-.8z"/>
    <path d="M589.1 387.4c.4 1.4-.8 2.7-2.3 2.2-1.6-.4-2-2-1.5-2.8l-.4 1 .3 1.3 1 .8.9.2 1-.2 1-1 .2-1.1zm-151.8 17.2c.4.4-.2 2.2-2 2.9-1.7.7-2.5 0-3-.6s-.4-1.2-.4-1.2l-.3.3.2 1 1 .7 1.5.3 1.1-.2 1.1-.6.6-.6.5-.7v-1l-.2-.4z"/>
    <path d="M435.8 408.4s-.3 0-.6.5l-.4 1.2v-2l.8-.5zm-5.8 6.1s-.2.5.3.7c.4.3 1.5.5 1.5.5l-2.8.1-.3-1 1.3-.3zm-1 1.8v.3c0 .2 0 .5-.2.8-.3.7-.5 1.5-1.5 1.3-1-.2-1.5-1-1.6-1.6a2 2 0 0 0-.3-1v1l.6 1.5 1 .4h1l.7-.2.3-1 .2-.7z"/>
    <path d="M421.8 416.1s.3 1.3 1.8 1.4c1.5 0 1.8-.4 1.8-.4l.2.5-.5.2-1.3.2-1.1-.2-.5-.4-.4-.7zm-14.5-39v.7c-.1.5-1 1.6-2.7 1.6-1.7 0-2.3-.5-2.8-1-.4-.6-.5-1.4-.5-1.4v.8l.6 1 1.6.9h1.6l1.6-.5.7-.8.1-.8-.2-.4zm-2.6 3.6s-.6 0-1 .3l-.5.6v-2l1.5.1zm-7.2 5.2s-.1.2.8.5c.8.4 4.8.9 4.8.9l-6.3-.2.2-1zm-.7.2l-.3.8c-.3.7-1.1 2.4-2.5 2.1-1.3-.2-1.1-1.1-1.1-1.3v-.4l-.3 1 .3.6.6.3 1 .2.8-.4.8-.7.4-.8.3-.9zm-3.4.1s0 .3-1 .4c-1.1 0-2.6-.5-2.6-.5l.5.7.8.2h2zm-3.2-44.3s.2.7-.4 1.1c-.6.5-1.9.7-2.7.3-.8-.5-2.3-2-2.3-2l.7 1.2 1 1 1.6.4 1.5-.2.6-.6.2-.5z"/>
    <path d="M385.7 344v.8c0 .7-.3 1.8-.3 1.8l1.4-3-.6-.5zm-8.2 2.3s-.2-.2.2.7c.4.8 3.7 4 3.7 4l-5.2-4.4.6-.9.7.6zm-1.7.5s-.7.4-1.3.4c-.6 0-1.6 0-1.7-.7-.1-.7.2-1 .2-1l-.4 1 .1.5.8.4 1 .1 1-.4.3-.3zm-2.1-2.2s0 .2-1 0c-.9-.1-2-1.2-2-1.2l.7 1.2 1.7.7z"/>
  </g>
  <g fill="#9ca168">
    <path d="M612.5 330.2c-.5 6-6.3 9-9.4 11.1-3 2.2-4.5 5-4.5 5l-1 3.4-.5 2.2v.7c.1.6.4 1.7.4 3.3l-.2 6.5 4.1-3 3-1 .9-.2s-3.3 3.3-4.6 6.8c-1.3 3.5-3.7 11-8.2 13.4-4.4 2.5-7.2 1.5-8.7 2.8-1.5 1.3-1.6 1.6-1.6 1.6l-1.9 2.7-1.5 2-1.4.9-.9.7c0 .7 0 1.7-.3 2.5l-1.1 3.7s.9-.6 2-.7l2-.1s-.8 1-1 2c-.4 1 .1 7-5.7 10.7-5.7 3.7-20.4 3-20.4 3l-2.8 1.2-2.6 2-2.4 2.6-.2.7s-1.8 2.2-3.1 3c-1.3 1-4.3 2.9-4.3 2.9s2.5-.1 3.4.2l5.4 2.3s-3.4 0-5.6.8c-2.3.9-12.6 6.7-17.5 6.5-5-.1-12.1-7.4-12.1-7.4l-3.2-2.3-5.4-1-6.6-.4.1-.8.1-1s2.3-.4 5.9 0c3 .4 4.1 1.5 6.7 1.8 2.6.3 4.5-.1 5.4-.5 1-.5 9-7.2 9-7.2l9-3.2 3.4.5 1.5.4 1.4.4s-.5.8-1.5 1.7c-1 1-2.2 1.6-2.2 1.6l1 .8 5.8-.9 1.8.5.5.3c.1-.4.4-1.3.9-2 .7-.8 3.9-3.4 5.2-4.3 1.4-1 1.7-1 2.1-1.6a50 50 0 0 0 2.3-5.2l.3-2.4 6.2-6 4.3-4.5 1.8-5.2-.2-1s1.5 1.6 1.3 4.7c-.3 3.2-1 4.3-1 4.3s4.3-3 6.6-4c1.8-.7 3.2-.7 3.6-.6.6-.4 2.3-1.4 3.3-2.9 1.2-1.8 1.5-2.3 1.5-3l.2-4.3-.4-10.8 3.7-8.2 5.4-4.8 1-.6s-.4 1.1-.5 2v2s2.6-3.6 4-4.3l.9-.4a10.7 10.7 0 0 0 1-3c.5-2 .6-4.8.6-4.8v-4.5l-.8-3.5-2.5-6.7v-8.8l-2-2.5s1.8-.1 4 3c2.2 3.2 2.8 7.6 2.8 7.6l5.1-15.6s1.4 1.9 2.4 5c1 3 1.2 5.1 1.2 5.1l2-4.3.3 1.5c.3 1.5 3.4 3.3 3 9.1zM509.3 430s-1-2.3-5.9-4.8a30.1 30.1 0 0 0-8.5-2.9v1.8l7.6 3.4 3.8 3.1 3-.6z"/>
    <path fill="#717732" d="M544.2 415.3c.5-.6 4.6-4.3 6.8-5.4 2-1 4.9-1.3 4.9-1.3 2.9-.5 3.4 0 10-3.8 6.8-3.7 8.3-8 9.6-9 1.3-1 3.6-1.3 3.6-1.3l-5.2 6c-2.5 2.7-5.1 4.4-9 7-3.7 2.5-11.6 2.6-11.6 2.6-3.3.8-4.4 1.6-6.2 3.2a22.3 22.3 0 0 0-3.1 3.4s-.2-.8.2-1.4zm18.6-19.5c-6.2 5.7-8.3 11-8.3 11s5.5-4.8 8.4-7.5c2.8-2.7 6.8-4 8.6-5.7 1.8-1.7 1.9-3 3-4.1l2-1.6s-2.7-2.1-13.7 8zM549.7 409s2.6-1.2 3.6-3.6c.8-1.7.4-2.2 1.5-4.2 0 0 6.5-6.3 8.8-9 4-4.8 2.2-8.7 2.2-8.7s.5 2-1.2 4.1c-1.7 2.2-10 7.9-11 11.2-1 3.2-.5 3.4-1 5.1-1 4-3 5-3 5zm-4.3 16.1s-3.3-2.2-7-2c-7.4.5-13.7 5.1-18.6 5.2-4.9.2-6.8-2.3-10.6-4.9-4-2.7-14-2.3-14-2.3l-.1.2-.1.3s6.9 0 9.8.9c5.6 1.5 8.7 7.4 15 7 8.3-.5 15-5.5 18.5-5.5 5.8 0 7 1.1 7 1.1zm-37-3.7s5.9 1 10.3-2.3c4.5-3.3 9.8-7.7 12.8-8 3-.1 6 .6 6 .6s-3.7-1.6-6.7-1.6-6 .5-8.8 2.1c-2.8 1.7-4.2 4.7-7.2 6.7-3 1.9-6.3 2.5-6.3 2.5zm-1 7.7c-.7 0-1.6.5-2 .5-.2 0-2-2-4.4-3.2-2.5-1.3-6.2-2.1-6.2-2.1s-.4 0 .4.4c.8.2 3.8 1.3 5.8 2.2 2 .9 3.9 3 4 3.3.2.3 1 1.2 2.4 1.2s2-.9 1.8-1.4c0-.6-1-.9-1.7-.9zm4.1-5.6s2.3 1.3 6 1.2c8.1-.2 13.2-5.7 18.5-7.7 5.3-2 8-.3 8-.3s.1-.3 0-.4c-.8-.6-3.2-1.9-6-1.9-8.8.2-17 5.8-20.7 7.3a28 28 0 0 1-5.8 1.8zm85.8-61c-2.8 2.7-6.8 11.7-8.6 14.1-1.8 2.5-4 3.2-5 4.2-.9.9-4.1 5.3-4.9 6.3-.7 1-1 .8-1.4 1.2-.6.5-.8.5 0 .3.9-.2 1.2-.8 2.5-2.3 1.4-1.5 1.3-2.2 3.4-4.1 2.2-2 6-4.1 8-6.5 1.9-2.3 5.8-11.4 7.9-13.7 2.2-2.4 6-3.8 6-3.8s-3-.9-8 4.2zm-13.8 17s-.1-1.7 1.9-4c2-2.4 2.7-2.1 4.2-5.6 1.6-3.5 2.3-6.9 3.6-10.6 1.3-3.7 3.6-7.3 3.6-7.3s-2.1.2-4.3 3a52.8 52.8 0 0 0-7.2 13.4c-1.8 5.1-1.8 11-1.8 11zm-2.6 3.3s.8-.4.9-4.9c0-4.5-.3-10.8 1-14 1.3-3 8.2-10.6 8.2-10.6s-2.9.7-6.8 4c-4 3-5.7 7-5.5 10.1.2 3 1.9 6.5 2 9.4l.2 6zm16.2-31s1.7-6 2.4-7.5.7-2.4 4.2-6.2c2-2.2 3.9-3.7 4.7-6.8.9-3 .8-11.7.8-11.7s-.9.8-1.6 2.3c-.7 1.5-.2 7.1-1.5 9.7-1.3 2.6-4.2 8.7-5.7 10 0 0-.3-4.3.3-8.7.5-4.5 2-5.8 2.6-8.7.7-2.9.3-10.4.3-10.4s-2.3 2.5-3.5 5.3a36.4 36.4 0 0 0-1.9 11.5c0 3.8.9 6.9 1 9 .1 2.2.3 3.2-.6 5.5-.8 2.4-.4.8-1 3l-1 4zm-5.4-33s2 2.6 1.8 5.6c-.4 3-1.5 6.8-.3 10 1.1 3 2.8 3.3 3.3 5.1.5 1.8.5 5.3.5 5.3s1-6.6.3-8.4c-.7-1.9-1-1-2-3-.9-1.9.1-7.1-.6-10.2-.7-3-3-4.4-3-4.4z"/>
    <path d="M469.6 429.4s.6-1.7 4.8-3.8c4.2-2 10.5-4.8 11-4.4.7.4-.2 2.6-.2 2.6l-4 1.3-3.3 1.9-3.8 2.4z"/>
    <path d="M480.3 418.4c-5.4.2-8.3 1.6-9.3 1.8-.4 0-1.1.6-1.8.2-1.2-.6-2.3-2.3-2.3-2.3l-1.2-1-.2 3.9-7.8-6.8-.9 4.5-1 2-7.7-7.2.4 5.6-2.1.2-5.6-3.8-1.6.5 1.8 3.3-7 .6s-.5.3-1.5 1.2c-1 .8-1.4 1.7-1.4 1.7s-.2.3 0 .5c.3.1 2.2 0 2.8-.1.6-.3 1-1 1.1-.8.2.4.4 2 1.3 1.8 1-.2 4.2-2.6 6.5-1.6 2.6 1.2-3.3 3-2.7 4.8.6 1.8 4.8 1 6 .5 1-.6 4.2-4.6 5.6-3.1 1.8 2.1-4 3.8-2.9 6 1 2 4.3 1.5 5.8.6s5.1-6.4 6-5.2c1.3 2-3.1 4-2 5.7 1.1 1.6 3.5-.1 5.2-1.2 1.6-1.2 2.2-3.9 4.5-5.1 2.2-1.3 2-.8 2.7-.8.6 0 2.3-1.7 2.3-1.7l5.3-2.3 2.6.2 1.3.6 2.6.4.3-2.2s-3-1.4-5.1-1.4zm-42.2 0l1.2-2-.7-.9s-1.8-1-3.5-2.7a10.6 10.6 0 0 0-3.1-2.5l-3.4-2.1-1.2-4.3-.7-1.3-2 .8-2.6-9.3-.5-1.7h-1.1l-2.2 5.6-2.4-3.6-.6-7.7-1.6 1.7-2 2-3.4-7s-.3-.2-.4.4c-.2.6-.5 2.8-.3 4a38.6 38.6 0 0 1-9-8L397 376l1.5-3.3.8-3.9-3.4 1.4-.6-8.8-.5-2.7-4.1 5.8s-1.6-2.3-1.6-2.5v-5.6l-1-.3-1.7 3.1s-1.6-3.2-2.3-3.9c.1-1.2.3-4.4-.5-6.8-1-3.2-2-4.8-1.6-7.4.4-2.5 1.4-2.7 1.3-3.9-.1-1-1.8.8-1.3-.7.6-1.5 6-5 4.8-6.7-1-1.8-6.2 2.8-5-.3 1.2-3 6-3 6.4-7.4.1-2.6-4.7 1.7-5.1.4-.5-1.4 3-4.1 3-5.9-.1-1.7.6-1.9-.4-2.8-1-1-3.9 3.6-3.9 3.6l-3.2-1.2-1.1 4.6-1 4-4-2.4 1 4.7 1 4.7-4.1-1 2.2 3.9 2.8 2.9 1.8 2.4 1.3.7 1.7 1.7.6 2.5 1 3 .1 2.7v3.7l-.2.6v1.7c-.8 0-2-1.2-2.5-.4-.5.8 2.4 3 1.8 3.6-.5.6-4.7-.8-5 .5-.2 1.4.4 3.3 2.8 4 2.5.5 8.2 1.8 7.2 3-1 1-7.1-3.4-6.9-.2a5.8 5.8 0 0 0 4 5.3c1.6.6 7.8-.1 7.5 1.4-.4 1.4-5-.5-5.5 1.6s3.2 2.4 4 2.4c.8 0 3.4 0 4.4.7 1 .8 4.5 4.4 6.7 6.3 1.9 1.6 5.9 4.4 7 5.2-1.2-.1-3.6-.4-4 .5-.5 1.1 9.3 4.6 6.5 5.7-2.8 1.1-5.9-3-6.7-.5-.8 2.5 1.9 4.6 3.4 5.6 1.5.9 10.3.1 8.6 2.1-1.7 2-8-1.3-8.1 1 0 2.4 4.2 6 6.4 6 2.2-.1 4.6-3.6 5.6-1.7 1 1.9-1.7 2.6.4 3.1s3.6-2.1 6-1.6c2.5.4 6.3 2 8.5 4a121.1 121.1 0 0 1 4.3 4.2z"/>
    <path fill="#717732" d="M472.2 428.3c1.5 0 1.7.9 1.9.9.2 0 2.7-2.2 5-3.5 2.5-1.3 6-2.1 6-2.1l.3.3s-4.3 1-6.4 2.5c-2.6 1.9-4.6 3-4.8 3.3 0 .4-1 1-2.5 1s-2-.8-2-1.3c0-.4 1-1 2.5-1zm13-6.6s-1.3.2-2-.5a6.6 6.6 0 0 0-4-1.2c-1.5 0-4 .9-6 2.8-.1.1-.5.9-2.2 2 .6.1 1.7-.7 3-1.7 1.8-1.4 4-1.8 5.6-2 1.6-.3 2.6.6 3.3 1.1.8.5 2.2.4 2.2.4zm-77.4-31.6c.2 0 .1-.4 0-1-.2-.1-1.2-.5-3.3-1.8-2.6-1.5-7.8-5.7-7.8-5.7l4.3 4c2.2 2 6.2 4.5 6.2 4.5h.6zm54.7 38.7l2.2-3.3c1.4-2.3 2.7-3 2.9-3.3.2-.3-.6-1.4-1-2.3-.4-.8-.3-1.7-.3-1.8 0 0 .5 1.3 1.5 2.1a14.6 14.6 0 0 1 1.7 1.5s2-.3 2.1-.7c0-.4 0-.7-.4-.8-.3-.2-.7.3-1.7-.2-2-.8-2.7-3.8-3.9-3.9-1.2 0-.3 3.2-.8 3.2-1.9.2-3.3-6.6-7.6-6.9-3-.2-3.6.4-3.8 1-.1.8 3.7 4.8 2.4 5.4-1.3.6-5.4-6.4-8.4-6.5-3 0-3.2 1.1-3 1.8.3.6 3.3 1.2 2.6 3.4-.7 2-3.7-3.3-6.4-3-2.8.3-3.1.5-3.2 1.3-.2.8 1 2 .5 2.2-.4.3-2.1.2-3.5 1.2s-3.3 3.6-3.3 3.6 1.8-2.6 4.2-3c2.4-.2 8.5.1 8.5.1l-1.7-1.3c-1-.8-1.7-2.4-1.7-2.4l2.7 2.3c1.3 1 2.9 1.9 2.9 1.9s2.6.2 2.7.5c.2.3 0 1-1.1 2-1 1.2-2.6 2.6-2.6 2.6l3-2.4 2.4-1.8s1.8.3 2 .2c.2 0 .2-.7-1.1-2.6l-2.5-3.8s1.6 1.4 3.1 3.5c1.6 2 1.4 3 2 3.1l2.2.2c.6 0 .5 1-.6 2.6-1.1 1.7-1.8 3.8-1.8 3.8s1.2-1.8 2.4-3c1.1-1.3 1.8-2.7 2.2-2.8h2.3c.3 0-.3-.7-1.2-2.5-.8-1.7-1.1-4-1.1-4s.8 2.2 2.1 3.8c1.3 1.6 1.8 3 2 3l2-.2c.5 0 .5 0 .5.2.2.7-.1 1.1-1 2.8-.9 1.6-1.4 3.2-1.4 3.2zm-33-19.2c1.8.7 2.5.7 2.5.7s-2.6-1.5-3.2-3.7c-.7-2.1-.1-6.6-1.2-6.6-1.1 0-1.7 3.3-2.8 2.7-1.1-.7.3-6.7-.8-9.3-1.2-2.6-4-4.3-4.7-3.4-.6 1-.5 6.5-2.2 5.3-1.8-1.2.1-6-.4-8.2-.5-2.1-1.9-3.7-2.8-3.2-1 .6.3 4.6-1.2 4.7-1.6 0-1.4-2.9-2-3.2-.7-.2-1 .6-1.3 0-.4-.5-.2-2.6-1-2.4-.8.2-.7 1.8-.4 2.7.2 1 .7 2.2 1 2.7.4.6 1.6 1.4 1.5 1.8 0 .5-.7 1-1.6 1l-2.7-.1 2.8.7c.7 0 2.2-.3 2.6.4l2.2 3s.4-1.2.6-3.4c.2-2.2.1-4.2.1-4.2s.6 2.6.6 4.1c-.1 1.6-.7 4.6-.7 4.6s1.7 1.4 1.2 1.8c-.5.3-2.2.3-4.3.3-2 0-5-.8-5-.8s2.6 1.3 4.5 1.6c1.8.3 5.8.4 5.8.4l2.7 3.1s1.4-2.2 1.5-4.5c.2-2.2 0-4.8 0-4.8s.6 2.3.7 4.3c0 2-.7 5.5-1 5.8-.2.3-1.6 1.2-2.8 1.5-1.8.5-5.4 1-5.4 1s3.3.4 5.7-.2c2.4-.6 2.7-1.2 3.4-.8.6.4 1.2 1.1 1.2 1.1s1.5 1.1 2.1 1.4c.1.3-1 .8-1.7 1.1l-2.2 1.2 3.4-1.2c.5 0 1.8-.6 1.8-.6l.7.4-.2-1.9a41.8 41.8 0 0 0-.5-2.8s.8 1.3 1 2.5c.3 1.2.3 2.5.3 2.5s.2.3 2.1 1zM381.6 355s.6-2.5.6-5.5-2.1-7.5-2.4-8a7.5 7.5 0 0 1-.6-.9l1.4-2.1-1.8 1.4s-1-.2-1.8-.8a4 4 0 0 1-1.3-1.3s1 .7 1.8 1c.9.4 1 .3 1 .3l-.6-3-3-1.5c-2-1.1-3.8-3-3.8-3s2.7 1.7 4.3 2.4c1.5.6 2.4.7 2.4.7s1.6-.5 2.5-1l2.5-1.8s-1.6 1-2.7 1.2l-2.4.4-.5-3.6-1.7-1.8c-1.4-1.8-2.4-4.3-2.4-4.3s1.4 1.7 2.5 2.6c1.1.8 2.2 2.2 2.2 2.2l2.5-1.5 4.3-3-4.2 2-2.5 1s-.2-1.6.1-2.3c.4-.7 1.2-1.8 1-2.5 0-.7-.6-.4-.8-1-.2-.6.6-4 .6-4l.3 1.9c0 .6-.3 1.5.5 1.5 1 0 5-4.1 5.5-4.9.5-.8 1.3-2.9-.8-2-2.2.8-1.7 2.7-3.5 2.5-.5 0-1-2.3-1.8-1.7-.6.5-2.2 2-2.4 3.5-.3 1.7.3 4.1-.6 4.9-1 .7-1.7-2.8-3.5-2.3-1.8.4-2.2 2.9-1.9 3.9.3 1 4.2 5.5 3 6-1.3.6-4.3-3.8-6-.8-1.6 3 5.2 6 6 6.8.9.7.1.9 1.3 2.4s2.8 1.8 3.6 2.9c.9 1 3.3 5.8 3.3 8.9 0 3-.2 4.2-.2 4.2zm18 26.2s-1.7-1.9-1.1-5c.5-3.3 2.7-8.9 2-9.6-.8-.7-3 3.5-3.7 2.5-.6-1 1.4-6.6.4-8.9-1-2.3-1.1-3.8-3.1-3.6-2 .2-2.9 6.8-3.8 5.6-1-1.1.5-4-.1-5.6-.7-1.6-1-2.1-2-1.9-1 .3-1.4 3.3-2.1 3.3-.7 0-1.9-3.7-3.3-3.2-1.5.5 3.4 6.9 3.4 6.9s.9-.8 1.3-1.9l1-2.2s.3 2 0 2.9c-.4.8-.7 2.7-.7 2.7s-1.1.3-3.1 0-3.6-1-3.6-1 1.3.8 3.3 1.3a125.6 125.6 0 0 1 4.2 1.2l1.4 1.9a436.9 436.9 0 0 0 1.7 2.2s.6-1.3 1.1-3.3c.6-2 2-5.2 2-5.2s-.5 4-1 5.9l-.9 4.7-4-.6-5.6-1.3a58 58 0 0 0 9.9 3l2.1 2.9 1.5-2.2c.8-1.2 1.5-2.8 1.5-2.8s-.4 2.2-1 3.5l-1.2 2s-1.3.4-2.6.4h-3.9a30.2 30.2 0 0 0 6.9 1.4s.1.8 1 2c1 1.4 2.1 2 2.1 2z"/>
  </g>
  <path fill="#fff" d="M481.5 438.6s-1-1-2.3-1.7c-1.3-.7-1.7-.5-1.7-.5l-.6-.2 1.1-3 8.5-8 1.4-8.3h5.3L493 428l1.5.7 9.5 5.7v2.5l-1.4.6c-1 .3-1.1.6-1.1.6l-3.6.3-6.3-4.5-2.6-2.7-4.7 6-3 1.4z"/>
  <path fill="#016848" d="M488.2 417l-.2 1.6c0 1.3 0 7.9-.3 8.8-.3.9-4.9 2.8-7.5 5-2.6 2.3-2.7 4-2.7 4s-.9 0-2.5.7c-1.6.6-2.4 1.5-2.4 1.5s1-4 5.2-7.8c4.3-3.8 6.4-4.1 6.8-4.8.5-.6 0-7.8.1-8.4.1-.6.6-.6 1-.7h2.5zm10.8 24s.7-1.3 1.1-1.7c.4-.5 1.5-1.2 1.5-1.2s.1-.2-2.2-1.2c-2.3-1-3.5-.6-5.2-1.8a20.9 20.9 0 0 1-3.3-3.2l-2.2 2s1.3 1.8 2.6 3c1.2 1.3 4 1.7 5.4 2.4 1.2.7 2.3 1.7 2.3 1.7z"/>
  <path fill="#cd202a" d="M492.3 416.9s2.5-.2 2.9.2c.3.4.3.8.3 1 0 0 .1 6-.3 8-.5 2-1.5 4.1-2.1 4.7l-6.2 5.7a40 40 0 0 0-3.6 4.2l-1.2-1.4c-.6-.7-1.2-1-1-1.4 0-.5 2-3.3 5-5.3s5.5-4.3 6.1-7.5c.6-3.2.1-8.2.1-8.2z"/>
  <path fill="#cd202a" d="M509.1 437.3s-.6-.6-2.7-.7c-2.1 0-2.3.3-2.3.3s-1.2-1.4-3-2.7c-2-1.2-3.4-1-5.4-2.3-2-1.4-3-3.3-3-3.3l1.5-3.2s1.7 2.5 3.5 3.8c1.9 1.3 5.9 2.6 7.1 3.7l4.3 4.4z"/>
  <g transform="translate(-.7 51.2) scale(1.16833)">
    <path fill="#30c2dc" stroke="#0872a7" stroke-width=".7" d="M452.7 299.5s-4.7-1.8-4.3-3.5c.3-1.6 10.8-4.4 10.8-4.4l.2-2.8s-1.6 0-4.2.8-6.8 2-11.3 2a2423 2423 0 0 0-45.1-2.9c-4.9-.3-8-7.7-8-7.7l-2.3.4s.7 3.6-.5 4c-2.4.6-18.2-7.9-18.2-7.9l-1 3.5s9.8 5.1 9.5 7c-.3 2-3.2 1.9-3.2 1.9l1.2 2.3c.5 0 16 .7 16.3 5.4 0 1.9-3.9 3-3.9 3l1.4 1.6v.8s8.6 0 11 1.4c2.3 1.3 3.6 3.2 6.5 5 2.9 1.6 22.7 1.2 25.8.3 3.5-1 5.7-5 11.4-6.7 5.7-1.7 7.5-1.8 7.5-1.8z"/>
    <circle cx="373.4" cy="292.1" r="2.7" fill="#fff" stroke="#0872a7" stroke-width="1.4"/>
    <circle cx="389.1" cy="279.3" r="2.7" fill="#fff" stroke="#0872a7" stroke-width="1.4"/>
    <circle cx="454.8" cy="299.7" r="2.8" fill="#fff" stroke="#0872a7" stroke-width="1.4"/>
    <path fill="#f8c83c" d="M361.1 275.1c-.9 2.1 2.6 6 5.1 6.5 2.5.4 3.9-.2 4.3-1.4.4-1.2 0-2.5-.5-3.3-1.6-2-8-3.8-8.9-1.7z"/>
    <path fill="#fff" d="M368.9 278.3c0-1.2-2.1-2.5-3.5-2.5-1.3 0-2.6 0-2.4.7.2.7 3.6 1.6 3.7 2 .1.4-1 .8-.4 1.4.5.5 1.2 0 1.7-.3s1-.5.9-1.3z"/>
    <path fill="#f8c83c" d="M390.7 302c.6 1.8-.8 2.7-2.7 3.5-1.8.9-5.6.4-6.4-1-.9-1.6 1.4-4 3.6-4.5 2.3-.6 5 .3 5.5 2z"/>
    <path fill="#fff" d="M387 303c.6 0 .6 1.2 1.3 1 .6 0 1.2-1 1-1.8-.2-.6-1.4-1.6-2.4-1.5-1 0-4 2.6-3.7 3.3.4.7 1 .6 1.6.4.5-.3 1.4-1.2 2.1-1.3z"/>
    <path fill="#f8c83c" d="M458.4 292.5c1.6 2.2 4.6.2 5.4-.7.8-.8 3.2-2.2 2.2-3.7-1-1.4-2.7-1.3-3.8-1.2-1.1 0-3.5 1.7-3.8 2.5-.4.7-.8 2.2 0 3.1z"/>
    <path fill="#fff" d="M458.9 291s.1-2.3 2.4-2.4c1.3 0 1.3.3 2.3.9 1 .5 1.3-.8 1.3-.8s0 1.7-1.5 1.8c-1.6 0-1-.7-2.5-1-1.4-.1-2 1.6-2 1.6z"/>
  </g>
  <g fill="#f9aa51" stroke="#953220" stroke-linecap="round" stroke-linejoin="round" stroke-width=".7">
    <path d="M492.8 385.8l-1.3-.8-4.3-.1-5.2.2 5.2 15 6.2 9 2.4 1 4.8-.4.9-2.4-1.9-14.5-6.8-7z"/>
    <path d="M475.6 386.7l.3-1.7 2.8-.2c1.7 0 3 .1 3.3.3.1 0 3.6 4.3 4.8 7 1.2 2.9 2.6 7.5 4.1 10.3 1.6 2.9 4.9 7.6 4.9 7.6l-3.1.1h-3.1l-2.8-1-8.8-13.7-2.4-8.7z"/>
    <path d="M472 384.9s3.6 0 3.9.1c.3.2 4.3 3.8 5.9 8.1 1.6 4.4.8 5 2.8 9.5 2.1 4.5 5 7.6 5 7.6s-6 .3-9.4-.3c-3.4-.6-4.6-.5-5.4-1.5-.8-1-2.6-2-2.6-2h-3.4l.8-4.8-1-10.6.3-5.4 3-.7zm35.8 2.8l-5.7-2.4-10.6-.5.8 5.4c.4 2.7 2.2 8.8 4 11.9 1.7 3 3.4 6.7 4.3 7.6 1 .9 7-1.7 7-1.7l4-.6-.5-4.3-.5-1.4.9-12.3-.9-2z"/>
    <path d="M470.2 387.7c0 1.4 1.5 1.5 1.8 1.4.4 0 1.6-.5 1.6-2.4 0-1.8-1.1-3.2-3.3-3.3-2.2-.2-4 2.6-4 4.5s2 2.9 2 3.6c0 0-2 1.7-1.8 4.8 0 3 2.5 5.4 2.5 5.4s-2.6 2.1-2.6 4.3c0 2 2 3.5 4 3.5 1.8 0 4.2-1.2 4.2-2.8 0-1.7-1.4-2.6-2.6-2.6-1.2 0-1.7.7-1.7 1.2m39.3-16.7c0 1.3-.8 1.4-1.6 1.4-.7 0-1.7-.4-1.7-2.1 0-1.7 2.2-2.6 3.6-2.6s3.8 2 3.8 4.3-1.7 3.8-1.7 3.8 1 .5 1 3.5-1.9 5-1.9 5 2.5 1 2.5 4-2.1 4-3.6 4c-1.4 0-4-.8-4-2.9 0-2 1.4-2.8 2.4-2.8s2 1.2 2 2.3"/>
    <path fill="#953220" stroke="none" d="M473.9 404.6s.4.2.6.8c.3.6.5 1.6 1.2 2.2a50.3 50.3 0 0 0 14.1 1.5c3 0 12 .4 13.7-.6 1.7-1 1.9-2.7 2.9-3.4 1-.8 1.3-.7 1.3-.7l-1.3 1v2.2l.7 1.1s-.2.6-1.2 1.3c-1 .7-2 .9-3.4 1-1.5.2-20.3.1-23.4-.4-3-.5-2.8-.4-3.7-1.1a6.6 6.6 0 0 1-1.4-1.4l.4-1.3-.5-2.2zm30.6-18l1.7.6s-1.5.5-2.5 3.5c-1.1 3-.2 4-1 4.2-.7.3-9 0-9 0l-1.3-3.3z"/>
  </g>
  <g fill="#231f20">
    <path d="M530.5 385.3s-1.4-.5-2-1.6c-.7-1.2-1.2-2.7-.7-3 .5-.3 1.5.7 1.4 1.6 0 1 1.3 3 1.3 3zm16-4.4s1 1.8 1.3 2l2 1s-2.3 0-3-.7c-.7-.6-1.7-2.2-1.7-2.2z"/>
    <path d="M551.3 382.4s-1.4.8-2.5.3c-1.1-.4-2-1-1.6-1.6.5-.5.8-.3 1.3.4.6.6 2.8.9 2.8.9zm8-6.9s-1 1-1.8 1-2.4-.3-2.4-.7c0-.3 2.1-.5 2.5-.5l1.8.2zm-12-16s-1.8.5-2.4 1.4c-.6.9-.5 2 .3 1.9.7 0 1-1.1 1-1.4 0-.3 1-2 1-2zm-8 4.3s-1.4.9-1.8 1.6c-.3.8-.6 2.4.2 2.5.8 0 1-1.3 1-2l.5-2z"/>
    <path fill="#8cbebf" stroke="#04534e" stroke-width=".7" d="M525 373.5l-4.5 4.7s10.1 5.6 17.9 5.4c7.8-.3 16.6-6.4 17.2-7.6.6-1.3.1-6.7-.9-8.4-1-1.7-6.4-6-8.4-5.7-2 .2-5.6 3-9 6.2-3.3 3.2-3 6-7.6 5.7l-4.8-.3z"/>
    <path fill="#0c8489" d="M523.8 375.4s10.8 1.6 14-1.2c3-2.7 6.4-8.1 8.6-9.3 2.2-1.3 3.2-1.3 3.2-1.3l2.4 1.7 2.7 2.3.9 5.1v2.9l-3.3 2.7-6.2 2.9-6 1.8-5-.1-10.2-3-2.6-1.8-.7-.6z"/>
    <path fill="#04534e" d="M540.3 369.1c0-.9.6-.8 1.4-.8s1.7.1 1.7 1c0 1-.9 2.3-1.7 2.3-.8 0-1.4-1.5-1.4-2.5zm4.3 2.8c0-.9.7-1.3 1.7-1.3s1.8 1 1.8 2c0 .7-.8 1.4-1.7 1.4-1 0-1.8-1.3-1.8-2.1zm-1.5 6.4c0-1 .7-1.2 1.7-1.2s1.6.4 1.6 1.5c0 1-.9 1.8-1.8 1.8-1 0-1.5-1-1.5-2zm-5.7-2c0-1 1-1.4 2-1.4.9 0 1.6.9 1.6 2s-.7 2-1.6 2c-1 0-2-1.5-2-2.6zm-9 1.1a2.2 2.2 0 1 1 4.4 0 2.2 2.2 0 0 1-2.2 2.2 2.2 2.2 0 0 1-2.2-2.2z"/>
    <path fill="#8cbebf" d="M544.6 371.9c0-.8 1-1.3 1.7-1.3.6 0 1 .6 1 1.3 0 .8-.4 1.4-1 1.4-.7 0-1.7-.7-1.7-1.4zm-1.4 6.2c0-.9.8-1.3 1.7-1.3.9 0 1.6.4 1.6 1.3 0 .8-.8 1.5-1.7 1.5-.9 0-1.6-.7-1.6-1.5zm-5.7-2c0-.9 1.5-1.3 2.2-1.3.6 0 .5.6.5 1.6s-.5 1.7-1.2 1.7c-.6 0-1.5-1-1.5-2zm2.7-7c0-1 .6-1 1.2-1 .5 0 1 .3 1 1.1 0 1-.5 1.6-1 1.6-.6 0-1.2-1-1.2-1.8zm-11.8 7.7c0-1 .9-2 2.1-2 1.3 0 2.6.5 2.6 1.5s-1.5 2.7-2.8 2.7c-1.3 0-2-1.2-2-2.2z"/>
    <path d="M532.5 375s-1.5.3-2.3 1c-.8.8-.9 1.6-.4 1.9.4.3 1-.6 1.1-1l1.6-1.9zm7.2-1.5s-1.5 1-1.6 2c-.2 1 0 1.5.4 1.5s.6-1.3.5-1.8c-.2-.5.7-1.7.7-1.7z"/>
    <path d="M540.9 375s-1 0-1.6.6c-.7.6-1.3 1.4-.8 1.4.4 0 1.1-.3 1.2-.7 0-.4 1.2-1.3 1.2-1.3zm1.5-8.4l-1.1 1c-.4.4-1 1.4-.4 1.6.5.3.8-.2 1.2-.9.3-.7.3-1.7.3-1.7zm5.5 3.5s-1.4.2-1.9.8c-.4.6-.7 1.3-.1 1.3s.7-.3 1-.8c.2-.6 1-1.3 1-1.3zm-.9 6.4s-.3 1-1.1 1.5c-.9.4-1.1.8-1.5.2-.3-.6.1-1 .6-1l2-.7z"/>
    <path fill="#04534e" d="M555.7 372.2s.6 3-2 4.4c-2.6 1.5-9.9 6.6-16.7 6-7-.6-14.7-4.5-14.7-4.5l-1.1.5 1.7.8 5.3 2.2 6.1 1.8 3.8.2 3.3-.4 6-2 5.2-2.6 2.7-2.2.7-.8v-3z"/>
    <path d="M420.8 333.4s1.6 1.3 1.5 2.5c-.2 1.2-.6 1.6-1 1.4-.5-.2-.5-1.4-.4-1.9v-2zm11.8 11s-.5 2-1.3 2.1c-.8.2-1.4-.6-1.2-1 .1-.3.8 0 1.1-.3l1.4-.9zm-25.6 1.5s.5 1.2 1.5 1.4c1 .2 1.6-.6 1.4-1-.1-.3-.6-.2-1.1-.2l-1.8-.2zm4.5 9s1 1 2.3 1.2a2 2 0 0 0 2-1.1c.1-.3-1.5-.3-2 .1s-2.3-.2-2.3-.2zm8.1 6.9s2.1-.4 2.5-1c.3-.5.9-1.5.4-2-.4-.6-.8.8-1 1.4-.3.5-1.9 1.6-1.9 1.6z"/>
    <path fill="#8cbebf" stroke="#04534e" stroke-width=".7" d="M432.7 356.3s1.4-9.4-6.2-16c-7.5-6.5-12.5-5-15-2.5-2.6 2.4-4.9 10.4 3.1 17.3 8 7 18 4.8 18 4.8v-3.6z"/>
    <path fill="#0c8489" d="M409.6 346.4s-.1-5.1 2.3-6.7a10.5 10.5 0 0 1 14.4 4.8c4 7.5 4 11.3 3 15.2h-4.2l-6.6-2.7-5.4-4-3.5-6.6z"/>
    <path fill="#04534e" d="M431.7 357.6s-1.3 1.5-4 1.4c-2.8-.1-15.5-3.4-18.6-14.8l.2 2.5v.8l1 2.3 2.6 3.8 3.3 3 4.3 2 3 1 4 .7h2.2l2-2.7z"/>
    <path fill="#04534e" d="M425 354.4c0-1 .6-1 1.4-1 .8 0 1.4-.4 1.4.6s-.5 2.4-1.3 2.4-1.4-1-1.4-2zm.6-6c0-.8.7-1.3 1.5-1.3.7 0 1.4.5 1.4 1.2s-.7 1.3-1.4 1.3c-.8 0-1.5-.6-1.5-1.3zM420 355c0-.6.7-1 1.6-1 .9 0 1.6.4 1.6 1 0 .5-1.6 1.3-2.5 1.3-.9 0-.7-.8-.7-1.3zm-.5-7.1c0-.9.4-.6 1.2-.6.7 0 1.7.2 1.7 1.1 0 1-1 2.1-1.7 2.1-.8 0-1.2-1.7-1.2-2.6zM414 349c0-.8.5-1.8 1.5-1.8s2 1 2 1.8-.8 1.3-1.8 1.3-1.7-.6-1.7-1.3zm1-6.3c0-.8.5-.7 1.5-.7s1.8.4 1.8 1.2c0 .7-1.2 1.7-2.2 1.7-1 0-1.1-1.4-1.1-2.2zm5.8-.6c0-.8.6-.5 1.5-.5 1 0 1.7.6 1.7 1.4 0 .7-1.2 1.6-2.1 1.6-1 0-1.1-1.7-1.1-2.5z"/>
    <path fill="#8cbebf" d="M415 342.6c0-.5.5-.9 1.2-.9.6 0 1.3.2 1.3 1 0 .7-.6 1.4-1.3 1.4-.7 0-1.4-.7-1.2-1.5zm-1 6.2c0-.8.3-1.5 1-1.5.8 0 1.5.1 1.5.9 0 .7-.7 1.6-1.5 1.6s-1-.2-1-1zm6.7-6.5c0-.6.5-.7 1.3-.7.7 0 1.2.2 1.2.8 0 .6-.6 1-1.4 1s-1-.5-1-1zm-1.3 6c0 .7.6 1.4 1.3 1.4.8 0 1.6-.7 1.6-1.5s-.8-1.6-1.6-1.6c-.7 0-1.3.8-1.3 1.6zm6.5-1c0 .8.6 1.4 1.4 1.4.8 0 1.5-.6 1.5-1.4 0-.7-.7-1.3-1.5-1.3s-1.4.6-1.4 1.3zm-6.3 7.6c0-.6.7-1.3 1.4-1.3s1.3.4 1.3 1c0 .8-1.2 1.6-1.9 1.6-.6 0-.8-.6-.8-1.3zm5.5-1c0-.8.6-.8 1.5-.8s1.2 0 1.2.9c0 .8-.6 1.4-1.5 1.4-.8 0-1.2-.6-1.2-1.5z"/>
    <path d="M426.6 344.5s.9 1 1 1.8c.2.9.2 1.8-.1 1.9-.3 0-.8-.5-1-1.3-.1-.8.1-2.4.1-2.4zm-4.8-5.2s.5.9.5 1.6c0 .8 0 1.6-.5 1.6-.4 0-.4-.7-.4-1.3 0-.6.4-1.9.4-1.9zm-5.7.8s.6.8.6 1.6-.1 1.6-.5 1.6-.4-.8-.4-1.3l.3-2z"/>
    <path d="M414.1 341.1s.8.3 1.4.8c.7.5 1 1 .7 1.4-.3.3-.9-.2-1-.5l-1-1.7zm4.3 6s1.1 0 1.7.6c.6.6 1.1 1 .8 1.4-.4.4-1.2-.3-1.6-.7l-.9-1.3zm-5.2-.2s1 .2 1.5.6c.5.4.6 1 .4 1.2-.3.2-.6 0-1-.5l-1-1.3zm12.7 4s.4 1.2.4 2c0 1 0 1.7-.3 1.7-.4 0-.6-1-.6-1.7s.5-2 .5-2zm-1.4 2s.9.3 1.3.7c.4.3.5.9.2 1-.3 0-.5-.6-.8-.8l-.7-1zm-5.7.3s1 .1 1.4.4c.4.3.4 1.6.4 1.8 0 .1-.7 0-1-.6a12 12 0 0 0-.8-1.6z"/>
    <path fill="#04534e" d="M416.6 335.9s-5 1-6 4.3c-.8 3.2-.9 6.8-.9 6.8l-.7-4 1-2.7 1.5-2.5 2.2-1.4 2-.7zm15.6 19.2s.6-1.3-1-5.2c-1.4-4-4.4-9.2-4.4-9.2l2.3 2.7 2 3 .8 2.8.7 2.6v2.5z"/>
    <path d="M437.3 348.7s1.8 1.1 2 1.7c.1.7.2.9-.3 1-.4.2-1.1-.5-1.3-1l-.4-1.7zm-7.3 19.7s.8-1.5 1.9-2.1c1-.6 2-.5 2.2-.2.3.4-.7 1.2-1.5 1.5l-2.6.8zm12.3 4.7s1.2-.6 2-1.4c.8-.9 1-1.5.6-1.8-.3-.3-1.3.2-1.7 1-.5.6-.9 2.2-.9 2.2zM441 372s.4-1.6.8-2.1 1-.8 1.5-.5c.4.2.2 1-.2 1.3-.3.4-2.1 1.3-2.1 1.3z"/>
    <path fill="#8cbebf" stroke="#04534e" stroke-width=".7" d="M461.6 362.6s-7.7-11.2-19.6-11.7c-9.6-.5-12.6 8-12.2 10.6.3 2.5 3.9 8 16.6 9 12.8 1 14.8-6 15.4-6.3.5-.4-.2-1.6-.2-1.6z"/>
    <path fill="#0c8489" d="M452.5 355s3.2 2.4 4.6 4.3c1.3 1.9 1.6 3.3.8 3.6-.8.2-7.7-6.2-13.4-7.6-5.6-1.3-10.6 0-11.7 2.7-1 2.7-.7 6.8 2 8.4 2.5 1.7 14.7 3.7 14.7 3.7l5.7-.9 3.5-2 .8-1.9.9-2.5.4-1-3-3.2-5.3-3.7z"/>
    <path fill="#04534e" d="M442.8 356.5c0 .7-.8 1-1.5 1s-1.4-.3-1.4-1 .6-1.3 1.4-1.3c.7 0 1.5.6 1.5 1.3zm-7 2.5c0-.7.8-.7 1.6-.7s1.4.6 1.4 1.3c0 .7-1.2 1.7-2 1.4-.8-.5-1-1.3-1-2zm7.5 4.1c0-.9.8-1.6 1.7-1.6 1 0 1.7.7 1.7 1.6 0 1-1.2 2-2.2 2s-1.2-1-1.2-2z"/>
    <path fill="#8cbebf" d="M437.6 364.8c0-.8.8-1 1.5-1s1.6.8 1.6 1.6-.9 1.3-1.6 1.3c-.7 0-1.5-1-1.5-1.9z"/>
    <path fill="#04534e" d="M447.8 367.6c0-.7.4-1.2 1-1.2.7 0 1.5.4 1.5 1s-.6 1.4-1.3 1.4c-.7 0-1.2-.6-1.2-1.2zm4.6-3.5c0-.8.5-.7 1.3-.7s1.6.4 1.6 1.2c0 .9-1 1.3-1.8 1.3s-1.1-1-1.1-1.8z"/>
    <path fill="#8cbebf" d="M442.3 355.8c0 .7-.2 1-.9 1-.6 0-1.3-.3-1.3-1 0-.6.2-.8.9-.8.6 0 1.3.2 1.3.8zm-3.6 3c0 .7-1 1.2-1.7 1.2s-1.1-.5-1.1-1.2.5-.9 1.1-.9c.7 0 1.7.2 1.7 1zm1.6 6c0 .5-.2 1-1 1-.6 0-1.6-.5-1.6-1 0-.7.3-1.1 1-1.1s1.6.4 1.6 1zm6-2c0 .5-1.2 1.3-1.8 1.3-.7 0-1-1.2-1-1.8 0-.7.6-1.2 1.2-1.2.7 0 1.7 1 1.7 1.6zm9 1.8c0 .7-1.1.6-1.7.6-.6 0-1.2-.7-1.2-1.4s.2-1.3 1.7-1c.6 0 1.1 1.1 1.1 1.8zm-5.3 2.7c0 .7-.5 1.2-1.1 1.2-.7 0-1.2-.5-1.2-1.2s.5-1 1.2-1c.6 0 1.1.3 1.1 1z"/>
    <path d="M450.8 363.6s1.2-.4 2.2-.3c1 .1 1 .5 1 .6 0 .2-.8.5-1.1.4l-2-.7zm-5.2 4.4s1-.6 1.8-.8c.7-.1 1.3.1 1.3.6s-.3.6-1 .6c-.8 0-2-.4-2-.4zm-3.3-7.7s2.1 1 2.6 1.8c.4.9.6 1 .2 1.3-.5.3-1-.3-1.3-.7l-1.5-2.4z"/>
    <path d="M441.7 363s1.7-.4 2.4-.4c.8 0 1 0 1 .4.2.4 0 .5-.7.5l-2.7-.4zm-5.2.2s1.8.2 2.2.7c.5.4.5.9.3 1.1-.2.3-1 .1-1.3-.1l-1.2-1.7z"/>
    <path d="M436.2 365.7c.1 0 .7-1 1.4-1.2.6-.2 1.4-.2 1.5.2.1.3-.6.8-1 1h-1.9zM435 358l1.8.5c.6.5.8.9.6 1-.1.2-.8.3-1.3 0a3.3 3.3 0 0 1-1.1-1.5zm3.9-4.5s1.8.5 2.4 1.3c.6.8.5 1.3.2 1.5-.3.2-1-.3-1.4-.6-.4-.4-1.2-2.2-1.2-2.2z"/>
    <path fill="#04534e" d="M459.5 366.4s-3.7 3.1-12 2.8c-8.3-.3-15.9-3.8-17.8-7.7l.8 2 1.8 2.4 5.9 3 6.5 1.4 5.2.3 4.8-.8 3.8-1.8c.2-.1.6-1 .6-1zm1-4s-1.3-1.7-3.3-3.5c-2-1.8-9.5-6.7-9.5-6.7l6.1 2.8 4 3.4 3 3.1-.2 1z"/>
    <path d="M461 355s2 .9 2.3 1.4l.8 1s-.5 1.3-1 .8c-.5-.6-.6-.6-1.1-1.4-.6-.7-1-1.7-1-1.7zm6.1-3.3s2 .9 2.7 1.8c.7 1 .5 1.8.2 1.9-.3 0-1.6-1-1.8-1.5l-1-2.2z"/>
    <path d="M469 351.4s2 1.3 2.2 2c.3.5 1 1.3.3 1.5-.6.2-1.4-.7-1.7-1.2l-.7-2.3zm10.6 2.4s1.4.5 1.6 1.7c.1 1.2-.2 2.1-.2 2.1s-1-.9-1-1.1c0-.3.2-.5 0-1a561.7 561.7 0 0 0-.4-1.7zm2.8 1s1.1 1.1 1.3 2c.1.7.2 1.2-.4 1.3-.6 0-1-.7-1-1.3v-2zm-18.9 23s1 .3 1.8 0 1.5-1 1.4-1.6c-.2-.5-.6-1-1.3-.3-.6.7-.3 1-.8 1.2l-1 .6zm10.4 2.7s1.4-.2 2.3-1.2c1-1 1.4-1.7.7-2-.6-.2-1.5 0-1.6.8-.2.9-1.4 2.4-1.4 2.4zm8.5.3s1-.6 1.8-1.3c.8-.8 1.3-1.2.7-1.8-.5-.6-1-.2-1.1 0-.3.4 0 .4-.3 1.2l-1 2z"/>
    <path d="M485 380.8s1.1-1.4 1.4-2.1c.2-.8.4-1.7-.1-1.6-.5 0-1.2.7-1.2 1.3l-.1 2.4z"/>
    <path fill="#8cbebf" stroke="#04534e" stroke-width=".7" d="M459.1 367c0-3.7 5.4-12.4 11.5-12.3 2.5 0 7.5 1.4 11.6 3.2 3.4 1.5 4.5 3.2 6.7 3.7 2.3.6 5.6.2 5.6.2l7.7-.9-6 8.8-2.2 1.9s-1.8 3.7-7.3 5.8c-5.4 2.1-14.6.5-18.7-.5s-9-5-8.9-10z"/>
    <path fill="#04534e" d="M459.1 367h.4c0-.8.3-2 1-3.3.8-2 2.2-4.1 4-5.8a9 9 0 0 1 6-2.8c1.3 0 3.2.4 5.2 1a45.1 45.1 0 0 1 6.3 2.2c1.7.7 2.8 1.5 3.8 2.2a9 9 0 0 0 3 1.5c1 .3 2.1.3 3.1.3l2.7-.1 6.7-.8-5.4 8-2.2 2c-.1.2-2 3.6-7.1 5.6-2 .8-4.3 1-6.9 1-4.3 0-9-.8-11.6-1.5-2-.4-4.1-1.6-5.8-3.3a8.7 8.7 0 0 1-2.8-6v-.2h-.8v.1c0 2.6 1.3 5 3 6.7 1.8 1.8 4 3 6.2 3.5 2.7.7 7.4 1.6 11.8 1.6 2.6 0 5.1-.3 7.2-1.1 5.5-2.2 7.5-6 7.5-6l-.4-.2.3.3 2.2-2 6.5-9.5-8.5 1h-.2a25 25 0 0 1-5.3-.2c-1-.2-1.8-.7-2.8-1.4-1-.7-2.1-1.5-3.8-2.3a44.5 44.5 0 0 0-11.8-3.2h-.1c-1.6 0-3.2.6-4.5 1.5a17.2 17.2 0 0 0-7.3 11.2h.4z"/>
    <path fill="#0c8489" d="M496 368.2c-.6.5-1.3.5-2 .5-.9 0-17.8-10.4-23-10-5.4.5-10.4 2.8-10.5 8.2-.2 5.4 1.1 5.5 2.2 7s11.5 3.8 11.5 3.8l6.3-.2 5-.5 4.6-2.4 2.4-2 1.6-2 2-2.4z"/>
    <path fill="#04534e" d="M469.3 365.4c0 1-.4 1.8-1.5 1.8-1 0-1.8-.5-1.8-1.5s.6-1.5 1.6-1.5 1.7.1 1.7 1.2zm1.7-4.7c0-.9.9-1.3 1.9-1.3s1.7.4 1.7 1.3c0 .8-.8 1.5-1.7 1.5-1 0-1.9-.6-1.9-1.5zm10.2 2.7c0-.7.7-1.3 1.5-1.3s1.4.6 1.4 1.3c0 .8-.6 1.4-1.4 1.4-.8 0-1.5-.6-1.5-1.4zm2 6.3c0-1 .8-1.8 1.6-1.8 1 0 1.7.4 1.7 1.4s-.3 2-1.1 2c-1 0-2.1-.7-2.1-1.6zm-4.9 4c0-.9.8-1.6 1.7-1.6 1 0 1.7.7 1.7 1.6 0 .8-.7 1.3-1.6 1.3-1 0-1.8-.5-1.8-1.3zM469 372c0-.8.7-1.4 1.5-1.4a1.5 1.5 0 1 1 0 3 1.5 1.5 0 0 1-1.5-1.6z"/>
    <path fill="#8cbebf" d="M469.2 365.2c0 .8-.7 1.5-1.6 1.5-.9 0-1.6-.7-1.6-1.5 0-.9.7-1.2 1.6-1.2.9 0 1.6.3 1.6 1.2zm5-4.8c0 .8-.3 1.3-1.2 1.3-.8 0-2-.5-2-1.3s.8-1.5 1.6-1.5c.9 0 1.5.7 1.5 1.5zm9.8 2.6c0 .7-.7 1.3-1.4 1.3-.8 0-1.5-.6-1.5-1.3 0-.7.7-1.3 1.4-1.3.8 0 1.5.6 1.5 1.3z"/>
    <path fill="#04534e" d="M478.8 367.2c0 1-.4 1.8-1.5 1.8-1 0-1.8-.5-1.8-1.6 0-1 .6-1.4 1.6-1.4s1.7.1 1.7 1.2z"/>
    <path fill="#8cbebf" d="M471.7 371.7c0 .8-.8 1.5-1.6 1.5-1 0-1.6-.7-1.6-1.5s1-1.3 1.9-1.3c.8 0 1.3.5 1.3 1.3zm6.8-4.7c0 .8-.7 1.5-1.6 1.5-.8 0-1.5-.7-1.5-1.5s.7-1.5 1.5-1.5c.9 0 1.6.7 1.6 1.5zm8 2c0 1-.5 1.7-1.5 1.7s-1.7-.7-1.7-1.6c0-1 .2-1.3 1.2-1.3s2 .4 2 1.3zm-5.1 4.3c0 .9-.6 1.4-1.5 1.4s-1.7-.5-1.7-1.4c0-.9.7-1.2 1.6-1.2.9 0 1.6.3 1.6 1.2z"/>
    <path d="M482 368.3s2.5-.3 3 .2c.4.4.3 1 .1 1.3-.2.2-1.2.2-1.4-.1-.2-.4-1.7-1.4-1.7-1.4zm-2.5-8.2s2 .5 2.7 1.3c.8.8.7 1.6.5 1.8-.1.1-.8.3-1.4-.3a30 30 0 0 1-1.8-2.8zm-5.8 4s2.3 1.1 2.8 1.9c.5.7.6 1.2.4 1.5-.3.3-1.4 0-1.6-.4-.1-.4-1.6-3-1.6-3zm-1 1.7s2.5.3 3.2.8c.6.4 1 .5 1 .8 0 .4-.3.7-.7.7l-1.8-.8-1.7-1.5zm-3-7.5s2.7.4 3.2.8.7 1.6 0 2c-.5.3-1.2-.4-1.4-.9-.2-.5-1.7-1.9-1.7-1.9zm-5.5 4s2.4 1 3.1 2.1c.4.6.8 1 0 1.3-.7.3-1.4-1-1.4-1.3 0-.3-1.7-2.2-1.7-2.2z"/>
    <path d="M463.7 365.3s1.5-.3 2.2-.3c.8 0 1.8-.3 1.8.3s-.9.7-1.4.6l-2.6-.6zm13.2 8.5s1.6-1 2.4-.8c.9.2 1.1 0 1.1.6 0 .5-1 .4-1.2.4l-2.3-.2zm-9.3-1.3s.7-1 1.4-1c.7-.2 1-.1 1 .2.2.3-.5.8-.8.8h-1.6z"/>
    <path fill="#04534e" d="M494 370.8s-2.5 3-6 4.6c-3.6 1.5-6.3 2-11.2 1.7a23 23 0 0 1-17.1-8c-.5-1 .5 1.7.5 1.7l3 4 3.7 1.6 5.3 1.4 5 .6 3.9-.1 4.5-.7 3-1.1 2-1.2 1.5-1.3zm-4.7-9s-1.4.5-4.5-1.4c-3-1.9-6.6-4.3-13.5-4.4-6.9 0-9 4.7-9.5 5l3-4 3.2-1.7 2.5-.4h2.3l3 .9 2.8.8 3.2 1.1 2.7 1.5 3.4 1.8 1.4.8zm9.2 2h-5.2c-1.1.2-1.2.4-1.3.7a6 6 0 0 1-.5.7l-1.2-2.7 5.4-.8 3 1.2z"/>
    <path fill="#0c8489" stroke="#04534e" stroke-width=".7" d="M491 392c.3.7 1 1.4 1.8 1.4h2.5l5.4-.4 2-2.2 1.1-4.9 1.5-1.8 5-2.8 4.4-1.3 2.8-.3 4-1.3 2.8-1.5 1.2-1.8 1.2-2.8-1.2-3.8-3-4-5.2-2.2h-4.2l-4.8 1.8-8.4 2s-4.6 2-6.5 5.6c-2 3.6-2 4.5-2.3 9.3-.3 4.8 0 11 0 11z"/>
    <path fill="#8cbebf" d="M493.3 390.1c1.6 0 .4-2.7 2.2-5.8 1.9-3.2 4-7 4.6-7 .6 0 .7.5 1.4.3.6-.2 1.8-1.2 1.8-1.4 0-.3 0-2 1.5-3.2 1.4-1.2 3.3-2.8 4.3-3 .9-.2 1.3-.4 1.5 0 .2.5-.5 1.1 0 1.3.7.2 2.2.2 2.5-.8.4-1 .3-1.4.3-1.4s1-1 2.8-.6c1.8.4 2 .3 2.2 1 .2.7-.8.8-.6 1.3.2.5-.1.5 0 .9.2.4.5 1.4 1.7 1.4 1.3 0 1.8-.7 1.8-.7l.4-.7s.3-.8-.2-1c-.4-.4-.3-.7.2-.5.5.2 2.3 2.8 3 1.7.6-1 .7-2.6.3-3l-3-4.3-4.6-1.6-6.2.5-6 3.5-5.5 3s-.3 4.4-1.3 3.6c-1-.8-2.4-3-2.9-2.3-.4.8-1.4 4-2 5.7-.5 1.7-2.1 6.7-2 8.6.2 2 1.2 4.5 1.8 4.5z"/>
    <path fill="#8cbebf" d="M498.9 382.8c-.5 0-1 .5-1.3.7-.2.3-.5.8-.3 1.4.2.6 1 1.2 1.1 1.2h.7l1.5-.4s.5-.5.5-1.3c0-.7-.4-.8-.6-1l-1.6-.6zm9.5-7.8c-.9-.3-1.3.2-1.4.5-.2.3 0 .9 0 .9s0 1.1.5 1.4c.5.2 1.7.6 2 .2.4-.4.8-.7.8-1.5 0-.7-1.1-1-1.1-1zm7.6 1.8c0-.3-.8-.5-1.3-.4-.5 0-1.1.7-1 1.7.3 1 1.2 1 2 .8.7-.1.5-1.2.5-1.3l-.2-.8zm-22 1.5c0 .5.7 1.4 1.8 1.3a2 2 0 0 0 1.8-1.5c.1-.6-.5.6-1.3.8-.8.2-1.3.4-1.7 0-.3-.5-.7-.6-.7-.6z"/>
    <path fill="#04534e" d="M501.1 384.4s.1 1-.6 1.5-1.1.5-1.5.5c-.4 0-.9-.1-1.2-.5l-.5-1s.8 1.3 2 1c1.2-.4 1.8-1.5 1.8-1.5zm20.6-12.7s0 1-.8 1.4c-.8.4-1.1.5-1.5.5-.4 0-1-.2-1.2-.7-1-1.4-.4-2.3-.4-2.3s.6 2.4 1.9 2.3c1.3-.2 2-1.2 2-1.2zm-18.3 4.4s-.7 2-2 2c-1.2 0-1-.5-1-.7.1-.2.6.2 1.1 0a8 8 0 0 0 1.9-1.3zm3.5-.3s-.1 1.3.3 1.8c.5.5 1 .7 1.6.7s.9-.1 1.3-.6c.4-.6.2-1.2.2-1.2s0 .3-.4.7c-.4.4-.8.5-1.2.5-.4 0-1 0-1.2-.5l-.6-1.4zm6.5-6.7s.4 1-.4 1.9c-.8.8-2.3.3-2.3.3s1.2.3 1.8-.3c.6-.7 1-2 1-2z"/>
    <path fill="#04534e" d="M492.6 393s8.1-.1 8.8-1.2c.6-1.1-.7-5.5 4.1-9 5-3.3 8.7-3.3 11.3-3.5 2.6-.2 8.2-2 9.1-7 .6-3-3.4-3.1-5-6-1.5-2.9-5.5-1.7-5.7-1.7-.2 0-4.6-.2-6.7 1.9-1.3 1.2-1.1 2.7-1.7 3.4-.6.7-6 0-6.5.9-.6.8.1 2.6-.3 3-.4.5-1.7-1.1-1.7-1.1l.5-4.3 6.8-4 7.8-4.3s5 .3 5.2.2c.2-.1 5.3 2.6 5.4 2.6l2.6 3s.5 1.3.7 3.7c.1 1 0 2-.2 3a11.1 11.1 0 0 1-10.2 7.6c-4.6.3-8.8 2.3-11 3.9-2 1.5-3 8.2-3 9-.1.8-10.1.3-10.1.3l-.2-.4z"/>
    <path d="M496 377.3c-.4.3-1 .3-1.1-.2-.4-1.3.4-3.2.4-3.2s0 2 .1 2.4c.2.3.6.2.8.5 0 0 .2.2-.2.5zm5.1-1c-.4-.2-.3-1.4 0-2 .3-.5 2.6-2.1 2.6-2.1l-1 2.2c-.3.6-1 2-1.6 1.9zm-2 8.2c-.3 0-.4-.7-.4-1.6 0-.8 1.5-2.5 1.5-2.5l-.5 2c0 .4.3.8.2 1.3 0 .5-.4.7-.8.8z"/>
    <path d="M502.9 382.2s-.7.8-1.6 1.3c-.8.4-1.7 1.1-2.2 1-.5-.2.3-1.3.6-1.4l3.2-1zm7-9.9s-1 .8-1.5 1.9c-.4 1-.6 2-.2 2.1.5.2 1.2-1.2 1.2-1.7l.4-2.3z"/>
    <path d="M512.3 375.8s-.6-.6-1.8-1c-1-.2-1.6 0-1.7.4-.2.3-1 .8-.6 1 .4.3 1-.3 1.3-.4.3 0 .7-.3 1.3-.2l1.5.2zM511 369c.4.4 1-.3 1.5-1 .6-.6 1-1.8 1-1.8l-1.6 1c-.5.5-1.2 1.6-1 1.8zm10.5-.2s-1.4.6-1.8 1.2c-.5.6-1 1.3-.6 1.6.4.4.9-.3 1.2-.8l1.2-2zm-3 7s-.5 1-1.3 1.5c-.9.6-2 .9-2 .6-.3-.3 0-1 .4-1.1.3-.2.5-.2 1.3-.4l1.6-.6z"/>
  </g>
  <g transform="translate(-.7 51.2) scale(1.16833)">
    <ellipse cx="385.6" cy="257.8" fill="url(#b)" rx="3.8" ry="5.6" transform="rotate(8.7 385.6 257.8)"/>
    <g fill="#fcca3e" stroke="#aa8c30" stroke-width=".3">
      <path d="M387.7 247.7l-2.3 5.6 1.9-.2 1-5z"/>
      <path d="M388.7 245.3c-.8 0-1.5.6-1.6 1.4-.1.9.4 1.6 1.2 1.7.8.1 1.6-.5 1.7-1.3 0-.9-.5-1.6-1.3-1.7zM485.2 259.4l-5.5 5.1 2.3.6 3.8-5z"/>
      <path d="M487.7 257.2a2 2 0 0 0-2.6.8c-.6.8-.3 2 .5 2.5 1 .4 2 .1 2.7-.8.5-.9.3-2-.6-2.5zM344.9 229.4l2.9 6.5 1.2-1.8-3.2-4.9z"/>
      <path d="M343.7 226.7c-.7.6-.8 1.7-.2 2.5.7.7 1.8.9 2.5.2.7-.6.8-1.7.2-2.5-.7-.7-1.8-.9-2.5-.3z"/>
    </g>
    <g fill="#aa8c30">
      <path d="M389.3 245.6s.4.2-.1 0c-.5-.1-1.8.5-1.8 1.4 0 .8.7 1.3 1.3 1.3.7 0-.2.1-.2.1l-.9-.2-.3-.5-.3-.7.2-.8.5-.6.7-.3h.4z"/>
      <path d="M388 249.3s-.4 0-.7.4l-1 1.4 1.3-3 .7.3zm100.2 8.4s.4.5-.1 0c-.5-.4-2.3-.3-2.7.7-.5 1 0 1.8.8 2.1.7.3-.4 0-.4 0l-.8-.6-.2-.8v-.9l.7-.7 1-.5h.8l.5.3.4.4z"/>
      <path d="M484.8 261.3s-.4-.3-1 .1l-1.9 1.1 3-2.8.7.7zm-140.5-35s.6-.2 0 .2c-.5.3-1 1.8-.3 2.5.8.7 1.7.6 2.2 0 .6-.6 0 .3 0 .3l-1 .5h-.7l-.8-.4-.4-.8-.2-1 .3-.7.4-.3z"/>
      <path d="M346.5 230.4s-.4.3-.2 1l.4 2-1.6-3.6.8-.3z"/>
    </g>
    <ellipse cx="351.5" cy="241.6" fill="url(#c)" rx="6.1" ry="4.1" transform="rotate(63 351.5 241.6)"/>
    <g fill="#e92736">
      <path d="M344.6 240.2s1.3.3 2 0c.7-.4.8-.9 1-1 .1-.2.3-.9.2-1.3a5 5 0 0 0-1.2-1.9l-1.4-.1c-.2-.2.1-.6-.3-.7-.3 0-2.2 2.1-1.9 2.5.3.3.5-.2.7 0v1.5c0 .3 1 1 1 1z"/>
      <path d="M346.5 236.2c.1.3.9 1.2 1.1 1.4a3 3 0 0 0 1.5 0c.2-.1 1.1-1 1.2-1.4 0-.3 0-.6-.2-1s0-1.4-.4-1.4l-.7-.4c-.1-.2.1-.5-.1-.9-.3-.4-3.3 1.4-3 1.8.1.3.5 0 .6.2 0 .2-.2 1.4 0 1.7z"/>
      <path d="M353.4 235.4c.1-.4 0-2-.2-2.2-.3-.4-.9-.4-.9-.6 0-.2.4-.3.4-.6 0-.4-3.4 0-3.2.5.3.3.8.1.8.4 0 .2-.6.5-.6.8l.3 1.4c.1.3 0 .6.3.7l.7.3 2-.1c0-.2.2-.1.4-.6zm28.7 17s.6.9 1.2 1c.6.3 1 0 1.2.1l.9-.5c.2-.3.5-1.7.4-2 0-.2-.7-.7-.7-1 0-.1.4-.2.2-.4-.1-.3-2.6-.3-2.6.2 0 .4.5.2.3.4 0 .3-.6.7-.8.9-.2.2-.1 1.2-.1 1.2z"/>
      <path d="M385.7 251.1a4 4 0 0 0-.2 1.5c0 .3.6.8.8 1 .2 0 1.3.1 1.6 0l.5-.8c.1-.3.8-.9.6-1.1l-.2-.6c0-.2.4-.3.5-.6.1-.4-2.8-1.3-2.9-1 0 .4.4.4.3.6 0 .2-1 .7-1 1z"/>
      <path d="M390.2 255c.3-.2 1.2-1 1.2-1.5 0-.3-.2-.7-.1-.8 0-.2.4 0 .6-.2.2-.2-2-2-2.2-1.7 0 .4.4.6.2.8h-.8a3 3 0 0 0-.7 1c0 .3-.4.4-.2.7l.2.6c.2.3 1 1.1 1.2 1.1.1 0 .2.2.6 0zm86.7 7.3s0 1 .5 1.5c.4.5.8.5 1 .6h1a4 4 0 0 0 1.2-1.4c0-.3-.3-1-.2-1.2 0-.2.4 0 .4-.3 0-.4-2-1.5-2.3-1.1-.1.3.3.4 0 .5-.1.2-.7.3-1 .4-.3 0-.6 1-.6 1z"/>
      <path d="M480.3 263c-.3.1-.9.8-1 1 0 .2.1.9.3 1 0 .2.9.8 1.2.7.3 0 .5 0 .8-.2.2-.2 1-.3 1-.6 0-.2 0-.4.2-.5.1-.2.4 0 .7-.3.2-.2-1.6-2.2-1.8-2-.3.3 0 .4 0 .6-.3 0-1.2 0-1.4.3z"/>
      <path d="M481 267.8c.3.2 1.5.2 1.8 0l.4-.7c.2 0 .3.3.5.3.3 0 0-2.5-.3-2.4-.3.2-.1.6-.3.6-.2 0-.4-.4-.6-.5-.3 0-1 0-1.2.2-.2.1-.4 0-.6.2l-.2.6a3 3 0 0 0 0 1.4c.1.1.1.2.5.3z"/>
    </g>
    <path fill="#f7e204" d="M346.7 237.4c.3.5 0 1.5-.3 1.8-.2.2-1.7-.2-1.8-.5l.1-1c.2-.2.7-.9 1-.8.5 0 1 .4 1 .5zm.4-1.8c-.1.3.1.8.3 1 .2.2 1.3.5 1.6.3.3-.2.7-1.9.5-2.1-.2-.3-.8-.3-1-.3-.2 0-1.2.8-1.4 1zm3.7-1.8c-.2.4-.1.9 0 1 0 .2.8.7 1.2.6.4 0 .6-1.2.6-1.4 0-.2 0-.3-.4-.4-.3-.1-1.4.2-1.4.2zM385 252c0 .4-1 .8-1.2.8-.3 0-1-1.2-.8-1.4.2-.2.4-.5.7-.5.3 0 1-.1 1.1.2.2.3.3.7.2.9zm1.4-.9c-.3.1-.4.6-.4.8 0 .3.4 1.1.7 1.2.3 0 1.6-.6 1.6-1l-.4-.7-1.5-.3zm3.2 1.3c-.3.1-.6.4-.6.6 0 .2.1 1 .4 1.2.2.2 1-.3 1.2-.5v-.5c0-.3-1-.8-1-.8zm90 10.8c-.3.3-1.1.2-1.4 0-.3 0-.3-1.4 0-1.4.1-.1.5-.3.7-.2.3.1.9.4.9.7l-.2.9zm1.2.1c-.3 0-.6.2-.7.4-.2.1-.2 1 0 1.2.2.2 1.6.2 1.7 0 .2-.2.1-.6 0-.7 0-.2-.7-.8-1-.9zm1.5 2.6c-.3-.1-.7 0-.8 0-.1 0-.5.6-.5 1 0 .2 1 .4 1 .4.3 0 .4 0 .5-.3l-.2-1.1z"/>
    <ellipse cx="476.7" cy="268.6" fill="url(#d)" rx="2.9" ry="5.9" transform="rotate(47.9 476.7 268.6)"/>
  </g>
  <g fill="#78732e" transform="translate(-.7 51.2) scale(1.16833)">
    <path fill="#a8ac71" d="M375.1 185.2s-5 .5-8.5-.2c-3.5-.6-2.7-9.5-2.8-9.7 0-.3-2.1-2.4-1.8-4.4.3-2 6.8-7.3 7.7-7.5.6-.2 1.8.3 1.8.3s1.7-1.6 2.2-1.6c.5 0 1.1 1 1 1.3-.2.4-2.5 1.7-2.6 2.7-.2 1 0 2-.6 3-.7 1-2 2.2-2 3-.2.9-.6 1.6 0 2 .7.2 2.8 0 4.6-.9 1.8-.8 2.5-1.9 2.8-1.8.2.1-1 2.3-3 3.1-2 .9-3.4 1.8-4.4 1.7 0 0-1 2.6 2.3 2.8 3.5.2 5.4-.8 5.4-.8zm-19.6 21s2.6 1 2.6 4c0 2.9-2.9 5.4-2.8 10.5 0 5.2.9 5.3 7.8 10.8.2.2 1.6 1.7 2 3.4.4 1.7 1.6 11.6 8.2 11.6s7.5-4.3 7.5-4.3l-2.8-4.1s-2.3.7-3.5.4a4.5 4.5 0 0 1-3-2.8c-.8-1.6-1-5.4-2.1-7-2.8-4.2-7.7-4.9-7.8-9.3 0-4.3 3-4.8 2.2-10-.9-5.2-7-7.7-7-7.7l-2.6-1-.8 5.2z"/>
    <path fill="#f1a720" d="M373.7 169.9c2.2-.5 1-6.3 1-6.3l-1.6 1.3s1 1.2 1 2.5c0 1.4-.4 2.5-.4 2.5z"/>
    <path fill="#a8ac71" d="M377.7 227.5l-1.1-1c-.8-.5-4.3-3.3-3.7-11.6.6-9.4 14.3-14.4 15.2-18.1 1-4.2 4-6-6.8-14.5l-2.6 3 4.5 3.3s1-.5 1 .8c.1 1.2-1.1 2.3-1.5 3.3-.2 1-7 5.6-7.5 6l-4 3.2s-1.7 1.7-3.4 5.4c-1.6 3.7-.8 8.4-.8 8.4s0 10 10.7 11.8z"/>
    <path d="M371 232.7l.8 3.6-2.2.8h-1l-.6.2-1.7 1.7-.4-.2s-.3.1-.3-1l-.3-1.9 2 .9h.8l.5-.1.9-2zm-6.3.7l-1-1.3c-.3-.5-.5-.5-1.2-1.2l1.5-.8h1.6l-.3 2zm3.6-5.7s1 .5 1.3 1.3l.8 1.6-2.5-.2-2-.6 1.3-1.7zm-1 15.7s-.5-.4-.8-1.2c-.3-.8-.5-2.1-.5-2.1l1.7-.3 2 .8h.5l-.5 1-2 1.7zm6.7-5.5s-1.4-.4-1.7-1.1c-.2-.8-.4-.6-.4-.6l-.5 2-.6 1.9.2.3 1.5-.4 1.2-1.2.3-.9zm-6.2 6.3l1.8 1c1 .7 1.6.7 1.6.7l.8-.9.8-1.6.1-.2-4 .4zm5.8-1.5l3.4-2 .3-2-.7-.4h-2l-.6 2.3zm-2.5 3.2s2.4 1 6.6-.4c1.9-.7 2.2-1.6 2.2-1.6l-1.6-.7-1.6 1.4-5.6 1.3zm-3.2-26.6l-.5-1.8c-.3-1-.2-1.4-.2-1.4l1.2.6 1.8 1.3-1.3 1zm2.9 4.9l-1.2-1.4-.8-1.5 1.3.3 1.5.7-.7 2z"/>
    <path fill="#c6c7a6" d="M363 169.2c-.2.8-.5 2.3.6 2.6.7.2 3.2 0 6-3.3 1.4-1.5 1.4-3 1.4-3l.5-1.8s-1-.8-2.9.3c-1.6 1-5.6 5.2-5.6 5.2z"/>
    <ellipse cx="370.8" cy="164.6" fill="#1c242f" rx=".5" ry=".5"/>
    <path fill="#a8ac71" d="M367.2 165.2c-1.3 1-2.4 2.1-2.4 2.1s2-.5 3.5-1.9c.8-.8 2.5-1 3.4-.9.5.1.3-.5 0-.6-.4-.4-1.8-.6-2.1-.4 0 0-1.2.7-2.4 1.7z"/>
    <path d="M373 218.3l-.2-1.4v-1.5l-1 1-1.2 1.5 1.7.6zm-6-3.4s-.1-1.5 0-3c0-1.4.7-4.1.7-4.1l.7 1.8 2 3.2.7.5-1.8 1.3-1.7.6zm6-.8l.2-1.4.7-1.7v.1l-1.9 1.5-.8.8 1.1.8h.7m-4.8-7.7s.3-1 1.2-2.2l1.8-2.3.8 3.1.4 2.7.1.6-.9.2c-.2 0-2.1-.1-2.4-.4l-1-1.7zm6.2 3.6l1-1 1.4-1.5-4.2.8.6 1.4zm-2.5-8.7s.3-.1 1.5-1.3c1.1-1 1.7-1 1.7-1l.5 4.6-2.3-.7z"/>
    <path d="M377.1 207.4l2.5-2.6-4.2-1.2.8 3zm1.8-6.8l.2-4.4s-.8.4-2 1.3c-1 1-1.5 1.2-1.5 1.2l.5.8 1.5 1zm3.7-4.3V193h-.1s-.6 1-1.3 1.6l-1 1 1 .7 1.4.1zm1.6 4.6l2-1.6c1.3-1 2-2.2 2-2.2l-5.5-.4.3 2.2zm-12.7-18l-.2 2.4h4.6l-1.1-1.6-1.4-.8-1.3-1.4zm8.8 21.3l2-1.6c.6-.7 1.6-1.3 1.6-1.3l-4.4-.5.1 2.9zm8.2-7.8s.5-1.7.4-3.4c0-1.7-.3-2.4-.3-2.4l-3.2 2.2.5 1.6 1.2 1.4z"/>
    <path d="M383 192.4s1-1.2 1-1.8v-.5h2.6l1.5.2.2.1-1.1 1.4-1.6 1-2 .1zm5.2-2.5l-1.6-2.7c-.6-1-1.1-1.4-1.1-1.4l-1.3 3.7v.4z"/>
    <path fill="#fff" d="M356.5 215.3l-.5 1s1.7-.9 3-.8c1.4 0 2.9 1.7 2.9 1.7l.3-1.2s-1.8-1.7-3-1.8c-1-.1-2.7 1-2.7 1zm.9-7.6l.4.5c.1.1.2-1.3 1.9-2s2.6-.1 2.6-.1-.3-1-1-1.3c-.8-.2-1.6 0-2.5.6a5 5 0 0 0-1.4 2.3zm5.8 5.7s-.8-1.7-2.2-2c-1.4-.4-3.2.7-3.2.7l-.3.9s2-1.1 3.4-.6c1.4.6 2 2.2 2 2.2zm-6.5-6.7c0 .3.4.7.4.7s-.2-1.9.6-2.8c.9-1 1.5-1.3 1.5-1.3l-.8-.4s-1 .7-1.5 1.6c-.3.8-.3 1.9-.2 2.2zm-.8-3c.4-1 1.6-1.4 1.6-1.4l-.4-.3c-.3-.2-.6 0-.6 0s-.7.4-1.2 1.4c-.4 1-.4 2.6-.4 2.6l.7.4s-.1-1.8.3-2.7zm10.3-25.1c1.1-.6 2-.5 2-.5s-1.7 1.7-1 3.8c-.8 1.8-1.1 3-1.1 3h.8l.7-2.4c.9 1.8 2.4 2.8 2.4 2.8h1.3s0-1.8.7-3.3l.1.2c1.5 1.5 2.7 1.8 2.7 1.8v-.4s-1.5-1-2.4-2v-.2c1-1.6 2.4-2.2 2.4-2.2l.9.8.2-.3-.7-.9h-.8s-1.4 1.2-2.3 2.3a12 12 0 0 1-1-2l-.6-.3s-1.4.2-2.7 2.2c-.2-1.5 1.6-3.1 1.6-3.1l-.1-.7-3.1.8a4.5 4.5 0 0 0-2.2 1.7v.9s1.2-1.4 2.2-2zm2 2.8c.7-1.2 2.5-2 2.5-2s0 1 1 2.2c-.7 1.2-1 3-1 3s-1.3-.9-2.5-2.6a2.1 2.1 0 0 1-.2-.4l.1-.2zm-10 27.7v1s1-1.1 2.7-1.2c1.5 0 2.9 1.2 2.9 1.2s0-1.3-.2-1.5a6 6 0 0 0-2.7-.8c-1.2 0-2.7 1.3-2.7 1.3zm28-14.7a13.3 13.3 0 0 1-.5-1.4l.7-.3a16.4 16.4 0 0 0 2.2-2.1l-.4-.8H386l-1.8-.1.7-2.2.7-1.8-.7-.8s.2.7-1.1.9c-1.3.1-3.6-1-3.6-1v.5s2 .6 3.2.8a2.3 2.3 0 0 0 1.6-.4l-.7 1.8-.4 1.2c0 .2.3.3.3.3l-.1 1.1 1.8.2 2.3.1s-1.2 1.4-2.3 1.9a3 3 0 0 1-.5.1l-1.3-2-.1.7 1 1.5-2-.2-.5.6v3.2a35.2 35.2 0 0 1-2.3-.7l-.5.3-.6.4s-.5 2-.4 4.2a6.4 6.4 0 0 1-3.1-1.7l-.5.4s-.4 2 .1 4.2c-1.8-.3-3.3-1.9-3.3-1.9l-.7.6s.4 3.7.8 5.7l.1.5a6.4 6.4 0 0 1-1 0c-1.8 0-3-1.7-3-1.7l-.4 1.3s.7 3.6 2.7 5.2l.4.3c-1.7 1.4-3.8 1.6-3.8 1.6l.2 1.2a58 58 0 0 0 2.8 2c-1 .8-2.2 1.2-2.2 1.2l.4.7 2.3-1.7c1 .4 2.4.6 2.4.6v-.6s-1 0-2-.4l.2-.1c.6-.6 1.7-2.4 1.7-2.4l.2-1.3s-.8 0-1.6-.7c2.5-1.7 2.5-2.4 2.5-2.4l.5-.9s-.8-.3-1.4-1.5c1.6-.3 3.8-.9 3.8-1l.3-.2s-1-1.5-1.3-3.4l3.8.8.6-.5s-.4-1.6-.6-3.2c2.3 0 4.2.3 4.2.3l.4-.5s-1.3-2.4-1.2-3.8v-.1a6.2 6.2 0 0 0 1.2.1h4l.3-.7s-1.8-1.2-2.2-2zm-13.7 20.3s-.6 1.3-1.8 2.7l-.3.3a6 6 0 0 1-.7-.3c-1.4-.8-1.8-1.8-1.8-1.8l3.2-2 1.4 1.1zm1.1-4.1s-.7.9-2.5 2.5a5.4 5.4 0 0 1-.5-.6c-1.2-1.5-2.6-2.8-2.5-5a3 3 0 0 0 2.9 1.4l1.3-.2a4.4 4.4 0 0 0 1.3 1.9zm2.7-3.3s-1.8.6-3.5.8a7 7 0 0 1-.2-.5c-.7-2.1-.7-5.3-.7-5.3s1.4 1 3.4 1.6a41 41 0 0 0 1 3.4zm-.6-3.9c-.3-2 0-3.8 0-3.8s1.1 1 3 1.4l.4 2.6s-1.5.1-3.4-.2zm7.6-3s-1.3.6-3.7.2a19.8 19.8 0 0 1 0-.7v-4c.4.2 1.7.7 3 1v.1c.1 2 .7 3.5.7 3.5zm-.2-4h-.1v-3.5s1.3.3 2.2.2c.2.6 0 .7.7 1.6.6 1 1.5 1.7 1.5 1.7s-3 .2-4.3 0zm-9.8 24.4l-.2-.7s-1.2.9-1.5 1.8a2.2 2.2 0 0 1-.4 0 181.8 181.8 0 0 1-2.7-1.1l.3.5 2.4 1h.2a72.1 72.1 0 0 1-.6 2l.3.3s.1-1.3.6-2.2l1.6.1s0 .5-.3 1l-.5 2 .6.4h2.7l-.4-.5s-.1-.1-1-.2c-.9 0-1.4.2-1.4.2l.4-1.7.4-1-.3-1s-1 .3-1.5.3a4 4 0 0 1 1.3-1.2zm-14.9-1.7c1.7 0 3 1.1 3 1.1v-.8s-1.3-1.7-2.8-1.7c-1.5 0-3.2 1.5-3.2 1.5v1.7s1.4-1.8 3-1.8zm17.5 25.5c-1.7.7-3.6.7-3.6.7s.5-.7 1-2c3.4-1 4-3.2 4-3.2l-.2-.8s-.8 2-3.5 3.2c.5-1.6 1-4.3 1-4.3l-.9-.2s-1.3 1.7-2.5 2c.8-1.6 1-3.4 1-3.4l-.5-.8s-.9.8-2.3 1.1a2.3 2.3 0 0 1-.7 0c.8-1 2.3-4.2 2.3-4.2l-.3-.6s-1.1 2.8-2.3 4.2l-.4.5c-1.2-.4-2.9-1.4-2.9-1.4l.2.5s1 .8 2.4 1.2c-.9 1-1.8 1.7-1.8 1.7v1.3l4 .6c-1.4 2-2.6 2.7-2.6 2.7l.6.8s1.8 0 5-.8c-1 1.7-1.7 2.5-1.7 2.5s3 .2 4.9-.8c2-1 2.5-2 2.5-2l-.5-.7s-.5 1.5-2.2 2.2zm-9-5.4l1.5-1.9h.1c2 .5 2.6-.1 2.6-.1s.4 1-.9 3c-1.4 0-3.3-1-3.3-1zm1.7 4l1.8-2a5.3 5.3 0 0 0 .4-.5c2 0 3-1.7 3-1.7s.3 1.6-.6 3.6c-2.5 1-4.6.6-4.6.6zm-2.4-12.9c1.9.2 4.3 1 4.3 1l-.3-1-3.7-.7c.6-1.4 2-2.1 2-2.1l-.6-.4s-.8.2-1.8 2a5.4 5.4 0 0 0-.3.4 5.5 5.5 0 0 0-.4 0c-1.7 0-3.1 1-3.1 1l.2.5s1.5-.7 3-.7l-1 3.2.4.9 1.3-4zm-4-8l-.3-1s-2-.8-3.6 0a8 8 0 0 0-2.6 2.5l.6 1.2s1-2 2.5-2.4c1.4-.5 3.5-.3 3.5-.3zm4 3l-1.3-.7s-2.2.7-3 1.5c-.7.7-1.4 2.7-1.2 3.3.3.5 1 1 1 1s.3-2.2 1.4-3.2c1-1 3-1.9 3-1.9zm-5-.6c.8-.8 2.4-1.2 2.4-1.2l-.8-.7s-2 .2-3 1.1c-1 1-2.3 2.8-2.3 2.8l1.1 1.1s1.6-2.2 2.5-3zm6.7-58.7c1-1.4 2-1.4 2.5-1.3H371.2c-.3.5-.8 2-1 3.1-.3 1.5-1 1.7-1.4 2.6-.5 1-1.5 2.4-1.5 3.7 0 1.3.3 2 .6 2.2.4.1 1-.6 1-.9 0-.4-.4 0-.7 0-.2 0-.2-.4-.3-1.2-.1-.8 1-3 1.3-3.6.4-.7 1.2-1.5 1.4-2.7.1-1 .9-3.3.9-3.3 0-.1-.6-.3-1.7-.3-.9-.1-2 .6-2.5 1.5-.6.8-2.2 1.4-2.2 1.4s1.8 0 2.8-1.2z"/>
    <path d="M374.3 179h-3.2l.9 2.4zm-3.8-.2l-.7-.6-.4-.3-1.2.7-.7 2.4.4.4zm-.5 6.5l-2.3-3.5-1.4 3 .6.2a39.8 39.8 0 0 0 3.1.3zm9.7 58.8c-.6.4-3.1 2-6.2 2a8.8 8.8 0 0 1-4.6-1.3c-.9-.5-1.5-1.4-2-2.3-.7-1.5-1-3.4-1.3-5.2-.3-1.8-.6-3.5-1.4-4.8-1-1.7-3.1-2.8-5-4.3a9.6 9.6 0 0 1-3.7-8c0-2.2.7-4.2 1.4-5.9.8-1.7 1.5-3.2 1.5-4.5v-.6c-.3-1-1.2-2-2-2.6l-1.6-1-1.2-.3-.1.3 1.2.4v-.2.2l1.8 1.2c.7.6 1.3 1.3 1.5 2v.6c0 1.2-.7 2.6-1.4 4.4a15.4 15.4 0 0 0-1.5 7.1 10 10 0 0 0 4 7.2c1.8 1.5 3.8 2.6 4.7 4.2 1 1.6 1.3 4 1.8 6.5a15 15 0 0 0 1 3.4c.5 1 1.1 2 2.1 2.6a9.2 9.2 0 0 0 4.8 1.3c3.6 0 6.5-2 6.5-2.1z"/>
    <path d="M377 237.6h-.1c-.2.1-.8.5-1.7.5-.6 0-1.4-.3-2.2-1-1-1-1.3-2-1.6-3-.2-1.2-.4-2.6-1.2-4.4-.8-1.9-2.8-3.4-4.6-4.8-1.9-1.5-3.5-3-3.9-4.5a4.3 4.3 0 0 1 0-.9c0-1.3.5-2.6 1.1-4.1a14 14 0 0 0 1.1-6.3c-.2-2.6-2.2-4.5-4.1-5.8a18.5 18.5 0 0 0-3.7-2l-.2.4.3.1c.7.3 2.4 1 4 2.3 1.7 1.3 3.1 3 3.3 5v1c0 2-.5 3.6-1 5.1-.6 1.5-1.2 3-1.2 4.3v1c.4 1.8 2.2 3.2 4 4.7 1.9 1.5 3.8 3 4.5 4.7.8 1.7 1 3 1.2 4.2.3 1.2.6 2.2 1.7 3.2.9 1 1.8 1.2 2.5 1.2a3.7 3.7 0 0 0 2-.6z"/>
    <path fill="#a8ac71" d="M389 227.6s2.3.5 2.2 2.4c-.1 1.8-1.1 4.4-1.1 4.4l-3.2-2.8 1.8-1.6.6-1z"/>
    <path fill="#f8c83c" stroke="#977c2e" stroke-width=".3" d="M349.6 205.2s-2.2.8-2.7-.2-.3-1.8-.3-2c0-.2-1.4-.3-1.2-1.6 0-1.3 1.7-1.2 2-1.2.4 0 .5-2 1.7-1.9 1.1.1 1.7 1.4 1.7 1.4z"/>
    <path fill="#f8c83c" stroke="#977c2e" stroke-width=".3" d="M352.1 205.8s-1.9 1-2.5 0c-.6-.9 0-2-.2-2.3-.2-.2-1.4-.6-1.2-1.7.3-1.1 1.4-.8 1.9-1 .4-.2.7-2 1.9-1.6 1.2.3 1.4 1.2 1.4 1.2s-1 4.5-1.3 5.4z"/>
    <path fill="#f8c83c" stroke="#977c2e" stroke-width=".3" d="M355.4 206.3s-.6 1.2-2 1c-1.3-.3-.9-2.3-1.1-2.7-.2-.3-1.2-.6-1-1.8.1-1.3 1.4-1.1 1.8-1.3.5-.2 1-2.1 2-1.8.8.3 1.7 1.4 1.5 2 0 0-2 .5-2.2 1.8-.2 1.3 1 2.8 1 2.8z"/>
    <path fill="#af7029" d="M385.5 227.1s-1.7-1.8-2.9-3.5c-1.2-1.6-3-3.5-3-3.5l-3-1.5-1.8-3-.2-3.7.8-2 1-1.7s-6 2.2-3 13.8c1.4 5 4.8 5.6 4.8 5.6l5.5-.3z"/>
    <path fill="#816c2a" d="M382.7 188.4c.6 0 .9.2 1 .4l.3.9v.5h.1-.2c-2 4.4-6.2 6.5-10 9.3-2 1.4-3.7 3-5 5a15.7 15.7 0 0 0-2.2 9c.2 6.7 2.7 10.3 5.5 12.2 2.7 2 5.7 2 6.9 2h.4l2-.1a47 47 0 0 1 6.1 0c.7 0 1.1.2 1.3.4.2.2.2.5.2.7 0 .5-.3 1-.8 1.5a5 5 0 0 1-1.1 1l.1.3c.3-.1.8-.5 1.3-1s1-1.1 1-1.8a1.5 1.5 0 0 0-.4-1c-.3-.3-.8-.5-1.5-.6l-2.4-.1c-2.7 0-5.8.4-5.8.4v.2-.2h-.1a8.3 8.3 0 0 1-.3 0c-1.1 0-4-.2-6.7-2s-5.1-5.3-5.3-11.8v-.6c0-3.6.8-6.2 2-8.2 2-3.1 5-5 7.9-7 2.9-2 5.7-4 7.3-7.4v-.7c0-.3 0-.7-.2-1.1-.3-.4-.7-.6-1.4-.6v.4z"/>
    <path fill="#fff" d="M390.9 229s-1.5 2.7-1.8 2.7c-.4 0 1.2.4 1.6 1l-.4.7s-1.5-1.2-2.5-1.2l-.1-1s.8-.2 1.5-.9c.5-.5 1-1.9 1-2.2z"/>
    <path fill="#fcca3d" d="M396.5 230.8l-3.6 1-1.8-1.2s.1-1.5-.7-2.1c-.8-.7-1.3-.9-2-1.2a16 16 0 0 0-3.3-.3l-6.5-7 2.4.2 3.9-.4 3.5-.4 1.9.3 2 .6 1 1 1.1.9 1.1 1.8.7 2 .3 2.2z"/>
    <path fill="#af7029" d="M396.6 230.5s-1.3.4-2.9.4c-1.6 0-2.6-.3-2.6-.3s0 .1-.3 1.2a15 15 0 0 1-.6 1.7v4.2l3.4.7 1.8-.7 1-4.6z"/>
    <path fill="#fcca3d" d="M395.7 228.8l.1 1.6.7.2V229zm-3.2-39.3l-.4-2.9-1.2-1.9-1.4-2-1.5-1.6-.8-.8-.4-.5-3.7.1-2 2.4s5.1 3.6 7 7.5c1.7.5 3 1.5 3.7 2.3l.2-.4z"/>
    <path fill="#af7029" d="M388.8 192.6c0 3-.5 4.3-1 5l2.4-2.6 1.6-3c-.7-.7-2-1.7-3.7-2.2.5 1 .8 1.9.7 2.8z"/>
    <path fill="#816c2a" d="M394.1 235.9l-1.8-2.1c-.8-.8-1.7-1.2-1.8-1.2l-.1.4h.1l1.5 1a21.8 21.8 0 0 1 1.8 2.1z"/>
    <path fill="#6f5b24" d="M396.3 232.7s-.3 1.3-1.6 2.4c-1.3 1.2-3 2-3 2l3.8 1.3 2.4-2.2z"/>
    <path fill="#404118" d="M396.9 235.8l-.3.4-.7.7-.5.5 1-3.8.6 1.2v.6z"/>
    <path fill="none" stroke="#78732e" stroke-width=".3" d="M375.1 185.2s-5 .5-8.5-.2c-3.5-.6-2.7-9.5-2.8-9.7 0-.3-2.1-2.4-1.8-4.4.3-2 6.8-7.3 7.7-7.5.6-.2 1.8.3 1.8.3s1.7-1.6 2.2-1.6c.5 0 1.1 1 1 1.3-.2.4-2.5 1.7-2.6 2.7-.2 1 0 2-.6 3-.7 1-2 2.2-2 3-.2.9-.6 1.6 0 2 .7.2 2.8 0 4.6-.9 1.8-.8 2.5-1.9 2.8-1.8.2.1-1 2.3-3 3.1-2 .9-3.4 1.8-4.4 1.7 0 0-1 2.6 2.3 2.8 3.5.2 5.4-.8 5.4-.8z"/>
  </g>
  <g fill="#d2a567">
    <path fill="#ab6d29" stroke="#4d2a15" stroke-width=".5" d="M488 223.6s-10.8-2-10.6 7c0 2.7.6 3.7 3 4.3 2.2.7 6.8 1 10.6 4.4 3.9 3.4 4.2 6 4.2 8 0 2.1-1 4-1 4l2.4 11.9 2.5 8.7 7.3-4.2 4.2-13-5.4-23.3z"/>
    <path fill="#4d2a15" d="M498.6 268.6s3.8-1.4 4.7-4.4c.3-.9-3.8-4.5-3.9-4.5 0 0 2.1 1 3.1 2 1 .8 1.8 1.2 2 1 .4 0 2-4 1.4-5-.6-.8-1.7-2.9-3.2-4-1.6-1-3.6-.8-3.6-.8s2.8-1 4.2-.1c1.5.8 1.6 1.7 1.8 1.4.1-.3-.3-4.4-1-5.7-.6-1.3-1.3-2-3-2.3-1.7-.4-3.6-.2-3.6-.2s2.5-1.4 4.4-1c1.9.5 1.8 1.5 2 1.3.2-.2-1-3.7-1.4-4.6-.4-.8-2.7-2.6-3.3-2.8-.6-.2-2.7-.3-2.7-.3h-1s1.4-1 3.3-.8c1.8.2 1.9.8 2.1.7.3 0-.2-.3-1.3-1.1-1-.8-6.5-3-6.5-3l-4.9-.1s0-1.3 1.4-1.5c1.4-.3 1.9.2 1.8-.2-.1-.4-4.2-1.3-4.2-1.3l-3.3.1c-1 0-4.6.5-4.6.5s.3-.8 1-1.4c.5-.5 1.4-.8 2-1 1.7-.4-.8-1.7-.8-1.7l1.3-2 6 .5 12.6 7.4 5.9 5 3.7 9.6-1.1 16.5-8.4 7s-3.7.5-3.7.3l.8-3.5z"/>
    <path d="M487.6 227.8s-.4-1.2-.4-2.6.3-1.4.3-1.4-4-.6-7 1.7-1.2 6.4-1.2 6.4 1.2-1.3 2.9-1.9c1.6-.6 4.6-.5 4.6-.5.2-.2-.7-1.4-1.8-1.7-1-.2-3.2-.2-3.2-.2s1.2-.9 3.4-.7c2.1.2 2.4.9 2.4.9z"/>
    <path fill="#8f4620" d="M500.2 270l-2.7 1 1.7 11.4L510 301l5.7-1 1.9-3.4 1.5.7c.7.6 2.8 4.3 4.6 5 1.8.8 2.7.5 4.3 1.8 1.6 1.3 7.4 10 7.7 10.3.3.3-.3-3.8-.3-3.8l-1.8-5.1-2.2-3.7-.3-1h3l1.9 1.2 2.8 2.4 1.5 1.8.8 1.8.3 1.6.8 2.5 1.6 3.4 2 3.3.5-1.3-1-3.9-2.8-9.3-1.8-3.1s2.3 1.7 3 2c.6.1 2.7 3.3 2.7 3.3l1.4 3.3 1 3 .6 2.8 1 2.8 1.7-1-.3-2-1.4-6.4-.7-7s.8 0 1.8 1.2c1 1 2 3.5 2 3.5l.7 6.3 1 5.7 1.8 5.9 2 3.7 1.2 2v-3l-2.3-24.5.3-1s.3-.2 1.1 1c.8 1.1 1.6 3 1.6 3l.7 3.8.4 2.6.5 5 .7 5.4 2.4 5.8 1.4 3.1.7-3.7-1.1-26.2.5-.8s1.4 1.2 1.9 2c.4.8 1.3 1.6 1.3 1.6l.8 5.7.7 16.6.6 4.2 4.9-43.3 3-.6.3-.8-2.2-1.7-4.9-7.7-3.3-7.3-5.8-10.8-10.1-12.3-8-6.6c-1.5-1.2-2.8-2-2.8-2l.5-1.5 1.7-2.7h-1.6l-3.4.5-3.4-1-6.7-4.7-7.2-3.4-4.2-1.5-10.1-2.6-10.1-1.4h-4.6l-4 .8s-2.2.8-2.8 2.1c-.7 1.3-.8 2.2-.5 4.1.1 2 1.3 2.9 4.1 4 2.9 1.2 9.5 5.7 9.5 5.7l3.2 3.2 1.2 1.5.2 1.2 2.2 17-4.3 9.3-3 1.6z"/>
    <path fill="#ab6d29" d="M511.2 296.6s1.8 3 4.4.7c2.6-2.4-1.2-9.2-1.1-9.6 0-.4 1.2-.6 1.2-.6l1.9 3.5s1 2 .7 5c-.5 3-3.4 5.5-3.4 5.5l-3.2-.7z"/>
    <path fill="#4d2a15" d="M574.7 336.5l-2.3-7s-.7-4.4-.7-5.3L571 310c-.2-2 0-4.5-.3-4.8a962.6 962.6 0 0 0-2.5-3.4l-1-1 .7-.5s.8 1 1 .4c.3-.5 0-3-1-6.8-.9-3.8-5.8-12.8-5.8-12.8l.5.4 1.4 1.4 2.9 2.3 6.2 2.3 3.4.6 2.2 4.4s1.6 7.5 1.5 11.3c-.1 3.8-.4 6.9-1.8 10.7-1.5 3.8-1.9 15.9-2 17.8-.3 1.9-1 3.8-1 3.8z"/>
    <path fill="#8f4620" d="M574.7 316.5s1.3-1.6 2-3.7c.5-2.1.7-19-1.3-21s-6-3.7-6.2-3.6c-.2.2 1.6 5.5 1.6 5.5s.6.8 1.2 2.2c.4.7.8 2.1 1 2.6.1 1.5 1.3 4.9 1.5 9.3l.2 8.7z"/>
    <path fill="#4d2a15" d="M565.6 327s.8-8 .4-13.7c-.4-5.9-.9-6.6-1.4-7.6a49.5 49.5 0 0 1-4-9.7c-1.3-4.9-2.1-8.6-3-9.6-.9-1-2.6-3-3-2.5-.4.6-.4 1.8-.4 1.8l-2.4-.6-.6-1.6.8-2.4-.2-1-.3-1.8 3.1 2.4 6.4 4.4 3.2 13 3 8.3.3 13.8-.3 12.2zm3.7-37.9s1.7 1.6 2.6 2.1c1 .6 2.8 1.7 2.5 1.8-.4.1-2.1-.5-3.2-1.1a9 9 0 0 1-1.8-1.4z"/>
    <path fill="#4d2a15" d="M557 323.9s1.2-2.8 1-6.3c-.2-3.6-1.9-12-2.4-13.2-.5-1-3-2.6-5.3-7.4-2.3-4.8-2-5.8-3.5-7.5a140 140 0 0 1-3-3.8l.4-5 5.5 2.7 2.3 1.2 2.8 13.4 2.5 3.7 1 5.4 1.4 12.5.7 9.9-.4.9zm-6.4-5.7s.1-4-.9-7.4c-1-3.6-1.7-6.2-2.8-7.3-1-1.1-3.8-4-6.3-7.7-2.5-3.8-6-7.7-6-7.7l.1-5s1.7 1.5 3.1 2.2l3.5 1.9 1.5 5.7 1.9 4.2 2.8 3.7 1.8 1.6 1 6.2.7 3.5 1.5 5-.5 2.4-1.4-1.3zm-4.6 0l-1.5-1.4s.8-1 .4-3-1-3.8-1.8-5.7c-.9-1.8-1.2-3-1.7-3.5-.6-.6-5.2-5-6.8-6.3-1.7-1.4-4.1-4-5.7-4.9-1.5-1-2.7-1.2-2.7-1.2l-.8-6.2s2 2.7 3.2 3.2l3.3 1 4.3 7.7 1.4 2 4 3.2 1.7 3.3 1.2 3.8 1.5 5.2.3 3.2zm-8.5-1.6s-2.6-3-3-4.9c-.3-1.8.3-1.8-.5-4-.8-2.1-3.4-5.3-5.6-7-2.2-1.8-5.3-4.4-5.1-5.8.2-1.4.6-1.5.6-1.5l1.3 1.2 6.8 7.2 2.1 3.9 1.6 4.7 1 2.2 1 2.8zm24.7-35.7s4.7 5.8 5.9.4c.5-2.3-1.7-6.9-1.7-6.9s-4.4-7.7-5.8-9.5l-8.8-11.2-5.4-2.5 1.9 3.1s4 4 9 12.8 4 13.6 4 13.6l.9.2zm-27.4-35.2s9.4 8 15.4 16.6c6 8.6 8.4 14.4 7 15.5-1.3 1.2-5-.6-6.6-3-1.6-2.5-2.9-6.7-8.5-13.2-5.7-6.4-8.4-7.4-8.4-7.4l-4.1-6.6zm-4.9 19.1s5.6 4.6 9 8.3c3.5 3.8 5.3 6.4 5.3 6.4l2.3 2.3s-1.4-2.4-.6-3.2c.7-.8 1.6-.4 1.6-.4l-17.6-18.5zm-1.1.5s1.8 3.4 4.7 6.3a742 742 0 0 0 6.2 6l1.2 4.5s-8-6.2-8-4.7 2 4.7 2 4.7l-2.5-1.3-3.4-5-2-4.2-2.3-5.8 4-.5z"/>
    <path fill="#4d2a15" d="M504.6 284.3s4.1 3.7 6.4.1c2.3-3.6.5-7.8.5-7.8s6 8.7 7.6.5c.3-1.4-3.6-7-3.6-7l1.4-1.4 3 5s2.8-1.2 2.8-4.7-3-8-3-8l2.8 3s5.5.2 5.6-3.1c0-3.4-4.6-6.8-4.6-6.8s3.7.2 3.7-2c0-2.1-5-3.6-5.2-5 0-1.4 1.5-3.7 3.8-2.4 2.3 1.2 5.5 2.2 6.8-.2 1.3-2.5-.1-3-.1-3l-3.3-.7-5.2-2.8-4.1-1.6-4.3-.5 1.6 3.2 1 8.7.1 4 .8 8.8-2 7.3-1.1 1.4-.8 1-1.8 3.8-2.6 2.8-3.3 4.2-3 3.2z"/>
    <path fill="#ab6d29" d="M534.2 300.7s-1-2.6-3.3-4.4a11.7 11.7 0 0 0-5.9-1.9l6.2 6.5zm8.6 1.5s-2-4-4.3-6.4c-2.4-2.4-3.9-5.6-4.5-5.6-.6 0-1.1.2-1.1.2l.6 5 4.2 4s4 3 5 2.8zm7-.3s-1-4.6-3.3-9a19.2 19.2 0 0 0-4.9-6.3l.6 4.7 2 4.6 3 4.5zm5.8-2.6s1.7-9.5.2-12.1c-1.5-2.7-4.3-3.2-4.3-3.2l-1 1.4 1 6.8 2.2 5.2zm5.7-15.8s1.4.7 3 3.9c1.8 3.2 4.2 12.6 4.1 13.1 0 .5-.9.4-1.1.3-.2-.1-6-9-6-9l-.9-8.5z"/>
    <path d="M521.2 294.5s3-.7 3-1.7-3.6-3.2-3.3-5c.2-.8 3.1.2 3.3-.4.2-.6-3-5.6-2-6.8 1-1.1 3.7 5.5 3.7 5.5s1.6 3 1 4.9c-1.8 5.5-5.7 3.5-5.7 3.5zm7.1-6.9c.2-.4 4.8.6 4.9.3.1-1-4.2-4.4-4.2-4.4s-1-2-.7-2.2c.3-.3 3 .3 3.2-.1.2-.4-3.2-4.8-3.2-5.6 0-.8 1-.1 1-.1s2.6 2.7 4 5c1.4 2.1 2.7 4 2.2 7.5-.5 3.8-7.6.8-7.2-.4zm21-7s-.8-3-.4-3.5c.5-.4 1.7-.7 1.7-.7s-2.5-1.6-3.6-1.6c-1.2 0-1.4-.4-1.7.1-.3.5 2.1 3.6 2.1 3.6z"/>
    <path d="M535.2 283s7 1.9 7.4 1.3c.3-.5-5.7-6-5.7-6s-.4-1-.3-1.4c0-.3 2.6-.4 3.3.2.8.6 0 1.8.3 2.2.2.5 2.5 4 2.9 3.4.4-.6-.5-4.8-.3-5 .2-.4 2.8 2.3 3.4 2.8.7.4 4.7 3.5 5.1 2 .4-1.4.7-1.6.5-2.5-.1-.9 1.4 4-.5 4.6-1.9.7-4-.6-4-.6l-1.6-1.3-1-1s1 3.8-.2 4.2c-1.2.4-2.7.2-2.7.2l-3-.3-3.6-2.7zm16.3-4.8s7.6 4.6 8.3 3.8c.8-.8-2-11.5-1.5-12.6.4-1 6.2 12.1 3.3 13.9-2.1 1.3-3.2.4-3.2.4l-3.7-2-3.2-3.5zm21.1 19.2s.7.5 1.7.8c.3 0 1.2.4 1 .4l-2.2.3-.5-1.5zm-7.3-25l1.1.5c.5 0 1 .4 1 .4 0 .1-.5.3-1 .3a2.4 2.4 0 0 1-.5-.2l-.6-1zm-2.2-3.8s.8.3 1.8-.4 1-1.2 1-1.5c-.1-.4-1.7-.4-2.2-.8-.6-.3-.5-1-.5-1h-1.7l-.7.3zm6.7 22s2.3 1.4 3 1.5c.6.1 1.7.7 1.5 1 0 .1-1.8.3-2.7-.2-.9-.5-1.1-.2-1.1-.2l-.7-2zM557.3 256c.1 0 .6.2 1 .1.4 0 .7-.3 1-.1.2.3 0 2-.7 2.4-.6.5-1.4.8-1.5.8l-2.4-3.4zm-11-9.7l2.4-.1c.7 0 1.6.5 2.3 1 .7.4 1.4 5 1 5.9-.4.8-5.5-3-5.6-3.4L544 246zm-4.7-2.1s3.7.2 3.4-2.1a5 5 0 0 0-2-3.4l-4.5 3.1 3 2.4zm-10-4.4s1 .6 2 .1c1.2-.4 4.1-4.2 6.3-4.7 2.1-.4 2.5-.4 3 .1.3.5.1 2.7-.4 3.3-.4.6-6.6 3.2-6.6 3.2l-2.3-.3a14.7 14.7 0 0 1-2-.7v-1zm-1.2-6.8c-1-2.2-2.6-3.1-3.2-3-.6.2 2.1 2.4 2.5 5.4.4 3 .4 5 .3 5.2 0 .2 1.3.2 1.3.2l.3-1.1.1-.9v-.7l-.2-1.6-.3-1.2-.3-1-.5-1.3zm-8.8-3.2c-2.8-3.3-8-5.7-8.4-5.7-.3 0 6 3.9 7.5 6.3 1.4 2.5 1.5 5.9 2.1 6.3.7.5 1.3-.2 1.3-.3 0 0 .6-.8.5-1l-.4-1.5-1-1.7-.6-1zm-8.4-3.4a25.8 25.8 0 0 0-15.5-4.8c-5.3 0-8 .4-7.2 3.3.7 2.9 3.1 4.2 7.6 4.2s5.5-.5 8 .2c2.4.8 4.6 2.2 5.5 3 .8 1-1.7-2.2-4-3.9-2.3-1.7-3.8-2.6-3.8-2.6s-.4-1 2.7-.5c3 .4 7.2 2.4 8.3 5 1.1 2.6 1 4 1 4.5-.1.6 1-.3 1-.3l.4-1.2s.2-1-.4-2.2c-.6-1.1-.7-1.5-2-3.1-1.5-1.7-1.6-1.6-1.6-1.6zM498.4 270c2.3 0 7.3-4.4 8-10.4.8-6-3-18.2-3.8-19.5-.8-1.2 1.4-.6 2.6.7 1.3 1.3 3.8 10 3.8 16.3 0 6.3-1.3 8.2-4.6 11.4-3.4 3.2-6.2 2.9-6.2 2.9l.2-1.4zm7.9 17.8s1.1 1.4 2.4.9c2.3-.9 5.9-2.6 5.9-6 0-2-2.8-4-3-4.8v-1.5l2.5.6.7 3.4s1 1 2 .6 3.8-2.5 3.4-4.5c-.4-2-3.1-4.5-3.4-5.5-.2-1 0-1.9 0-1.9l2.4.4.7 3s.6 1 2 .7c1.3-.3 3.6-2.7 3-3.8-.4-1.2-2.2-3.9-2.3-4.1V264l.9.5s.9.4 2.7-.2c1.8-.5 3.5-1.7 3.5-3 0-1.2-1.4-2.4-1.5-3v-1l1.2.2 1.4 1.8.4 2.1-.6 1.8-2.2 2.4-2.1 1-.6-.1 1.3 2.3-.4 3-2 1.8-2.5 1.5-.2 2.9-1.4 3-3.3 2h-1l-.3 1.9-2.1 3-3.6 2.3-2.6.5-1.4-2.2z"/>
    <path d="M526 255.5s5.9 1.7 5.7-2c-.1-2.2-5.9-7-6.2-7.9-.4-.8-.3-2-.3-2l3 2.8s3.8 1 4.9-1.3c1-2.2.2-3.5 0-3.6l.8-.2 1.8.4-.2 3.3-2 8.5s.6 3.4-2 3.6c-2.7.2-5.6-1.6-5.6-1.6zm5.6 45.2s0-1.7-1.3-3c-1.3-1.1-3.9-2.3-4.3-2.5-.4-.3 4.3 5.3 4.3 5.3zm8.6.3s-3-3.7-3.6-5c-.7-1.3-2.2-4-3.5-4.2-1.2 0 1.2 4.6 1.2 4.6l4.8 4.5zm8.2-.1l-3.2-6.3c-.6-1.4-2-5.3-3.5-6.3s.2 1.7.2 1.7l1.6 5 2.9 4.4zm6-3.5s-.2-4.2-.7-7c-.5-3-2.7-5.3-2.9-5.2l.2 5zm12.4 3l-2.9-7.2c-.8-2.4-3-6.3-3.2-6.4-.2 0 .7 4.5.7 4.5l2.5 7.3zm10.8-13s-1.9-2-6-3.5c-4.1-1.6-8.3-1.8-8.3-1.8l.5.5 1.9 1.6 4.3 2.2 5.7 1.4z"/>
    <path fill="#202020" d="M533.3 289.9s0 3.6 1.9 5.8c1.8 2.2 6.2 6.2 7 7 1 .8 1.7 5.2 3 9 1.3 3.6 1.6 6.7 2.1 7.7.6 1 1.7 2.7.9 2.6-.9-.2-1.7-1.2-2.2-2.6-.5-1.3-.4-1.3-.3-3.1 0-2-2.8-11.4-4.2-12.4a60 60 0 0 1-9.7-9.7c-2.4-3.5-1.9-4.3-1.9-4.3h3.4z"/>
    <path fill="#202020" d="M543.1 313.6c-1.3-2.6-1.5-5-1.9-6.6-.4-1.6-5.5-5.9-6.8-6.4-.9-.5-2.8 0-3.6-.5-.8-.6-5.6-6.1-5.6-6.1s-.8.7-.5.9l7 7.4c1.9 1.7 2.9 5.6 4.2 8.7 1.3 3 .8 2.4 1 3.9 0 1.5 1 2.3 2 2.3.8 0 1-.4.7-.7-.3-.3-2.2-2.5-3.3-5.4-1-2.6-2.3-7.4-3.9-9.2 0-.2-.2-.3-.3-.4l2-.3c1.2 0 6.2 4.6 6.7 6 .4 1.4 0 2 2 6.6a26 26 0 0 0 3.2 5.6h.4s-2-3.1-3.3-5.8zm-8-30.5s3.7 2.3 4.8 2.6l2 .4s.5 6.7 3.2 10.5c2.6 3.8 4.8 5.2 4.8 5.2s.1 7.3 2.1 12.3c2 5 2.4 11.2 2 12.1-.5 1-2.2-3-3.3-6.4-1-3.5-2.1-7.3-2.9-9.6-.7-2.3-2.7-5.8-3.9-6.8-1.1-1-.2-.8.5-.2.6.6 2.6 3 3.8 6.8 1.3 4 1.8 7.8 2.4 7.8.7 0 1.2-.6 1.2-1.4 0-.7-.9-2.8-1.5-6.4-.6-3.6-1.2-6-1.8-7-.6-1-1.5-1.3-3.8-5.3s-3.4-6.3-3.8-8.2c-.4-1.8.1-1.6-.3-2-.4-.2-.7.1-2.4-.9-1.8-1-3-3.5-3-3.5z"/>
    <path fill="#202020" d="M544.7 281.7s2.3 1.8 3.5 2.3c1.3.5 3.1.6 3.1.6s-.5 6.4 2 10.5c2.5 4.2 5.1 6.6 5.1 6.6s.4 1.6 1.2 10.4l1 12.7c.3 3.5.4 16.2-.1 15.8-2-1.5-.3-8.4-1.3-11.2-1-2.8-2.5-3.3-4.3-11.3-2-8-.7-9.8-2-12.8-1.4-3-3.1-3.3-3.1-3.3s2.4.5 3.5 3c1 2.5 1.1 9.2 2 12.6 1.9 7.5 4.5 11.3 4.5 11.3s-.6-9.5-1.3-14.8c-.8-5.4-.7-9.8-1.7-11.9-1-2-3.2-3.7-4.5-6.4-1.3-2.7-1.7-8-2.4-9.5-.6-1.4-1-1-1.8-1.3-3-1.2-3.4-3.3-3.4-3.3z"/>
    <path fill="#202020" d="M551.5 278.2s2 2.2 4.8 3.9c2.8 1.6 4.2 1.1 4.6 1.5.4.3-.6 6 2.3 11.2 3 5.2 4 5.3 4 6 .2.7.7 16 1 21.3.4 5.2.8 22.7-1.3 22.7s-.2-12.9-1.3-16c-1-3-1-2-2-4.5-1-2.4-1-12-2.7-17.7-1.2-4.2-2.5-4.9-2.5-4.9s2 1.1 3 4.6c1 3.5 1.3 15.3 2.4 17.2 1.1 1.8 2.8 4.2 3.1 6 .4 1.7-.2-22.4-.7-23.8-.5-1.5-5.3-10.2-5.7-15-.4-4.8-.5-5.3-1-5.7-.4-.4-1.8 0-4-2.2-2.4-2.2-4-4.6-4-4.6z"/>
    <path fill="#202020" d="M562.4 281c.2-.5 1.6 2.6 5.9 4.3 4.3 1.7 8.5 1.4 9 1.9.6.4 3.3 7 3.4 15.6 0 8.7-1.5 7.9-2.8 15.4-1.4 7.4-1.4 22.6-2.3 25-.4.8-.8 1.2-1.3 2.6-.4 1.5.4 4.3-1 4.3-1.3 0-1.5-2-1.5-3.3 0-1.1 1.4-5.3 1.4-9.4 0-4.1-.9-4.6-1.5-9.6s-.6-20.7-1.2-22.2c-.5-1.5-3.2-4.8-3.2-4.8s2.9 1.9 3.6 4c.7 2.1.7 19.6 1.5 23.1.8 3.6.6-.8.9-2.8.3-2 1.3-10.6 1.2-15.2-.2-4.6-2.1-14.6-3.7-16.2 0 0 .8 1 1.7 3.1 0 0 .6.7 1.3 1 .6.4 1.4.6 1.5.7 0 0-1 0-1.6-.4l-1-.6c1 2.6 2 6.6 2.2 12.4 0 7.8-1.2 25 0 25.2 1.3.2 1-9.4 2.4-17.1 1.2-7.8 3-9 2.4-15.3-.5-6.3-2.2-13.2-3.5-14-1.4-1-5.2-.6-8.6-2.8-3.4-2.2-5.3-4.4-5.2-5zm-54.8 8.8s1.2.5 2.7-.2c1.4-.7 5.2-3.7 5.2-5l.1-2.5s0 .5 1.1.7c1.1.1 4.3-2.2 4.5-3.7a12 12 0 0 0 0-4.8c-.4-.5.9.6 1.5 0 .7-.7 3.7-2.6 3.6-4.6 0-2-1.6-4-1.6-4s1.4.3 2.3 0c1-.1 4-1.9 3.8-3.7 0-1.8-1.1-4.6-3.5-4.8 0 0 1.8.4 3.5-.2 1.7-.6 2.3-1.6 2.3-3.5 0-2-3.5-6-4-6.4-.7-.4 3.6 1.2 4.7-.5s1.3-3 1-3.9c-.3-1-1.2-1.2-1.2-1.2s1.8.5 4.3-.8c2.5-1.2 4.7-2.9 5.8-2.8 1.2 0-3.6 2.5-3.9 4 0 .5 1.3 1.5 3.5 3.1l.4.3c1 .5 4.7.7 5 .9.3.2-3.6.1-3.3.4 2.6 2 5.8 4.7 8.7 8.2.2.2.8.7 1.5 1 .9.2 1.9 0 2 .2 0 .2-2.5 0-2.4.1a100 100 0 0 1 5 7.2c0 .2.7.9 1.4 1.2.7.3 1.6.2 1.7.4.2.3-2.1 0-2 .3a125.6 125.6 0 0 1 5.1 9.2s-4.7-8.2-10.4-14.6-7-7.3-7.4-6.7c-.3.6 4.3 6.3 6.8 10.2 2.4 4 4.6 9 4.6 9s-5.7-12-13.8-19.2c-8-7.4-9-8.6-9.8-8.3-.9.3-1.6 5.7-1 6.8.5 1.1 6.4 5.6 11.4 11.5 5 6 11.4 16 11.4 16s-4.5-7.3-12.2-15.4c-7.7-8.1-10.6-10-11.2-10-.6.1-.6 1.6-1.5 2.8-1 1.2-2.8 1-2.8 1.6a47 47 0 0 0 7.7 7.3c1.3.7 2 .3 3 .9 1 .5 2.1 1.5 2.1 1.5l-2.4-.9c-1-.3-2-.3-2 0a49 49 0 0 0 6.2 7.2c1 .4 1.4.2 2.6.6 1.2.5 2.9 1.7 2.9 1.7s-1.9-1-3.2-1.3c-1.2-.3-1.8 0-1.7.3 0 .4 4 5.5 3.8 5.6-.2 0-6.2-7-11.3-11.6-5-4.5-7.3-5.4-7.6-5.3-.2.2 0 1.5-1.3 2-1.3.4-2.4.5-2.4 1 0 .4 4.6 4.7 7.8 8.3a229 229 0 0 1 6 7l-6.8-6.7c-3.6-3.4-5.5-4.7-5.8-4.5-.4.2-.4 2 0 2.4.3.5 7 8.3 6.7 8.5-.2.2-7.8-9.4-8.3-9.4-.5 0-.8 1.2-1.3 1.8-.5.5-2.6.5-2.6 1.3 0 .7 10.7 11.3 10.4 11.5 0 0-8.9-7.6-9.2-7.2-.3.5 3.7 7.8 3.5 8-.3.1-5.2-7.7-5.7-7.7-.4 0-.4 1-1.7 2-1.3 1.2-3 .7-3 1.2 0 .6 7.5 8.8 7.3 9-.2.1-7.6-7.9-7.8-7.4 0 0-.5.4-.3 1.1.6 2 2.3 5.5 2 5.8 0 0-2.4-5-3-4.7-.6.2-.6 1.1-1.7 1.9-1.1.7-2 .5-2.1 1-.1.5 1.3 1.4 1.9 2.5.6 1.2 1 3.7 1 3.7s-.7-2.1-1.7-3.5c-1-1.3-2-2.2-2.8-2.2-.8 0-1.4.7-1.4.7l-.7-1.7z"/>
    <path fill="#202020" d="M577.3 287.2s2.5-.2 2.8-.7c.3-.5-1-.1-3.1-2.5-2.2-2.4-7.8-18.6-14-26.7-10-13.3-19.3-19.5-19.3-19.5s11.2 6.5 19.8 19c8.7 12.9 10.9 23 13.3 25.5 2.5 2.7 4.9 3.1 4.7 3.9-.1.7-.5 1.2-1.4 1.4l-3.2.3.4-.7zm-73.6-3.6s.1.2.6.3c.4 0 3.4-3 3.3-3.8 0 0-1.4-.5-2.5-1.7-1-1-1.3-2.8-1.3-2.8s1 2 1.8 2.5c.9.5 2.2.8 2.7.4s5-3.7 4.7-5c0 0-1.4 0-2.7-.9-1.3-1-1.5-2.9-1.5-2.9s.8 1.6 2.2 2.2c1.3.7 2.6.4 3 0 .3-.5 3.2-4.5 2.9-5.7 0 0-1.5.1-2.8-.8-1.4-1-2-3.3-2-3.3s1 2 2.6 2.3c1.7.4 3-.6 3.3-1.9.3-1.2 1.2-5.7-.2-6.8 0 0-2.2.7-3.7-.1-1.6-.8-2.2-2.8-2.2-2.8s1.4 1.8 3.1 2c1.8.3 2.6-.7 2.9-1.4a9 9 0 0 0-.2-4.7c-.5-1.4-1.6-1.3-2-3.4 0 0-.5.8-2.7.8-2.3 0-3.5-2.5-3.5-2.5s1.8 1.6 3.6 1.5c1.8-.1 2.5-1.6 2.5-2.8 0-1.1-1-2.1-1.4-3.3-.5-1.2-.5-2.6-.9-2.4-.3.2-.7 1.2-3 .9-2.4-.4-2.9-2-2.9-2s1.7 1.2 3 1c1.3 0 2.1-.6 2.1-1.5s-.5-2.5-3.4-5a89.1 89.1 0 0 0-5.3-4.2s3.8 2.1 6.3 4.2c2.4 2 3.8 4 3.8 4s2.7.9 3 0c.3-1 .2-2-.6-3.7-.8-1.6-3.1-4-3.1-4s2.4 2 3.5 4.1c1.2 2 .6 3.5.7 4 .1.5 5.2 2.5 6.3 1.8 1.1-.7.6-2.1-.4-3.6l-1.7-2.8s1.2 1.3 2 2.8c.9 1.5 1.6 2.6 1.3 3.3-.4.7-1 1-1 1.3 0 .2 1.7 1.1 3.4 2 1.7.9 3.7 1.7 4 1.2a7 7 0 0 0 .2-3.3c-.1-1.6-1-4.1-1-4.1s1 2.4 1.2 4.1c.2 1.7-.2 3 .2 3.6.4.6 1.7.8 1.7.8s-1 .7-3.2 0c-2.3-.6-11.8-5.4-12.2-5-.5.5 4.4 3.4 6.7 5.6 2.2 2 3.3 4.3 3.3 4.3s-1.8-1.5-3.4-2.4a32 32 0 0 0-7.1-3.2c-.4.4 1.9.8 2 1.2.2.4-1.5 2-1.5 2.7 0 .6 7.2 5.7 7 6.2-.2.6-1.9 1.9-2.2 1.8-.3 0-3.8-2.8-3.8-2.4 0 .5 2 2.2 2 2.6 0 .4-1.4 1.3-1.1 2.1.2.9 4 4 4 5 0 1.1-2.2 2-1.8 2.7.4.7 2.4 3 2.4 3s-2.1-1.3-2.8-2c-.7-.8-2-2.4-2.3-2.1-.2.2-1.6 3.2-1.4 3.8 0 .7 1.8 1.7 2.1 3.5.3 1.8-.2 3.7-.4 3.7-.1 0-2.5-3.1-3-3.2-.4 0-1 .2-1.4 1-.4.7-1.8 3.2-1.6 3.7.1.4 2.5 1 2.5 2.8 0 1.9-1.5 3.6-1.6 3.6-.1 0-3-3.7-3.2-3.7s-3.4 3.5-3.5 4c0 .3 2.2 2 1.8 2.5-.4.6-2-.2-2.8.3-.8.4-2.3 1-2.6 1-.3 0-.7-1-.7-1z"/>
    <path fill="#202020" d="M543.6 238s.3-1 .8-1.5c.4-.5 2.4-2.6 1.6-3-.7-.5-3.1.3-4.7.2-1.5-.1-2.5.2-7-3.5 0 0-14.2-10-36.2-11.2-7-.4-10 2.1-10.4 3.4 0 .3 1.8-2.8 8.8-2.7 3 0 25.2 1.8 36.7 10.8.6.5 4.4 4.1 8 3.7 3.5-.4 4.3-.8 4.2-.3 0 .5-1.2 1.9-1.4 2.5-.3.6-.5 1.7-.5 1.7zm-38.3 3l-.1-.2c-.2-.7-1.6-2.6-4-4.9a58.2 58.2 0 0 0-12.3-6.5c-.5-.2 9.2 4.4 11.9 7 4.3 4.1 4.5 4.5 4.5 4.5z"/>
    <path d="M505.2 256.7s-.6-1-2.4-2.1a15.1 15.1 0 0 0-3.8-1.8l4.3 1.1a7.3 7.3 0 0 1 2 2.8zm-1.1-8.2s-.6-.9-3.3-1.7c-2.7-.9-3.3-.8-3.3-.8s2.5-1 4.4-.1c1.9 1 2.2 2.6 2.2 2.6zm-1.6-6.8s-.5-1.2-3-2c-2.3-.9-4-1-4-1s2.5-.7 4.9.2c2.4 1 2.1 2.8 2.1 2.8zm-2.9-4.3s-.7-1-5.1-2c-4.5-1-6.3-1.1-6.3-1.1s6.4-.5 8 .2c1.8.7 3.4 2.9 3.4 2.9zm-8.2-4.7s-2.7-.8-5.4-1c-2.6-.2-6.7.2-6.7.2s7.6-1.2 9.7-.8c2 .5 2.4 1.6 2.4 1.6z"/>
  </g>
  <g fill="#f8c83c" stroke="#977c2e" stroke-width=".3">
    <path stroke-width=".4" d="M466.2 327.6s1.4 2.4 4 2.5c2.7 0 4.8 3.9 4.8 3.9l-3 2.9-7 .3-2.3-3.6 3.5-6zm.2-2.5c.2-.5-2.1-5-3.8-5.8-1.6-.8.6 1.5.2 2.4-.4 1-.6 2.1-.5 2.3.2.2 1.4 2 .7 3-.6.8 3.4-1.9 3.4-1.9z"/>
    <path stroke-width=".4" d="M465 332s1.4.7 2.3.4c1-.3 2-1.3 2-1.3m-5.5-.8s4-2.9 3.7-4.4c-.4-1.6-1.2-1.5-1.7-1.4-.5.2-3 2.2-3.1 2.7-.2.4 1.1 3.1 1.1 3.1z"/>
    <path stroke-width=".4" d="M461 332.3s.7 2 2 2 3.2-1.1 3.2-1.9c0-.8-1.3-2.2-2.2-2.6-.8-.4-2.8.7-2.8.7z"/>
    <path stroke-width=".4" d="M464.6 329.7c-.2.6-2.7 1.8-3.5 1.8-.9.1-2.6-2-1.9-2.3.7-.3 1.6-.3 2.2-.6.7-.4.8-1.2 1.2-1.2.4 0 1.4.2 1.6.8.3.7.6.9.4 1.5z"/>
    <path stroke-width=".4" d="M462 331.4s-3.9 5.2-5.5 5c-1.6-.3.6-7.5.6-7.5s.7.4 2 .8 2.6.9 3 1.7z"/>
    <path stroke-width=".4" d="M455 327.6s5 .9 5.3 1.7c.3.8-2.4 1.9-3.8 1.9s-1.4-3.6-1.4-3.6z"/>
    <path fill="#202220" stroke="none" d="M442.5 335.2s.7 2.5 2.9 2.6c2.2.1 4.2-2.3 4.2-2.3l-5.2-2z"/>
    <path fill="#4b4139" stroke="none" d="M442.5 335.2h-.1s.2.7.6 1.3a3 3 0 0 0 2.4 1.4h.1c2.2 0 4.2-2.3 4.2-2.3l.1-.1-5.4-2.1-2 1.8h.1v.1l2-1.7 5 2h.1v-.2l-.4.4c-.6.6-2.1 1.9-3.7 1.9h-.1c-1 0-1.8-.7-2.2-1.3a4.3 4.3 0 0 1-.4-.8l-.1-.3h-.2z"/>
    <path fill="#202220" stroke="none" d="M444 334.6s.8 1.8 3.7 1.8c2.8.1 5-2.2 5-2.2l-4.4-3.6z"/>
    <path fill="#4b4139" stroke="none" d="M444 334.6h-.1s.9 2 3.8 2h.1c2.9 0 5-2.3 5-2.4h.2l-4.7-3.8-4.5 4.1v.1h.2l4.3-3.8 4.4 3.5v-.2c-.5.5-2.5 2.2-4.9 2.2h-.1c-1.4 0-2.3-.5-2.9-1a3.4 3.4 0 0 1-.6-.5 1.7 1.7 0 0 1 0-.2h-.2z"/>
    <path fill="#4b4139" stroke="none" d="M444.4 335s1.2 1 2.7 1.1c1.5 0 3.4-.4 3.4-.4l-1.8.6-1.2.2-1.1-.2-1-.4-.9-.6z"/>
    <path fill="#202220" stroke="none" d="M447.7 332.5s1.2 3 3.9 2.7c2.6-.3 2.7-1.9 2.7-1.9l-3-4.3-3.6 3.5z"/>
    <path fill="#4b4139" stroke="none" d="M447.7 332.5h-.1s.3.7.9 1.4c.5.8 1.5 1.5 2.7 1.5h.4c1.4-.2 2-.7 2.4-1.2.4-.4.4-.8.4-.8l-3-4.5-3.9 3.5v.1h.2l3.6-3.3 3 4.2h-.1c0 .3-.3 1.4-2.6 1.7h-.4c-1.1 0-2-.6-2.6-1.3a6.1 6.1 0 0 1-.6-1l-.2-.3h-.1z"/>
    <path fill="#4b4139" stroke="none" d="M448 333s1.6 2 3 2 2.3-.6 2.3-.6v.2l-.7.4-1.2.3-1.3-.2-1-.6-1-1.4zm-5 3.2s1.2 1.2 2.4 1.3c1.1 0 2.8-1 2.8-1h.2l-.3.3-1.1.6-1.4.4-1.1-.2-.9-.5-.5-.6z"/>
    <path stroke-width=".4" d="M454.8 327.3c1.1-.1 3.6 3.3 3.6 5 0 1.6-.7 4.2-2 4-1.2 0-4-2.5-4.6-3.8-.6-1.2-1.2-2.1-.8-2.8.5-.7 3.7-2.4 3.7-2.4zm-12.4.3s-2-1.5-2.8-.7c-.8.8-.5 3.5 0 4 .5.6 3-1.2 3-1.2z"/>
    <path stroke-width=".4" d="M442.1 329.5s-2.6.3-2.6 1.5 1.2 2.5 1.5 2.8c.2.2 2.6-1.1 2.6-1.1z"/>
    <path stroke-width=".4" d="M443.2 331.7s-2.8.8-2.8 1.8 1.2 2.7 2.1 2.7c.9 0 1.5-1.7 1.9-2 .3-.4-1.2-2.5-1.2-2.5zm1.3-7.8s-.5-.8-1.7-.3c-1 .5-2.3 1.6-2.1 3.4.2 1.8.8 3 .8 3l4.1-1.4z"/>
    <path stroke-width=".4" d="M444.8 327s-3.5 1.2-3.6 2.5c-.2 1.4.8 2.7 1.7 3 1 .2 4-2.6 4-2.6z"/>
    <path stroke-width=".4" d="M447.9 332.6s-3.5 2.3-4 2.3c-.4 0-1.7-1.8-1.4-3 .3-1.2 2.6-2.1 3.5-2.4 1-.4 1.9 3.1 1.9 3.1zm3-12.5s-1-1-3.2-.8c-2 .2-3.6 3-3.9 4.3-.2 1.3 0 4 .8 4.3.8.4 5.1-3 5.1-3z"/>
    <path stroke-width=".4" d="M446.7 330.4c-1.5-.1-2.8-2.2-2.5-3.4.2-1.3 3-3.5 4.6-3.2 1.5.2 1.2 4 1.2 4s-1.9 2.8-3.3 2.6z"/>
    <path stroke-width=".4" d="M451.3 330.1s-.8 1.7-2.2 2.4c-1.5.8-2.3.2-3.2-1-.9-1.2.4-1.8 1-2.4.7-.6 2.6-1 2.6-1z"/>
    <path stroke-width=".4" d="M449 325.7s-1.7 1.3-.8 2.8c1 1.5 1.7 2 2.9 2.3 1.1.2 1.9-.3 2.8-1.4 1-1.1 2.3-1.6 2.2-3-.2-1.4-.7-2.5-1.5-2.9-.8-.4-3.4 0-5.7 2.2z"/>
    <path fill="#202220" stroke="none" d="M453.6 319.2s-1.7-.7-3 .1a4.7 4.7 0 0 0-2.2 3.7l.2 3.4s1.8-.5 3-1.5c1-1 1.5-1.2 1.3-1.7-.1-.3-.6-.6-.6-1.8 0-2 1.3-2.2 1.3-2.2z"/>
    <path fill="#4b4139" stroke="none" d="M453.6 319.2s-2-.3-3 .3a5 5 0 0 0-2 2.8c-.4 1.3-.2 1.6-.2 1.6s-.2-1 .2-2.1c.4-1.2 1.4-2.4 2.3-2.7 1.2-.4 2.7 0 2.7 0z"/>
    <path stroke-width=".4" d="M503.5 356l2.4-1.1 3-2 .7 3.5-2.7 2.1h-2.3l-1.4-1z"/>
    <path stroke-width=".4" d="M499.8 356.3l1.6.1c1.7 0 1.8-.6 2.1-.4.3.1.8 1.9.8 1.9l-.6 1-2.4 1.4-2-1.1-.1-2.8zm18.6-1s-.5-.9-1.4-1.7l-3.3-2.9v7.6l3.5-.1 1.6-2.3z"/>
    <path stroke-width=".4" d="M499.8 356.3s-.5-.7-2-.6c-1.5.2-3 1.4-3.2 2.4-.2 1 0 4 .8 4.5.8.6 1.8.9 3.4.5 1.6-.4 9.7-5.4 9.7-5.4l-2 .4c-1.2.2-2.2-.2-2.2-.2s-1.1 1.2-2.4 1.4c-1.3.2-1.6-.6-1.9-1.2-.2-.6-.2-1.8-.2-1.8z"/>
    <path stroke-width=".4" d="M505.2 359s-1.2.4-1.6.7c-.5.4-2.1 1-2.1 1l.6 2.4 3.5.9 2.1-1.8v-2.5zm16-1.8l-1.1-1.2c-.7-.8-1.5-1-1.7-.8l-1.8 2.3-.2 1.5 2 1 1.3.3 1.7-1.1z"/>
    <path stroke-width=".4" d="M509.4 356s-1.5.7-2.3 1.3c-.7.7-2 1.4-2 1.6 0 .3 1.8 2.1 1.8 2.1l1.8.2 3.8-2.7-.2-2.5h-2.9zm14.6 3.2s-.3-.6-1-1.2c-.5-.6-1.3-.9-1.7-.8-.5 0-2 2.3-2 2.3l-.2.6 1.4 1.6 2.5.6 1.7-1.7z"/>
    <path stroke-linecap="round" stroke-linejoin="round" stroke-width=".4" d="M517.6 361.8l1.8.3s0 .5.4 1c.5.3.6 0 .6 0s.2 1.7 2 3c0 0 2.2.8 3.3.2 1.1-.6 1 .2 1 .2l3-3.8s0-.8-.7-.9c0 0 .5-2.3-1.5-2.8s-3.5.2-3.5.2-1.6 2.8-2.5 2.4c-.2-.1-.7-.4-1-.8-1-.9-1.2-1.3-1.2-1.3s-.6.2-1.4-.3c-.7-.5-1.3-1.8-1.3-1.8s-1.2-.2-1.6-.6c-.4-.4-.8-1.2-.8-1.2l-2.9 2s0 1-1.7 2.2c-1.7 1.2-2.7 1.2-2.7 1.2s-.4 2.5-2.3 2.1c-1.8-.4-3-2.5-3-2.5s-1.4-.2-2.3 1c-.8 1.1-1.3 1.5-1.3 2.6 0 1.2.8 2.8 1.4 3.3.6.6 2.4 2 4.6 1 2.2-1.2 1.5-3.1 1.5-3.1l1.2-.7c1.4-1 2.8-2.3 3.8-2.7"/>
    <path stroke-width=".4" d="M514.2 346.6v5s.7 4.2-.3 5.6c-1 1.4-4.4 1-4.9 0-.5-1.3-.2-5-.2-5z"/>
    <path stroke-linecap="round" stroke-linejoin="round" stroke-width=".4" d="M510.4 361.4s-.7 1.3 1.5 1.5c.7 0 1-.2 1.4-.5.6-.7.4-1.2.4-1.2s-.2 1.8 1.9 1.8c2.2.1 2-2 2-2"/>
    <path fill="#202220" stroke="none" d="M491.8 365.4s-1.2-2 .2-2.9c1.5-.7 2.3 0 3.2.1 1 0 .6-2.3.4-2.8-.2-.4-.6-1.4-1-1.7-.4-.3-5.3.2-5.3 3.5 0 3.2 2.5 3.8 2.5 3.8zm7.7 8s-1.5-2.3-.7-3.7c.9-1.3 1.5-.5 2-.5.4 0 .6-1-.1-2.5-.8-1.5-1.7-2.3-2.2-2.3-.5 0-3.5 2.1-3 4.9.8 3.4 4 4 4 4zm27.9-2.8s5.4 2.3 5.7-3.1c.2-3-2.4-5-3.2-5-.6 0-1 .4-2 1.6-1 1-1.6 2-1.2 2.4.3.4 2-.5 2.6 1.2 1.2 3-2 3-2 3z"/>
    <path fill="#4b4139" stroke="none" d="M499.5 373.3s-4.1-.9-4.1-5c0-2.7 3-4 3-4s-2.8 1.6-2.8 4c0 4.1 4 5 4 5zm-7.6-7.9s-2.4-.5-2.7-4c-.3-3.4 5.5-3.3 5.5-3.3s-5.5.3-5.2 3.6c.3 3.4 2.4 3.7 2.4 3.7zm35.5 5.2s1 .5 2.3.5c1.2 0 2.7-.4 3.2-2.4s.3-3-1-4.9c-1-1.2-1.9-1.2-1.9-1.2s1 .2 1.7 1.3c.7 1.2 1.8 2.4 1 4.7-.7 2.4-2.9 2.4-3.7 2.3a8.4 8.4 0 0 1-1.6-.3z"/>
  </g>
  <g fill="#4d2a15">
    <path fill="#904720" d="M463.4 257l-1-.3.7-1.6 2.8-1 2.8-.2 3-.1 1.4 1 1.5 3.4-5.6 3.4-1 .3-.3-1.4-.9-2.3z"/>
    <path fill="#202020" d="M516 338.4l-.4-8.4-22.7 7 9 8.4z"/>
    <path fill="#d2a567" d="M473.8 323.7l-1.9-1.5s-1.4-1-2.1-1.2c-.8-.2-1.8 0-1.8 0l-.3.4.3.8 2 2.4 3.6 1.8 1.2 1.2.8.3zm-.5 3.6l1.3.2 1.3 1.5.8 1.5 1 2.1.4 1.3-2.6-.6-7.3-2.3.6-1.7 1.3-1.2 1-.5 1.6-.2z"/>
    <path fill="#d2a567" d="M478 333.4l1.3-.1.8-.7-.4-2.8.5-8.8-6-7.1-1.2 4 1.7 7.2 1.3 4.3z"/>
    <path fill="#ab6d29" d="M473.8 317.2s-.4.7 0 3c.6 2.4 1.5 7.6 3.5 11.1s-2-2.8-2-2.8-3.2-7.2-2.7-12.6c.5-5.4 1.2 1.3 1.2 1.3z"/>
    <path fill="#ab6d29" d="M478.1 321.7s-1.3 1.7-1.5 3c-.2 1.1.1 3.3.1 3.3s-.2-1.6 1.2-2c1.3-.4 1.1 3.6 1.2 4l.8-7.2zm.7 14.8l-6.7-1.6c-3.5-1.5-5.4-2.7-5.3-3.6 0-.8 6.2.2 7 .4 1 .2 3.7 1.6 3.7 1.6h1.6l2.9-1.3.4 3-3.6 1.5zm-11.2-1.3s1.6 1.2.8 1.7-3 .6-3.6.4a1718 1718 0 0 1 6.5 1.6s1.4-1.2 1.3-1.3l-5-2.4z"/>
    <path fill="#d2a567" d="M465.8 333.4c.2-.4.4 1 2.7 1.3 2.4.3 3.4-.4 3.4-.4l1 .6 1.3.3-1.1 1.7-4.3-1.3-2.3-1.2z"/>
    <path fill="#ab6d29" d="M481 330.4l1.1 1.7.7-3.7v-4l-2.4-1.5z"/>
    <path d="M474.2 324l-2-3.3-2.6-4.7 1.6-2.7 2 2.8s-.6 2-.3 3.7a33 33 0 0 0 1.3 4.3z"/>
    <path fill="#d2a567" d="M460.6 336.2s.8-1.4 2.8-1.6c2-.2 3.7.3 3.7.3l4.1 2.1.8 1.4-7.7-1-3.7-1.2z"/>
    <path fill="#8f4620" d="M480.8 322.5l.3 6c.1 1.5 1 3 .9 3.6-.2.6-.5.9-1.5 1.2-1 .4-3 0-3 0s2-.2 2-.6c.2-.4-.5-2.2-.6-3.8-.1-1.6 0-3.4-.5-3.4s-1.1.7-1.2 1c-.1.1.5-5.9 1.2-6.5.6-.7 2.4 2.5 2.4 2.5z"/>
    <path fill="#ab6d29" d="M466.6 334.7s-.8-.8-.8-1.3 1 2.5 5.2 2.3l4-.2h2s-.5 1.8-.8 2a77 77 0 0 0-3.4 2.2l-1 .6v-.3h-.2l-.3-3.3-3.7-1.4z"/>
    <path fill="#8f4620" d="M474.2 324s-5-5-6.6-8.4c-1.6-3.4-.6-8-.6-8l4.6 6s-.6 1.2-.4 3.1c.2 2 3 7.4 3 7.4z"/>
    <path fill="#ab6d29" d="M471 342.7c-.1-.4-.3-1.5.6-2.7 3-3.7 10.4-6.3 10.4-6.3v4.5l-9.5 4.6z"/>
    <path fill="#8f4620" d="M471.6 339.3c.4-.3 2-1.5 2.1-2 0-.7-1.1-.8-3.3-1.2a15.4 15.4 0 0 1-3.9-1.4s2.7 2 3.7 2.4c1 .4 1 .8.8 1.1-.1.3.5 1.1.6 1zm12.7 1s-1.4-2-1.8-3.3c-.4-1.2-.4-3.2-.5-3.3l-1.6 1-2.9 1c-.1.1 3 0 3 1 0 1.2-4.5 1.6-4.5 1.7 0 0 3.6-.8 3.4 0-.2 1-1.8 1-3.8 1.9-2 .8-2.8 1.2-3.5 1.6l-1 .7s.8.5 2.2.5c1.3 0 4.4-.8 4.4-.8l5.9-2.3.7.3z"/>
    <path fill="#ab6d29" d="M484.3 340.3s-1.6-.6-2.8-7.4c-1.2-6.8-.8-8.7-.8-8.7l2.8 2 2.4 4.5z"/>
    <path fill="#8f4620" d="M485.2 329s-1.3 3.8-1.3 6-.2 3.7.4 5.3c.7 1.6 2.8 3.5 2.8 3.5l1-1 .5-3 .2-5.2-3.6-5.7z"/>
    <path fill="#202020" d="M489 334.2s.7 9.6-1.7 9.9c-1.2.1-3-3.7-3-3.8 0-.1 2.2 3.5 3 3.2 1.5-.6 1-10 1-10l.8.7zm-4.7 6.1s-.4-.2-1-1.3c-.7-1-.2 1-5.3 2.8-5.2 1.9-7 .8-7 .8s1.7 1.4 7-.1c5.1-1.5 4.7-1.9 5.3-2l1-.2z"/>
    <path fill="#ab6d29" d="M474.7 328s.9.7 1.8 2.6l1.6 3.2.2-.2s-.6-1.9-1.5-3.3c-.8-1.4-3.3-4.8-3.3-4.8z"/>
    <path fill="#8f4620" d="M471.6 340s.5-1.8 0-2.1c-.5-.4-1 0-4.5-.4a52.2 52.2 0 0 1-6.5-1.3s2.3 1.5 4.6 2c2.3.7 5.3 1.3 5.3 1.3l.8.2z"/>
    <path fill="#202020" d="M471.6 340s0-.4-.3-.9c-.4-.4-1.1.2-5.4-1-4.2-1.1-5.3-2-5.3-2s1.5 1.4 5.2 2.4l5.8 1.5z"/>
    <path fill="#ab6d29" d="M473.5 327.3s-3.2.2-4.2 1-2.5 3-2.5 3l2.1.3s-.3-2 .7-3 2.5-1 4-1.3z"/>
    <path fill="#8f4620" d="M467.4 321.2s1.3 1.7 2.7 2.3c1.3.6 2.7 1 3.3 1.7.6.7 1.3 2.8 1.3 2.8s-4.6-2-5.5-3c-.9-1-1.8-3.8-1.8-3.8z"/>
    <path fill="#8f4620" d="M472 322.2s-.5-.7-1.8-1.2-2.2-.5-2.5-.3c-.4.3-.3.5-.3.5l1.7 2.5 1-.2s-2.6-1.6-2-2.1c1.3-1 3.8.8 3.8.8z"/>
    <path fill="#202020" d="M484.4 316.4l25.9-13.4 12.3 17-22.4 6-11.9 1-5.8-4z"/>
    <path d="M519.1 323.7l32.3 28-3.6 2.4-7.5-2.1-15.8-15.6-5.8-5.8z"/>
    <path d="M560.5 346.1s-8-6.3-18.5-14l-23.3-17.5.6 8.3 26.7 24.5 8.8 4.3 4.4-1.4 2.3-2.3-1-1.9z"/>
    <path fill="#803f1d" d="M519 326.4s9.3 10.5 16.4 15.8c7 5.4 13.8 11.2 15.2 10.4 1.4-.8 1-1.7 1-1.7l-32.8-26.7.2 2.2z"/>
    <path d="M541.9 353.2l-3.3 2.6-3.8-1.6L515 334l1-3.7 2.8.4z"/>
    <path fill="#202020" d="M560.5 346.1s-2.5 5.8-7.6 4.4c-5.2-1.3-33.7-28.4-33.7-28.4v2.8s28.8 26.5 34.4 27.6c5.6 1 10.1-3.8 9.5-4.3-.3-.4-2.6-2-2.6-2z"/>
    <path fill="#803f1d" d="M515.8 330.6s9.3 11.8 14.1 16.2c5 4.3 9 7.7 11 7.3 2-.4-1.1-2.6-1.1-2.6l-14-13.7-7-7.2s-2.9-1.1-3 0z"/>
    <path fill="#202020" d="M518.1 330.6s23.4 23.8 25.3 24.4c3.9 1.1 9.5-3 9.5-3l-2.1-1.1-.3.7s-1 2.4-6 1.3c-5-1-25.6-23.1-25.6-23.1l-.8.8z"/>
    <path d="M527 353.4l-8.6-9.8-1.9-3.2-.5-4.2 17 17.1-2.4 1.6-2-.7z"/>
    <path fill="#202020" d="M542.3 353.7s-2 3-4.8 2.5c-2.8-.6-4.4-2.7-4.4-2.7l-16.3-15.9-.4-2.4s17.9 18.9 21 19.7c2.4.6 4.1-2.2 4.1-2.2l.8 1z"/>
    <path fill="#202020" d="M533.3 353.2s-.8 2.4-3.2 2c-2.4-.3-3.1-1.3-3.1-1.3l-10-11.8-.2-3.2s10.4 14.4 12.8 15.2c2.4.8 3-1.6 3-1.6l.7.7z"/>
    <path fill="#b07229" d="M522.6 322.1s9.7 8.3 10.5 8.7c.8.4 4.2.5 4.4 1 .2.5-2.2 0-2.4.5-.2.5 4.8 4.7 5.6 4.8.8 0 5 0 4.8.6 0 .5-2.8 0-2.9.6 0 .6 4.4 4.1 5.2 4.2.8.1 6 .1 6 .6 0 .6-4.2 0-4 .9 0 .9 7 5.2 6.7 5.8-.3.6-8.4-5.4-8.6-5.1-.2.3-.5 2.2-1 2.5-.5.3 0-2.5-.4-3.8-.4-1.2-5-4.7-5.6-4.3-.4.4 0 2.5-.6 2.5-.4 0 .2-2.6-.4-3.5-.4-1-4.8-4.5-5.4-4.5-.6 0-.2 1.9-.6 2.2-.4.3-.3-2.2-1-3-.5-.9-10.7-10-10.3-10.7z"/>
    <path d="M506 349s.2 3.6-1.5 4.1c-1.6.6-4.7-6.7-4.7-6.7l-.8-6.7 4.9 4.4 2.2 4.8zm13-2v-1.9l-.4-2.2-.4-3.8-.9-2.5-.7-1.6-1 .1-2.6 1.8-.8 2.5 1.3 4.5 1.3 4.2 1.8.6 2.4-1.6z"/>
    <path d="M515.7 353.5c.6-.2-.5-5.2-.5-5.2l-3-7.4-.8-2.6-2.4-1-1.6 1.9.3 3s2.3 4.8 3.5 6.5c1.1 1.7 3.5 5 4.5 4.8z"/>
    <path fill="#202020" d="M513 337.8c.9.6 1.9 2.6 2.1 3.9 0 0 2 5.4 1.7 6-.2.5-1.4.6-1.4.6s2.6 2.8 3.4 2.4c.8-.3.5-3 .2-3.6-.2-.6-1.1-.2-1.4-.8-.4-.6-1.4-4.3-1.4-6.4 0-2.2-.2-3.7.1-4.2.3-.5 2.3 4.5 2.3 7.2l.8 1s-.5-3.7-.8-4.8c-.4-1.2-1.1-3.1-1.1-3.5 0-.4.4-1.4.4-2.3v-1.6s1 .8 1.4.7c.4 0 1-.6 1.2-3a81 81 0 0 0-.2-9.2L509.9 334l3.1 3.9z"/>
    <path fill="#202020" d="M513 336.6s-.4 3.7 1 7.4c1.3 3.8 1.7 4 2 4.5.2.5.2 4.5-.3 5 0 0-2.6-6.8-3.5-10.1-1-3.4-1.2-4.6-1.6-5-.5-.2-1.3-.2-1.3-.2z"/>
    <path d="M512 356.1c.3 0 .1-1.5.1-1.5l-.4-3.6-3.6-7.4-4-3.6-2-3.3-.4 6.2s2.9 6.2 4.8 8c1.9 1.7 5 5.3 5.5 5.2z"/>
    <path fill="#202020" d="M497.2 339.3s.6 1.7.6 2.7v2.1l2.8 5.3c1.3 2.4 2.6 4.8 3.7 4.3 1.1-.6 1.5-2.3 1.6-2.5 0-.2-1.3 2-2 1.7-.6-.4-3.6-10-3.5-10.2 0-.2-.8-.6-1.5-1.3l-1.7-2zm10.8 8.4s-2-3.4-2.7-4.9c-.7-1.4-1.8-2.6-2.1-2.6-.4 0-.8-3-.8-3s1 2 2.5 2.7c1.4.7 2.2 1.2 3 1 0 0 .3 1.5.3 3l-.2 3.8z"/>
    <path fill="#5c3a1d" d="M501.4 342.7s.7 2.2 2 4.2c1.4 2 3.6 4.4 3.6 4.4s-2.5-2.4-3.7-4.3c-1.3-1.9-2.2-4.3-2.2-4.3z"/>
    <path fill="#202020" d="M508.5 340.2s.6-1.8 1.2-1.9c.6 0 1.8-.4 1.8-.4s-1-.3-1.9-1.3l-2-2 .7 3c.2 1 .2 2.6.2 2.6zm-.7.6s3 6.3 3.7 8.5c.8 2 .6 5.3.6 5.3s-.3-2.3-1-4.2c-.6-1.8-3.3-7-3.6-7.6-.2-.6.3-2 .3-2z"/>
    <path d="M511.8 336.7l.7-9.3-.7-3.3-4.2-9.3s-.2 1.4-1.2 1.4-3.8-1.6-4.8-2.8c0 0 .6 2.2.4 4.2-.2 2-.6 3.2-.6 3.2l8 15.1z"/>
    <path fill="#8b441f" d="M495.8 342.8s1.3 1.5 2 1.3c.7-.2.4-3-.5-4.7a143 143 0 0 0-12.2-15.5 180 180 0 0 0 10.7 19z"/>
    <path fill="#8b441f" stroke="#5c3a1d" stroke-width=".1" d="M502.5 337.4c.2.6 1 4.8-.8 5.2-2.3.5-13.1-14.4-14.8-16.4 0 0-6.8-4.3-7-5.4 0-1 7.4 1.5 7.4 1.5l14.5 13.8s.5.7.7 1.3z"/>
    <path fill="#202020" d="M495.8 342.8s-1.2-2.1-1.3-3.6c-.1-1.5-.6-2.3-.7-2.9 0-.5-8-11.9-8.8-12.6-.8-.7-3.4-2.2-3.4-2.2l.3 2.6v1c0 .9 2.5 4.8 6.1 9a703 703 0 0 0 7.8 8.7z"/>
    <path d="M507.8 340.8c1-.6.6-4.2.2-5.4-.4-1.1-6.8-14.5-6.8-14.5l-2 .7-3.6-2.8-2-2.2s.7 3.2.6 4.7l-.1 2.5 5 9 8.7 8zm7.2-8l1.6-2-.8-6.7-4.3-14.6s-1 .3-2.1-.4c-1-.7-2.2-2-2.2-2l1 8.8 4.5 12.1.2 3.7 2.1 1z"/>
    <path fill="#202020" d="M501.8 336.1s-4.3-4.6-5.7-7c-1.4-2.2-2.6-4.5-2.6-4.5s-1.2.5-2.7 0c-1.5-.7-3.5-2.8-3.5-2.8s-1.2 2.3 5 8.6c7 7.2 9.5 5.7 9.5 5.7z"/>
    <path fill="#8b441f" d="M512 337.7c1.9-.7 1.8-8.3.1-13.4-1.7-5-4.5-9.5-4.5-9.5s3.5 8.2 4.3 11.6c.7 3.3 0 5.7-.6 5.5-.6-.2-.6-2-2-5.2-1.4-3.3-2.4-4-2.4-4s5 13.4 3.6 13.1c-1.4-.2-8.3-15.2-8.6-15.6-.3-.4-.5.6-.5.6s6.1 18.7 10.7 17z"/>
    <path d="M516 301.3l3 6.4 1 6.8.3 5.7s.2 11.3-1.2 11.6c-1.4.3-2-1-2.1-1.3l-2.6-12.8-2.7-13 1-.9.3-1.9 2-.1z"/>
    <path fill="#8b441f" d="M507.8 340.8c1.2-.1 0-3.2 0-3.2s-1 1.5-1.8.5-2-4.8-2-4.8l-.8-2.2s-1 2.5-2 2.5c-1.2 0-7-10-7-10l-.7 1s8.2 17 14.3 16.2z"/>
    <path fill="#202020" d="M504 333.3s1-2.4.5-4.6c-.4-2.2-3.3-7.8-3.3-7.8s-1 .2-2.1-.2c-1.2-.4-3.5-2-3.5-2s1.6 4.2 3.4 7.3c1.8 3 5 7.3 5 7.3zm4.7-3.4s-.7-5.3-3.1-10.1c-2.4-4.9-4-6.4-4-6.4s.2 1 .2 3v2.4s2.1.8 3.8 3.7a53 53 0 0 1 3.1 7.4zm6.5-9s-.3-5.7-1.2-8.9c-.9-3.2-1.8-7.5-1.8-7.5s0-.4.5-.7c.2-.1.5-.2 1 0 1.2.4 1.7 3.4 1.7 3.4l-.3-4.8-.4-.8s-.4.2-1 .2a25.2 25.2 0 0 1-1.1-.2s.3 1.4-.3 2c-.4.6-.8-.3-1-.5l-.3.7s.5 1.6.6 3a10.4 10.4 0 0 1-.2 2.6s.9 3.4 1.8 5.4c1 2.1 2 6.1 2 6.1zm5-.7s1-8-.8-13.3c-1.8-5.2-3.3-6.5-3.3-6.5l-.9 1s2.8 4.4 3.6 8.5c.8 4.3 1.5 10.3 1.5 10.3zm-8 4.1s-1-6.3-2.1-10.4l-1.5-5.6-1.7-1.6s1 4.4.9 5.6l-.2 2.1s.8 2.2 2 4c1.1 1.8 2.5 6 2.5 6z"/>
    <path fill="#904720" d="M516.4 334.4c1.6 0 .2-9.1-.5-11.5l-4.4-13.4s4.5 15.7 4.1 16.5c-.5 1.2-2.3-4.8-2.6-4.7-.3 0 3.4 10.6 2 10.8-1.3.1-2-2.2-2-2.2l.2 2.3s.8 2.2 3.2 2.2z"/>
    <path fill="#904720" d="M518.4 329.8c1 0-.4-8.7-1.2-12.5-.7-3.9-3-11.5-3-11.5s2.3 5.3 3.6 11.4c1.2 6.1 2 14 .9 14.1-1.2.2-1.8-1.1-1.8-1.1l-.2-1.4s.5 1 1.7 1z"/>
    <path fill="#312317" d="M503.4 340c.2.6.1 3.6-1.4 3.4-1.6-.2-4.5-3-5-4.7 0 0 3.3 3.8 4.5 3.8 1.2 0 1.2-4 1-5-.2-1 1 2.5 1 2.5z"/>
    <path fill="#d2a567" d="M511.7 298.6s2 1.3 3.7.4a6 6 0 0 0 2.6-4.6c0-1.2 0-2.3-1-3.6-1-1.4 1.5 1 1.5 3.5 0 2.4.1 6.6-3.7 7.5-4 1-2.2-.2-2.2-.2z"/>
    <path fill="#8f4620" d="M508.6 291.2s2.4 4 3.4 7.6c1 3.7.8 5 .2 5.1-.6 0-.9-.4-1-1.3l-2.6-11.4z"/>
    <path fill="#1e2121" d="M465.6 296.1l16.2 23.6 20.4-23-12.9-13.2z"/>
    <path d="M486.1 281.7l-1 3.7 2 6.3 3.5 3.4 3.9 2.7.9-3 1-3.4 1-.4 2.4 1 1.7-2.4 2.6-4.7-.6-1.9-.6-1.3-4-7.1-1.5 2.7-1.3.8-2.4-1.4-2.8 3.8-3.6-1.6z"/>
    <path fill="#5c3818" d="M494.5 297.8s.7-.5 1-2.4c.3-1.9.3-7.6-.2-9.8-.4-2.3-2-6.8-2.2-6.5-.3.4 2.3 5 1.9 10.6-.4 5.6-.2 7.2-1.4 7.7-1.2.6.9.4.9.4z"/>
    <path fill="#5c3818" d="M495.4 288.3s2.7 3.9 4 2.5c1.3-1.4.7-6.3-.2-8.2-.8-1.9-1.7-4.7-1.7-4.7l.8-.8 1.4 5.3c.5 2 2 8 .2 9s-4.4-2.2-4.4-2.2v-.9z"/>
    <path fill="#8f4620" d="M486.8 291s.9-1.3 2-1.5c1.3-.1 1.5.4 1.5.4l1.1 3.2 1.9 3.3 1.6 1.6-1 .9-1.3.2-3.9-2.1c0-.2-1-1.5-1-1.5l-1-4.5z"/>
    <path fill="#d2a567" d="M493.1 324.4c-1.2.6-4.1-.8-5.8-2.3-1.6-1.4-10.3-10.2-10.3-10.2l-1.2-5 3.4 1 5.8-2.6 1.1-2 7-3.7 4-2.1 8.6-.2 2-4.2s2.9 5 3.4 7 .4 8.3-.4 8.7c-.7.4-3.5-1.8-4-2-.3-.1 2.2 8.8 0 9.1-2 .4-5.5-3.3-5.5-3.3s1.4 8-.2 8c-1.7 0-6-2-7.7-4 0 0 2 6.7-.2 7.8z"/>
    <path fill="#8f4620" d="M491.5 314l1.8 2.7c.4.6-.1 4.4-.4 5.1-.5 1.5-2.5-1.7-3.5-4.5 0 0-3.1-5.2-3.3-5.9-.2-.6 5.4 2.6 5.4 2.6zm16.6-19.7s3 12.4 1.6 12.9c-1.5.4-5.6-4-6-4.6l-6.3-9.8-1.2-1.3.3-.6 2.5 1 9.1 2.4z"/>
    <path fill="#8f4620" d="M486.8 318.2c-.7.4-2-1.6-2.6-2.1-.6-.6-2.6-3-4.6-5-2-2.1-3.5-3.6-3.5-4 0-.4-1.1-1.7-1.1-1.7l1-1.3 1.4-.2s8.2 6.5 8.8 7.6c.6 1 1 6.5.6 6.7zm12.3.1a24 24 0 0 1-8-6.9c-2.4-3.3-4.8-6.1-5.3-7.6a112.5 112.5 0 0 1-1-3l1.6.4s13.4 16.6 12.7 17.1zm2-5.8c-.3.4-2.7-1.4-4.2-3.3-1.4-1.9-.6-4.3-.6-4.3s5 7.3 4.8 7.7zm3-.7c-.7.4-3.8-3.4-6.4-7.7-2-3.1-2.4-3.6-2.8-3.8-.8-.5-2.1-.7-2.1-.7l-.3-.4 1.4-.3 1-1.2 1.7-2.1 6.5 13s1.5 3 1 3.2z"/>
    <path fill="#ab6d29" d="M487.3 322.1c0 .5 0 1-1.8.8-1.7-.2-11-5-15.1-11.9a3345.2 3345.2 0 0 1-4.7-7.7l1.8-2 14.7 16.6 5.1 4.2z"/>
    <path fill="#8f4620" d="M487.3 322.1c.2.8-.7 1-1.6.8-1-.3-4.6-1.6-10.5-8a51 51 0 0 1-8.2-11.4l-.3-2.8 1.8-.7 10 15.3 8.8 6.8z"/>
    <path d="M497.1 315.5s-3-2.1-5-4.5c-1.9-2.3-5.8-7.7-5.7-8.7 0-1 1.7-1 1.7-1v-2.8l.4-1 2.9 1.2 3.5 4.4 1.4 1.8s2.3 5.6 1.8 6c-.4.6-3.7-3-4.1-2.6-.4.5 3.7 6.8 3.1 7.2zm-5.6-1.5s1 1.5.5 2.6c-.4 1-.8 1.6-2.3-.6a23.4 23.4 0 0 0-3.5-4.5c-.2.2.2 3.4-.6 3.4-.7 0-3-2.8-4.5-5l-3.8-6s.2-.7 0-3.2c0-2.5-.2-3.8-.2-3.8l.5 1.3c.2.6.6 1 .6 1l5.5 6.5 1.5-1 3.3 6.3 3 3zm-20.8-9.4s4.2 7.5 8.2 11.6c4 4.1 8.4 6 8.4 6L474.5 307l-3.8-2.4zm32.5 4.4c-.3.2-2.9-2.6-4.5-5.2a17 17 0 0 1-2.9-7.6l.6-5.3s4.4 4.5 5.2 6.6c.9 2.1 2.7 5 2.3 5.4-.4.3-3.4-2-3.7-1.4-.4.5 3.4 7.2 3 7.5zm5-4.7c-.6.3-2.8-2.3-3.4-4-.6-1.6-.8-4.7-.8-4.7l-2-4.6.3-5.1 1.9-.3 3 4s1 2.4 1 5.8.5 8.6 0 8.9zm-34.6 12.5c-3.9-4.9-6.3-9.4-6.3-9.4L466 303l.7.6s1.2 5 7.2 11c6.1 6 7.5 6.4 7.5 6.4s1.1 3.3.6 4.5c0 0-4.4-3.9-8.4-8.7z"/>
    <path fill="#202020" d="M480.2 323.7s-5.2-4.6-9.3-9.7a71.2 71.2 0 0 1-6.7-10.2l1.8-1.7s3.4 8 5.9 11.2l8.3 10.4zm7.1-1.6s-6-6-9-9.3c-3-3.3-4.8-6.7-4.8-6.7l2.6 1s1 2.6 3.1 5.3l8.1 9.7zm-1-10.6s-3.4-4-5-6.6c-1.5-2.5-3-5.7-3-5.7s4.3 5 5.6 5.4c1.3.3 1.3 0 1.3 0s-.6 1.7-.1 3.3l1.1 3.6zm1.2-16.3s.6 2.8.2 4.5c-.4 1.6-1.2 1.6-1.2 1.6s1.7 2.4 2.7 3.4c1 1 3.4 2.8 3.4 2.8s-2-2.8-2.7-4.2c-.8-1.4-2-3-1.5-4.3.5-1.4 3.2 1 4 1.5l3.9 4.4s-1.2-3.9-2.8-5.3c-1.5-1.4-6-4.4-6-4.4z"/>
    <path fill="#202020" d="M500.8 303.7L498 297c-1-2.5-2.5-7.9-2.5-7.9s.2 2.5 0 4.3c-.1 1.8-.8 4.6-1.5 5-.8.4-1 .5-2.5.1s1 .7 1 .7 1.5 0 2.2-.8c.6-.7.8-2.3 1.5-2 .7.2 1.4 2.5 2 3.6.5 1 2.5 3.6 2.5 3.6z"/>
    <path fill="#202020" d="M495.6 289.2s3.2 3.5 4.5 2c1.4-1.7.6-6.1.6-6.1s2 .7 2.5.2c.6-.5.3-2.2.3-2.2s3.5 5 5 8.1c1.7 3.2 2.6 9 2.6 9s-2.8-4.6-4.3-9c-1.3-4-3.2-5.7-3.5-5.4-.4.4-.9 3.2-.5 4.6.5 1.5 1.6 3.3 2.4 5.4.8 2 1.7 5.2 1.7 5.2l-2.6-3.8c-.9-1.3-1.9-1.8-2.5-2.4-.7-.7-1.7-1.8-2.6-2.2-1-.4-2.8-1.3-2.8-.6 0 .7-.4-1.4-.4-1.4z"/>
    <path fill="#171717" d="M485 304.3s1.8 3.5 3.2 5.3a327.9 327.9 0 0 1 3.3 4.4s-3-2.7-4.2-4.4c-1.2-1.7-2.3-5.3-2.3-5.3z"/>
    <path fill="#8f4620" d="M505.6 305.2c-.5.2-1.9-.3-2 .2-.2.6.8 2.6 1.8 3.7 1.1 1 1.6 1.1 1.8 1 .3-.1-.1-1-.3-2.2-.2-1 0-2.3-.1-2.6-.2-.4-1.2 0-1.2 0z"/>
    <path fill="#d2a567" d="M468.4 283l-1.8 1.2-2.2 4.5.6 8.1 3.3 4.7c1.2 1.8 5.3 6.4 6.4 6.1 1-.2 2.2-3.5 2.3-5.2l.3-5s1 1.8 2.7 3.6c1.7 2 3.2 3.7 4 3.5.8 0 3.2-4.9 3.2-5.5 0-.6-6-15.4-6-15.4l-2.6-1.4-10.2.8z"/>
    <path fill="#ab6d29" d="M482 295.4l1.6 5.6c.7 1.9 0 3.5.4 3.5.3 0 3.5-4.2 3.5-6 0-2 0-4-.8-9.8-.8-5.9.3-7.6.3-7.6l-1.8-1.5-3.1 6.4-.1 9.4zm-10.6-3.4s.6 5.7 1 7.6c.4 1.9 1.5 5 2.1 5 .6 0 2.5-5 2.6-6.8 0 0-1.3-2.4-1.3-8.5s-.6-6.7-.6-6.7l-3.8 9.4z"/>
    <path fill="#45392d" d="M463.2 280.2s-4.8 7-4.7 10.8c0 3.8.7 3 1.8 6.4 1.1 3.4 1.7 8.5 1.8 9 0 .4.7-.3.8-.8l.3-25.4z"/>
    <path fill="#ab6d29" d="M463.1 281s-4.1 6.5-3.8 10c.3 3.6.8 3.5 2 6.7s1.3 8.5 1.3 8.5 1.3-.4 2.8-1.5c1.5-1 2.9-3.2 2.9-3.2l-1.5-3.3c-1-2-1-2.9-1-2.9l-1.3-1.7.4-6.2 1-4.5v-1.7z"/>
    <path fill="#dbad6c" d="M485.7 292.2s-2-.5-3-1c-.7-.5-1-1.7-1-1.7l.4-1.2z"/>
    <path fill="#d2a567" d="M464 281.8s-3 6.5-2.7 11c.4 4.4 2.9 10.1 3.1 10.2.2 0 .1-.4.2-1.5l-.1-13.3 1.4-4.4v-2.2l-1.9.2z"/>
    <path fill="#8f4620" d="M471.3 283.2s.4 2 .1 2.8c-.2.8-1.8 1.8-2.5 3-.6 1.3-1.6 4.3-1.6 4.3s.8-1.7 1.8-2.8c1-1 1.3-1.8 1.5-1.2.2.6.6 3.2.4 3.7-.2.4-1 1.2-1.5 3-.6 1.9 0 3.6 0 3.6l.7-3.3c.3-1 1.1-1.5 1.1-1.5l1.7 3.6s0-1.7.2-3c.3-1.2 1.7-3 2.1-3 .5 0 1.2-.3-.5-1.1-.6-.4-.2-6.6.2-6.9.5-.2 2.8-.3 2.6-1.1-.3-1-2.3-3.2-2.5-3.4-.2-.2-3.8 3.3-3.8 3.3z"/>
    <path fill="#dbad6c" d="M485.4 296.4l-2.2-.4c-.8-.1-1-.9-1-.9l.3-1 1.8 1z"/>
    <path fill="#8f4620" d="M466.2 297.1c0 .7-.6 1.4-1 2.3l-.5 2.5s-.5-3-.6-5c-.2-2.2-.3-3.5-.6-3.7-.2 0-1 1-1 1s0-2.3.5-3.5c.5-1 .8-2.7.4-3-.4-.2-1.2.5-1.6 1l-1 2s.4-2 .9-2.8c.4-.8 2.7-3.4 3.1-4.4.5-1 .5-2.1.5-2.1h1.5s1.7 1.2 1.7 2.3c0 .6-1.6 1.3-1.6 1.4-.1.2-1.3 0-1.6 5.1-.3 5.2 1 4.8.9 7zm14.3-13.3s.3 2.9 0 3.7c-.3.9-1.1 1.6-1.7 2.7-.6 1.1-.6 3.8-.6 3.8s.3-1.3.8-2.1l1.1-1.5c.2 0 .8 1 1.2 2.4l1.2 4s-.3-2 .2-2 .6-.1 1.3.4a22.7 22.7 0 0 1 1.4 1.2s0-.7-1-1.7-1.5-1-1.8-2.3a9.6 9.6 0 0 1-.3-3.3c.2-.6.8.3 1.3 1l2.3 2.2-1-1.5v-4.6c.1-1.5 0-3 .6-3.3.5-.4.6-2.4.4-2.7-.3-.4-5.4 3.6-5.4 3.6z"/>
    <path fill="#1e2121" d="M497.1 278a35.7 35.7 0 0 0 2.2 11s-1.6-3-2.4-5.6c-.7-2.6-1.3-5.4-2-5.6-.7-.2-1.4 1.2-1.4 2.3 0 1 .7 5.1 1.6 6.5.9 1.5-1.5-1.8-2-3.6l-1.2-3.3s-.5 1.5-.3 3.2c.2 1.6 1.6 4 1.6 4l-1.4-1.5a8.7 8.7 0 0 0-1-1s0 2.2.6 3.2l1.8 2.5-2-1.6-.7-1s.3 3.1 1 4.9c.7 1.7 2.3 4.5 2.3 4.5s-1.9-1.4-3-4.3a40 40 0 0 1-1.6-12.5l1.8-2.8c.8-1.3 2-7.2 2-7.2s1.3 5.5 2.2 6.5c1 1 2 1.4 2 1.4zm-13.2-1.6a22.8 22.8 0 0 0 2 3.6s-1.6 1.8-3.4 3.2c-1.8 1.4-4.3 3-4.8 2.2-.6-.9-.5-1.5-.5-1.5s2-1.3 3.6-2.9c1.6-1.6 2.1-2.4 2.5-3.3.3-.9.6-1.3.6-1.3zm-16.7 5.4s.3 3.5 1.7 3.4c1.5 0 5.7-4.4 6-4.6.3-.2.6-1.3.6-1.6l-.2-1.2s-4.6 4.8-6.3 5c-1.2 0-1.8-1-1.8-1zm.1-4.5s-.5 2.4-.4 3.1a5 5 0 0 0 .3 1.2s-3.4 1.2-3.9.2-.2-2.5-.2-2.5 1.5 0 2.4-.2c.8-.2 1.8-1.8 1.8-1.8zm31.2-4.8s1.3 3.5 2.2 5c.9 1.3 2.2 4.3 2.2 4.3s-2.2-2.6-2.9-3.2l-1.8-1.5s.3-1 .3-1.7v-3z"/>
    <path fill="#dbad6c" d="M462.6 279.3l2 .2c.7 0 1.2-.4 1.2-.4l1.3-1.9s-.6 2.3-.2 3.8c.4 1.6 1.3 1.8 1.7 1.8a6 6 0 0 0 3.5-1.7c1.3-1.4 3.2-3 3.2-3s-.4 2.1.3 4.1c.7 2 1.8 2 3.4.8 1.5-1.3 3.1-3.4 4-4.4.5-.5 1-1.6 1-1.6l1.8-1.3 1.4-8.4-.8-1-2.1 1-2.6-1-.8-1.1-1.4 2.5-1.6 1-.8.1-1.8.4-.8-1.6-.4-1.3-1-.4-3.6 3.8-2.1-.1-2.1 3.3-1.6 2-1.5 3.7z"/>
    <path fill="#8f4620" d="M480.6 271s.3 2-.7 5.5-2.5 6-2.5 6 3.7-2.3 5.5-6.4c1.8-4.1 1.4-8.8 1.4-8.8l-3.7 3.6zm4.5-3.9s.5.6 0 3.8c-.3 3-1 6.1-1 6.1l.9 1.8c.5 1 1.7 2.8 2.6 2.5 1-.3 2.3-1.4 3.3-3.5l2.1-4.4c.3-.3.5.2.7.4 0 .1.4 2 1.3 2.7.9.7 2 2 2.6 1.6.5-.4 1-1.4 1-2l-2-6.1-2.4-6.1-1.5-2.4-4.4.4-3.2 5.2z"/>
    <path fill="#ab6d29" d="M492.7 261.5s1.2 2.6 1.3 5.5c0 2.8-.6 5.8-.6 5.8s.3-3.6-.1-5.7-1-3.5-1-4.1c0-.6.4-1.5.4-1.5z"/>
    <path d="M498.6 272.6s.2 2.4 0 3.6c-.3 1.1-2-.8-3-4.6-1-3.9-.9-4.7-1.7-6.6-.8-1.9-1.2-3.5-1.2-3.5l2.1-.3 3.8 11.4zm-10.7 7s4.2-2.3 4.7-9.3c.3-3.4-1.9-8.8-1.9-8.8s0 5.8-1.5 9.5a94 94 0 0 1-2.8 6.2s1-.5 1.5-1l1.1-1.7s.3 1 0 2.4l-1 2.8zm-3.6-12.3s-.2 1.5-2 3c-1.6 1.4-4.8 3-4.8 3s2.3-2.2 3.2-4c.8-2 .2-3.1.2-3.1s-.3 1-1.3 1.7c-1 .8-2.5 1-2.5 1s.1-1 1-2c.2-.2.2-.7.3-1 .5-1.6 1.8-3.7 1.8-3.7s1 2.2 2 3.2l2 1.9z"/>
    <path fill="#1e2121" d="M497.3 258.9s1 2.6 1.3 6c.4 3.6 0 7.7 0 7.7s-2.1-3.3-2.7-4.7c-.5-1.3-.5-3.3-1-4.4a5 5 0 0 0-1.6-1.6c-.3-.2-1.5-.2-1.5-.2s1.2-.5 1.3-1.6v-1.7s.8.4 2 .6c1.4.2 2.2-.1 2.2-.1zm-9.3 15s2.2-3.2 2.8-7.1c.6-4 0-5.3 0-5.3s-1-.1-1.8-.9c-.7-.7-2-2.6-2-2.6s.4 2 0 4.5c-.5 2.4-2.7 4.8-2.7 4.8s1.2.4 2.2-.2c2.3-1.3 2.1-3.8 2.1-3.8s.5.3.5 3.4c-.1 3-1.1 7.1-1.1 7.1z"/>
    <path fill="#8f4620" d="M461.2 279.2c-.5 0 1.4-3 2.8-5.2l3.2-5.1s.4.3 1.2.3c.8 0 2.8-1 3.7-2.5.8-1.6 1.4-3.3 1.5-3.8 0-.5-.2 2.7 1.4 4.5 1.5 1.7 1.5 1.6 2.1 1.4 0 0 0 2.3-.6 4.3l-1.2 5s.2-3.8-.4-5c-.7-1-1 .2-1.6 1.6-.5 1.4-1.7 2.4-1.7 2.4s1-1.7 1.5-3.5c.6-1.8.3-1.9.1-2-.1 0-.4 0-1 .7-.7.8-1.3 1-1.3 1s.8-.7 1-1.6c.3-.9 1-2.2 1.4-2.7.5-.5.8-1.1.8-1.5 0-.3-.1-1-.4-1-.3 0-.7.4-2.1 1.7-1.5 1.4-1.7 1.5-2 2l-1.3 4a24 24 0 0 1-1.7 4.2c-.1.3-.8.7-.8.7l1.3-3.6c.7-2.1 1.7-4.8 1.5-5.3-.3-.5-1-.4-1.1 0l-3.1 4.3c-1.5 2.1-1.5 4.7-1.8 4.8h-1.4z"/>
    <path fill="#874f20" d="M498.7 256.6c0 .3.1 1.8-1.4 2.3-1.6.5-3.5-.1-3.7-.3-.2-.2-.2-2.1-.2-2.1z"/>
    <path fill="#b27129" d="M468.5 261.6s-.3 1.4-1.1 3.2c-1 1.8-2.3 3.3-2.1 3.5.1.2 1 1 2.2 1 1.2 0 1.7-7.4 1.7-7.4l-.3-.3z"/>
    <path fill="#dbad6c" d="M487.6 257.5s-.6 9.8-3.3 9.8c-2.8 0-4-5-4-5s-.3 6.6-3.8 6.6c-1.6 0-3.3-5-3-6 0 0-.6 3.5-2.2 4.8-3.3 2.6-5.4 1.4-5.5 1-.1-.4 2.8-3.2 3.1-7 0 0 .6 0 1.4-1 .8-1.2 1.2-2.5 2-2.3.8.3 4.8-1.6 4.8-1.6l2-2.6s.3.8 1.8-.2c1.6-1 2-2.6 2-2.6l4.2 3.5.5 2.6z"/>
    <path fill="#b27129" d="M476.8 248.1s2.5 3.8 4.2 5.8c0 .2.9-.7.9-.7.5.7.8 1.4.7 1.8-.7 1.5-2 3.5-1 5.7 0 0-.3-1.2.3-2.8.6-1.5 1-2 1.4-2 .3 0 1 9 1.5 9 .6-.1 1.4-4.1 1.4-7 0-2.8.6-.5.9 0 .2.6 2.7 4.6 4.8 4 2-.6 1.8-4.3 1.7-5a71 71 0 0 0-1.5-5.8l-9.3-5.9-.8 2.4c-.5 1.7-5.2.5-5.2.5z"/>
    <path fill="#8f4620" d="M490.1 247.2s.6.5 1.5 2.9c.9 2.3 1 9.8-.2 9.8s-3.6-1.4-4-2.5c-.4-1 .1-4.7-.7-5.7-.8-1-1.7-3.6-1.8-4.3l.2-3 2-.7z"/>
    <path d="M489.4 245l4 5.8 3.6 5.1s1.7.6 1.7.7c0 .1-2 2.3-4.8.8-1.4-.8-.7-3.2-2.4-7-1.8-3.9-5-5.5-5-5.5l1.2-1z"/>
    <path fill="#1e2121" d="M487.3 241.7s3.5 2.3 4.8 4.9c1.2 2.5 2 4 3.5 6.6 1.5 2.5 3.1 3.2 3 3.4 0 .2-1 .4-1.8-.2-.7-.5-1.5-1.2-2.2-2.4s-2.8-5.3-3.7-6.3c-.8-1.1-3.4-3.1-3.5-3 0 .3.8.9 2.4 3.3 1.5 2.5 1.8 4.7 1.7 4.7l-1.7-3c-1.3-2.3-4.2-5.2-4.4-4.8-.2.4 1.4 3 2.2 4.6a30 30 0 0 1 2 5c-.1 0-1-2-2.6-4.4-1.6-2.5-2-2.2-2.6-3l-2-2.7s1.3.5 2.7-.4c1.4-1 2.2-2.3 2.2-2.3z"/>
    <path fill="#8f4620" d="M478.2 248.2s2.3.5 3.5.4c1.3-.2 1.7-.1 1.7-.1s.7 1 .7 2.2c0 1.1-.8 3.3-1.1 3.4-.3 0-.3-2-.8-2.7-.6-.7-4-3.2-4-3.2z"/>
    <path fill="#b27129" d="M479.4 254.2s.8 2.5.2 6c-.6 3.4-2.6 7-3 7-.6 0-.4-4-.7-6a59.6 59.6 0 0 0 0-.6l-.8 2.3.6-3.9-.2-1.3 2.6-3z"/>
    <path fill="#8f4620" d="M475 256.8c-.6.9-1.7.6-2.7 1-1 .2-1.3 1.6-1.3 1.6s.8-.5 1.1-.4c.4.2.8.2.1 1.9-.7 1.7-3.4 4.6-3.3 4.6.2 0 3-2.4 4-3.8s.9-2.3 1-2.8c.3-.5 1.4-1.1 1.6-1.2.3 0 .8 0 1 1.1.3 1 .7 3.9 1 4l1.1-4c.3-1.4.3-4.4.3-4.4l-.9-.2c-.7-.1-2.3-1.3-2.3-1.3s.3 2.8-.6 4z"/>
    <path fill="#dbad6c" d="M487.3 239.2s1 2.4-1 4c-.5.5-1 .8-2.1.9-1 0-2.7-.9-2.7-.9l-6-2.4-3-1-1.6-.5.2-1.7 4.7.2 4.6 1.8 2 .6 1.7.4h1.3l1-.4s.6-.2.7-.4l.2-.6z"/>
    <path fill="#ab6d29" d="M487.3 239.2c.2.4-.3 1.7-.8 2-.4.1-1.2.5-3 0-1.8-.3-3.6-1.5-5.6-2-2-.6-3.5-1-5-1-1.6 0-.8-.7-.8-.7s3.5-.4 6.6.8c3 1.1 4.4 2 6 1.9 2.3 0 2.6-1 2.6-1z"/>
    <path d="M471 237.3s.8.2 1.4 0c.6 0 1-.4 1-.4s.1.8-.3 1.1c-.4.3-1.6.2-1.8.2-.2 0-.2-.9-.2-.9z"/>
    <path fill="#dbad6c" d="M482.8 244.7s2 2 1.5 3.8l-4-1.8-6.6-2.8-3.5-1-.5-.6s.7-.6 1-1.2c.4-.6.3-1.2.3-1.2l4.3.6 4.5 1.4zM478.3 247.6s3.7 4.8 2.9 6.4l-8.7-5.5-3.1 5-7.2-3.5s5.8-4.4 6.5-5.2l.7-1.2 3.2.7 5.1 1.6z"/>
    <path fill="#ab6d29" d="M476.3 240.5s3 .7 5 1.7 4.7 1.3 4.7 1.3-1.1 1.1-3.2 1.2c-.7 0-2.2-1.2-3.2-2-1-.6-3.9-1.5-3.9-1.5z"/>
    <path d="M471 238.9s2 .4 3.4 1 1.5.5 1.8.3c.4-.1.4-.3.4-.3s.3 1.3-.7 1.3-1.5-.3-2.8-1c-1.4-.5-2.3 0-2.3 0z"/>
    <path fill="#ab6d29" d="M483 247.3s1.6 1 1.3 1.2a5 5 0 0 1-2.5.7c-1.3 0-2-.1-3-.6-.9-.4-1.5-2-3.8-3s-2.7-1-4.3-1.4l-2-.4 1.5-.6 5 1 4.3 1.2 2.5 1.3 1 .6zm-8.4 3l1 4-.6 2.3-1.3.8-1.2-.5-.4-.7s.6-.9 0-1.7c-.5-.8-3-1.8-3-1.8s1-2 2-2.4c1.2-.4.7-1.9.7-1.9z"/>
    <path d="M469.7 242.2s.8.7 2.4.9c.7 0 2 .3 3.4.7.4.1 1.5-.5 1.6-.4l-1 .5c1.5.4 3.3 1 4 1.4 1.7.8 3 2 3 2l-3-1.4c-1.5-.6-3.4-1.1-4.7-1.4-3-.6-6-.4-6.6-.6-.6-.2.3-.2.6-.6.3-.3.3-1 .3-1z"/>
    <path fill="#ab6d29" d="M480.9 253s1 1 0 1.4c-1 .4-3.8.3-5-1 0 0-.4-1.4-1-2-.4-.6-2.4-1.8-3.5-2.5-1.2-.8.4-.9.4-.9s4 1.6 5.5 2.4c1.5.8 3.6 2.6 3.6 2.6z"/>
    <path d="M481 253.1s-2-2.7-7.7-5l1.8-.3h-3l-1.3-.5c-3-1-3.1-.8-3.3-1.2-.2-.4-.6 0-1 .5-.2.5-1 1.6-1 1.5 0 0 2.2-.5 3.8-.1 1.7.4 1.6 1 1.5 1.6-.1.6-2.2 3.1-2 3.2.3 0 1.5-2.4 3-2 1.5.3 2 1.2 2 1.2s0-1-.3-1.3c-.3-.4-2-2-1.5-2 .4 0 2.3.5 5 1.9 2.7 1.3 3.1 1.7 4 2.5z"/>
    <path fill="#dbad6c" d="M471.8 248.8s4.3 1.2 4 5.7c-.1 4.6-3.4 3.7-3.7 2-.3-1.6.4.9 1.6.7 1.3-.3 1.5-1.6 1.5-3.3-.1-1.7-.5-2.6-1.5-3.5-1-1-1.9-1.6-1.9-1.6z"/>
    <path fill="#6c3f18" d="M453.3 237.8s.4.4-.8 3.6a16.3 16.3 0 0 1-3.7 6.4c-3.5 3.8-5 3.8-4.6 5.4.4 1.6 1.7 1.2 2 1.3.3 0 6.5-9.2 6.5-9.2l1.4-5.5-.3-1.5z"/>
    <path fill="#dbad6c" d="M468.7 231.3s1.8 2.7 1.2 7.7c-.5 5.1-7.2 9.6-7.2 9.6l-9.8 6.7-4-.2s-.7 0-1.3 0c-.7-.2-1.3-1-1.4-1-.3 0-.8-1.6-.8-1.6l1.3-1.6 3.6-3.5 2.2-3.2s1-1.9 1.1-3.7c.2-1.8-.3-2.7-.3-2.7l.8 1.3.5 2.7-.4 3 2.6-1.7 3.4-1.5s.9-.2 1.6-2c.6-2 1.2-4.7 1.2-6l-.1-2.7.4.1c.2.2 1 1.7 1 2.6 0 1 .7 4.2.7 4.2l1.5-1.6s1.2-1.4 1.5-2.2c.3-.7.7-2 .7-2.7z"/>
    <path fill="#904720" d="M469.8 256.7s.7.6.4 2.4c-.2 1.8-1.7 2.9-2.5 2.9v-2.6l-2-1.7-2.4-.7.4-.4c.3-.3 2.7-1.3 2.7-1.3z"/>
    <path fill="#ab6d29" d="M468.1 256.7s.7.7 1.8.4c1-.3 1.5-2 1-2.7-.7-.7-.4 1.7-1.1 2-.7.2-1.5-1.8-2.4-2-1-.2-2.4.4-2.8 1-.4.7 1.5.2 1.5.2l1 .3.8.1z"/>
    <path fill="#904720" d="M454 249.7s1.2.4 2.6.2c1.4-.2 4.8-1.6 4.8-1.6s1.5-1 2.7-2c1.1-1.1 4.8-3.4 5.2-7.9.3-4.5-.6-7.1-.6-7.1s5.4 5.8.7 12.5c-3 4.4-5.7 5.7-5.7 5.7s5.2-1.5 5.6-.3c.5 1.3-.2 3.2-.4 3.5 0 0 3 .7 3.4 2.2.3.9-3.3-1-6-.4-2.8.6-4 2.3-4 2.3s-.4-.8-2.9-.8c-2.4 0-3.5 1-4.8 1-1.4 0-5.7-1-6.5-2.1l2.8-3.4c1.3-2.4 3-1.8 3-1.8z"/>
    <path fill="#ab6d29" d="M465.1 237.6s2-2 2.8-3.6c.7-1.5.8-2.7.8-2.7s.3 1.6-1 3.5a19.8 19.8 0 0 1-2.6 3.1z"/>
    <path fill="#904720" d="M464.5 233s1.7 6.6 0 9.3c-2 2.8-9.9 6.3-9.9 6.3s6-3.3 8-7c1.8-3.8 1.7-6.9 1.7-6.9l.2-1.7z"/>
    <path fill="#1e2121" d="M456.6 249.9s2.6 0 4-1c1.5-.8 3.5-2.6 3.5-2.6s-1.9 1.6-2.4 1.6-1-.8-.8-1.5c0 0-.4 1.3-1.6 2.1-1.1 1-2.7 1.4-2.7 1.4zm6-8.3s2-2.2 2-6.9c0-4.6-1.8-3.8-1.8-3.8s1.5 1 1.2 4.6c-.3 3.6-1.5 6-1.5 6zm2.5.4s2.4-.5 3.3-2c.8-1.4.8-4 .8-4s-.2 2.4-1 3.3a24 24 0 0 1-3 2.7zm-1.4 14.6s1.2-2.3 2.8-1.7c1.6.6 1.6 1.8 1.6 1.8s-.6-1-1.8-1c-1.2 0-2.6.9-2.6.9zm-4.5-4.2l5.6-1.5 4.5-1.7s-1.7 2.2-4.3 3.6c-2.6 1.5-4.7 1.6-4.7 1.6s4.8-2.1 5.2-3c0 0-4.6 1.3-6.3 1z"/>
    <path fill="#fff" d="M453.6 247a4 4.1 67.8 0 1-4.7 6.6"/>
    <path fill="#f16e16" d="M453.3 247.4a3.6 3.6 67.8 0 1-4.1 5.8"/>
    <path fill="#000" d="M451.8 249.4a1.4 1.4 0 1 1-1.4 2.1"/>
    <path fill="#d5d3ca" d="M452 251.2a.5.5 0 1 1-1-.2.5.5 0 0 1 .6-.4c.2 0 .4.3.4.6z"/>
    <path fill="#ab6d29" d="M454.5 244.4s2.3-2.3 2.8-5.4c.6-3 .3-4.8.3-4.8l1.2 1.4.5 2.3-.8 3.9 2.6-1.2c.9-1.2 2.2-6.4 1.8-9.7 0 0 .7 1.4-.3 5.9-1 4.4-1.7 4.9-5 6.7-1.7 1-3.9 2.7-5.8 6.5a29 29 0 0 1-3.6 4.6c0 .1 1.7-2.3 2.5-4.1 1.3-2.7 2.7-4.2 2.7-4.2l1-1.9z"/>
    <path fill="#904720" d="M453.4 246.3s1-3.1 1-4.8c0-1.7-1.1-3.7-1.1-3.7s1.5-.2 1.6 3.5c.2 3.7-.6 3.9-1.5 5z"/>
    <path d="M458 242.3s1.2-2.7 1.1-4.5c0-1.8-1.6-3.6-1.6-3.6s1.9.4 2 3.7c.2 3.3-.4 3.3-1.4 4.4z"/>
    <path fill="#ab6d29" d="M447.2 254.8s-.8-1.1-.7-2c0-.8 0-1 2.1-3.3 2.1-2.2 3.3-3.5 3.8-4.7.6-1.2 2.3-4.5.9-7 0 0 1 3.7-1.2 6.6-2 2.9-3.3 4.4-5 5.7-1.8 1.3-2 1.9-2 2.6.1.8.3 1.5.6 1.7.5.3 1.5.4 1.5.4z"/>
    <path fill="#6c4119" d="M467.7 262s.5 0 .8-.5c.3-.6.3-1.5-.4-2.5a5 5 0 0 0-2.7-1.7c-1-.4-3-.6-3-.6s.6 1.2 2 2c.7.4 1.8-.1 2.5.6s.8 2.7.8 2.7z"/>
    <path fill="#6c4119" d="M467.7 262s2.4-.8 2.5-3c.1-1.5-.2-2-.2-2s.4.8 1.3 1l.9-.3s-1.4 4.4-4.5 4.3z"/>
  </g>
  <g fill="#f9c83a">
    <path fill="#bf802d" d="M451.3 261.5s.5.2 1.4 1.2l1.2 1.4 5.7-1.5 1.9-1.8-1.6-2.4h-4z"/>
    <path stroke="#8f4620" stroke-width=".5" d="M465.1 259.6l-1-1.5s-.3-.5-1.1-1c-.9-.4-4.3-.4-4.3-.4l-2.5.5s-.7.7-2 .4c-1.2-.3-4-1.4-4-1.4l-2.8-1.2s-2-1-2.5-.7c-.5.1-2.2 2-2.2 2s-.3 1 .3 1c.7 0-1 .4-1 .4s-4.3 2.4-5 6.6c-.7 4.2 7.1 10.5 10 7.3 0 0-4.2-3.1-3.4-5.7.9-2.7 2.8-4.3 6.2-4.5 3.3-.2 3.5-.6 5-1.6 1.4-1 4-1.6 6 .5 2 2-7.5 4-7.5 4l1 1.5s11.8-4 10.8-6.2z"/>
    <path fill="#fcf3d8" d="M443 269.7s-4.7-1.2-4.3-5.6c.4-4.4 4.4-6 5-6.2.8-.2.6-2.4 1.4-2.7.8-.2 2.4 0 3 .7.7.6 2.2 1.3 2.2 1.3s-8.4 3.7-8.5 8.6c0 3.2 1.3 3.9 1.3 3.9z"/>
    <path fill="#fdeaaf" d="M465.1 259.1s-.6.4-.7 0c-1-1.6-3-2-4.7-2-2.2 0-3.6.9-5 .9-1.5 0-1.1-.3-2.9-.4-1.7 0-5.4-2.7-6.2-2.5-.8.3-1.2 1.3-1 1.8 0 .5-1.6.6-1.8.2-.2-.4 1.3-2.8 2.8-2.8 4 0 7 2.7 8.9 2.7 2 0 2.6-1 5.2-1s5.3 1 5.4 3.1z"/>
    <path fill="#513625" d="M452 262.3s1.9-.4 3.3-1c1.5-.7 3.4-1.2 3.4-1.2s-1.8 1.2-3 1.8c-1.2.5-3.2.9-3.2.9z"/>
    <path d="M445.2 272.2c-.3.1-2 0-4.7-1.7-2.7-1.8-3.4-4.8-3.4-4.8s-.6-3 2.2-5.9c2.8-3 3.2-2 3.4-2 .1.2-.2.3-.2.3l-2.4 2-1.2 2-1 1.9v2.1l1.2 2.2 3.9 2.4 2.2 1.5z"/>
    <path fill="#8b5122" d="M443.7 255.6l-.1-.4v.4h.1l-.1-.4v.4-.4l-.3.3h.3v-.3l-.3.3.3-.3h-.4a.4.4 0 0 0 .1.3l.3-.3h-.4.4l-.4-.2v.2h.4l-.4-.2.3.2-.2-.2.2.2-.2-.2-.2.2-.6.7c-.2.3-.4.6-.4 1v.1c0 .4.3.7.6.9l1 .1 1.2-.1a.4.4 0 0 0 .2-.6.4.4 0 0 0-.5-.2l-1 .1h-.5l-.2-.3.1-.3a4.6 4.6 0 0 1 .6-.8l.2-.2v-.1h.1v-.1-.2a.4.4 0 0 0-.3-.4h-.2a.4.4 0 0 0-.2.5.4.4 0 0 0 .5.3z"/>
    <path d="M451.9 259.7l-5.9 1.7c-.4.3 1.8 0 3.6-.1a6.7 6.7 0 0 1 2 .2s.7 0 1.4-.3c2.2-.8 6.8-2.5 7.3-.5.3 1.7-6.4 3.1-6.4 3.1v.7l5.3-1.3 2.8-1.5 1-1.4-2.8-2h-3.9l-1.8.5z"/>
    <path fill="#8f4620" d="M443.5 268c.4 1.1 1.4 2.8 2.5 3.4 0 0 .1 0 0 .1 0 .1-.8.6-2.6.2-1.8-.5-4.6-1.3-6.3-6.4v1.2l1 2 1.8 1.8 2.8 1.8 2 .4 1.6-.4.7-.5-1.7-1.5-2-3.5s-.1.4.2 1.3z"/>
  </g>
  <g fill="#816c2a">
    <path fill="#fcca3d" d="M462.5 318.7v1.9l-1-.1.1-2.4zm-7.1-52.8l-2-2.1-1.1.2 1.8 2.6z"/>
    <path d="M462.4 323s-1-.7-2.6-1.4c-1.5-.7-3.6-1-3.6-1v.5a14.3 14.3 0 0 0 3.4 1 21.9 21.9 0 0 1 2.6 1.4zm-.1-4.7H460l-2 .1c-1.4.3-2.2 1-2.2 1l.3.4a5.8 5.8 0 0 1 2-1h2a26.5 26.5 0 0 1 2 0zm-.6-4s-2.6 1.2-3.8 2l-2.5 1.9.3.3.8-.6a28.1 28.1 0 0 1 1.6-1.2l2.4-1.3a57 57 0 0 1 1.4-.7zm-2.5-4.2s0 1-.5 1.8l-1 1.2-2.4 2.6-1.4 1.5.4.3 2.2-2.3a135.9 135.9 0 0 0 1.6-1.8l1-1.2c.6-1 .6-2 .6-2.1h-.5zm-3.3-1.9l.1 1.3c0 .6 0 1.3-.3 2.1l-1.5 3.4-.7 1.3-.3.6.4.2s1.8-3.4 2.5-5.3a7 7 0 0 0 .4-2.3 6 6 0 0 0-.1-1.4zm-3.2-.4a13.6 13.6 0 0 0 0 1.8c0 .9 0 2-.3 2.7l-1 2.7-.5 1.5.4.2 1.6-4.3c.3-.8.4-2 .4-2.8l-.1-1.8zm-2.5 0v1.8l-.3 3-.8 3.9h.5l.2-1.3.5-2.5c.4-1.6.4-4.9.4-4.9zm-2.6.4a19 19 0 0 0 0 4.4c-.5 1.5-.7 3.8-.7 3.8h.5a34.2 34.2 0 0 1 .6-3.6l.2-2.1a25 25 0 0 0-.2-2.5zm-2.1.3v.3c0 .6 0 2-.5 3.4l-.8 3-.4 1.4.4.2 1.3-4.5c.4-1.5.5-3 .5-3.5v-.3h-.5zm-2.4 0a11.6 11.6 0 0 0 0 1 7 7 0 0 1-.6 3.3c-.5.8-1.3 1.7-2 2.3a15 15 0 0 1-1 .7l-.4.2.1.5s2.7-1.6 3.7-3.5c.7-1.1.8-2.5.8-3.4v-1.1zm-1.4-.4l-.1.3c-.2.6-.7 2-1.5 2.9-.5.6-1.3 1.2-2 1.7l-.8.6-.3.2.2.4s2.2-1.3 3.3-2.6c1-1.3 1.7-3.4 1.7-3.4zm-2.3-1.2l-.1.3a13.7 13.7 0 0 1-1.3 2l-1.5.9-1 .6.3.4 1-.6a12 12 0 0 0 1.5-1c.4-.3.8-1 1-1.4l.5-1zm-1-1.4l-.5.4a26 26 0 0 1-2.2 2.3l-.6.3.2.5 1-.7 2.4-2.5zm-.6-1l-.4.3-1.3 1c-.5.3-1 .5-1.3.5v.5l1-.3 2.3-1.6zm-.5-1l-1 .6a14.9 14.9 0 0 1-1.7.7v.5l.9-.3c.9-.3 2-1 2-1l-.2-.5zm-.5-2a5.2 5.2 0 0 1-.8.7c-.4.3-1 .5-1.4.5v.5c.7 0 1.4-.4 1.8-.8.5-.3.8-.7.8-.7zm.2-3.4l-.9.8c-.5.4-1 1-1.2 1.4a.9.9 0 0 1-.1.2l-.1.1v.5l.4-.2.3-.4c0-.3.6-.9 1-1.3l.6-.5.3-.3-.3-.3zm16.4-19.7H456v-.4h-.1l-.1.4v-.1.1-.1.1-.2.2-.2.2-.2.2-.2.2-.2l-.1.2.1-.2-.1.2.1-.2h-.2v.1h.2-.2v-.2l.1-.1.1.2v-.2.2-.2.1-.1.1-.1h-2.3v.4zm0-1.4h.2c.4 0 .7-.1 1-.3l1.6-1 .6-.4.5-.2v-.5a2 2 0 0 0-.9.4l-1.5 1c-.5.3-1 .5-1.3.5zm-.1-2.3c.3 0 .7-.2 1.1-.4l1.8-1.2c.6-.4 1.2-.7 1.5-.7v-.4c-.4 0-.7.1-1.1.3l-1.8 1.2c-.6.4-1.2.7-1.6.7v.5zm-.9-2.1c.6-.3 1.5-1 2.4-1.7l2.4-1.8-.2-.4-2.5 1.8c-1 .7-1.8 1.4-2.3 1.6l.2.5zm-1.6-2.5l5-3.5-.2-.4-5 3.5zm-2.1-2.3c.7-.7 1.8-1.4 2.8-2l2.3-1.5-.3-.4-2.3 1.5c-1 .6-2 1.3-2.8 2zm-1.7-1.5a205.2 205.2 0 0 1 5.3-3.6l-.2-.4c-.3 0-.7.3-1.2.7-1.6 1-4.2 3-4.2 3z"/>
    <path fill="#78732e" d="M450.8 261.6l.3.2c.7.6 2.3 2 3.8 3.8 1.5 1.9 2.8 4.1 2.8 6.4v.6c-.4 2.9-1.9 5.4-3.9 7.8-3 3.5-7.3 6.6-10.8 9.7a27.6 27.6 0 0 0-4.5 4.8 9.3 9.3 0 0 0-1.9 5.3v.3c0 1.8.7 3.7 1.7 5.2a6.7 6.7 0 0 0 6 3c2.8 0 5.8-.9 8.6-.9 2.4 0 4.7.6 6.8 2.8 2 2.2 2.5 5.6 2.5 8.9 0 2.3-.3 4.6-.6 6.3a38.4 38.4 0 0 1-.6 2.8l.5.2s1.2-4.5 1.2-9.3c0-3.4-.6-6.9-2.7-9.2a9 9 0 0 0-7-3c-3 0-6 1-8.7 1l-1-.1c-2-.2-3.5-1.3-4.6-2.8a9.4 9.4 0 0 1-1.6-5v-.2c0-2.3 1.2-4.5 3-6.6 2.8-3.1 7-6.1 10.7-9.4 3.6-3.3 6.8-7 7.3-11.5v-.7c0-2.8-1.7-5.5-3.5-7.5a26.4 26.4 0 0 0-3.5-3.3l-.3.4z"/>
    <path fill="#a8ac71" d="M447.2 266.3l-.6-.5-.5.2 1 .7zm1.6 1.4l-.5-.4-.2.1.4.5z"/>
    <path fill="#78732e" d="M451 270.1l-.5-.5-.2.3.4.5zm1.5 2.4l-.2-.5-.5.1.6.6zm1 2.3l-.3-.7v.6zm0 2.3v-.7l-.2-.1v.8zm0 1.4v-.7l-.2-.1v1zm-18.7 22.7l.2-1.1c.2-.5-.4.2-.4.2l-.1.7.3.2z"/>
    <path fill="#fff" d="M434.7 302.6l-.3.1v.7l.2-.2v-.6z"/>
    <path fill="#78732e" d="M434.7 305.3v-.7h-.2v1z"/>
    <path fill="#fff" d="M434.9 306.8v-.6h-.3v.6zm.4 2.2l-.1-.6-.2.1.1.6zm.6 2.2l-.3-.8-.1.1.2.8z"/>
    <path fill="#a8ac71" d="M437.3 314.2l-.3-.5h-.3l.4.6zm2.2 2.2l-.7-.5c-.4-.4-.2.3-.2.3l.6.3zm15 1.1l-.6-.3c-.2-.2.2 0 .4.5s.2-.2.2-.2z"/>
    <path fill="#fff" d="M455.8 318.6l-.5-.5c-.2-.2 0 .3 0 .3l.3.2z"/>
    <path fill="#a8ac71" d="M456 319.1c-.1-.2-.3.4-.3.4l.5.4s0-.5-.1-.8zm.1 2.1l.1-.7c0-.3-.2 0-.2 0v.7z"/>
    <path fill="#fff" d="M455.4 323.4l.2-.5h-.2l-.2.5zm-22.8-79.9s.8-.1.2.8c-.7 1 .4-.8.4-.8l-.3-.1z"/>
  </g>
  <path fill="#f9c83a" d="M451 261l.6.5-.7-.1c-.2 0 .2-.4.2-.4z"/>
  <path fill="#8f4620" d="M451.6 261.5l-1 .2c-.3 0 .3-.3.3-.3z"/>
  <path fill="#977c2e" d="M460.8 328.6s.6 0 .9-.4l-.2.6-.4.1-.3-.3z"/>
</svg>
