<svg xmlns="http://www.w3.org/2000/svg" xmlns:xlink="http://www.w3.org/1999/xlink" viewBox="0 0 122 82">
  <path d="M-.1-.1h122v82H-.1z" className="st0"/>
  <defs>
    <path id="a" d="M.9.9h120v80H.9z"/>
  </defs>
  <clipPath id="b">
    <use overflow="visible" xlink:href="#a"/>
  </clipPath>
  <path fill="#006c35" d="M.1.1h121.6v81.6H.1z" clip-path="url(#b)"/>
  <path fill="#fff" d="M76.4 59.5l4.3.1c.2.2.1.6 0 .7h-1.2v-.1c-.1-.3-.9-.3-1.1 0h-1.9c-.3-.2-.3-.6-.1-.7zm-.7-3.7c-1 .2-.9 1.2-.3 1.7l-28.7-.2-7.8-.2c1.3 1.8 3.1 2.2 5.4 2.2l30.9-.1c-.4.7 0 1.9.4 2.2.4.1.6-.2.7-.4h4.5c.2.3.4.6.9.6.7-.2 1.3-.2 1.3-1.7 0 0-.1-2.5-1.7-2.4l-1.5.2c-1.3-.2-2.2-.2-3.6-.2.1-.2.4-.8.1-1.1l-.3-.1c-.2-.1-.2-.4-.3-.5 0 .1 0 0 0 0zm8.6-17.3h-.4c-.2 0-.3.1-.3.4 0 .4.2.3.5.5.1.2.2.3 0 .6l-.6.5c-.1.2-.2.4.1.5.6.2 1.9-.7 1.9-.7.2-.2.1-.5.1-.5l-.6-.1c-.1 0-.4 0-.2-.3l.2-.5c.1-.2 0-.3-.3-.4h-.4zm-20.5-.8h-.2s-.7.4-.9.8l-.1.4c.1.2.3.2.5 0 .3 0 .4.1.4.5-.1.4.1.5.1.6 0 0 .3.2.6.1.6-.2 1-.5 1.9-.7.2 0 .2-.6-.2-.7-.5 0-.9 0-1.4.4-.3.1-.3-.1-.4-.3-.1-.4.2-.7.1-1l-.4-.1zm-32-1.9l-.2.3c-.9 1.5-1 3.7-.5 4.4.3.3.7.5 1.1.4.6-.3.9-1.5.7-1.9-.2-.3-.4-.4-.5-.1-.4.8-.6.3-.6-.2-.1-.9 0-1.7.1-2.4l-.1-.5zm24.9-1.1c.1 0 .1 0 0 0 .7.2 1.6.2 2.5.3.7 0 1 .6.4.8s-1.2.4-1.2 1.3c.1.4.1.7 0 .8a1 1 0 0 1-.5-.2c-.4-.3-1.4-.9-1.6-2.3-.2-.4 0-.7.4-.7zm-10.2-1.4c-.2 0-.5.2-.4.5 0 .3.7.6.7 1.2.1.2-.2 1 .1 1.1.2.1.5-.5.6-1.1.1-.3-.2-1.4-.8-1.6l-.2-.1zm34.1-1.6c-.3 0-.5.3-.4.7-.1.2.4 1.1.5 1.6.1.3-.1 1.3.1 1.4.2.1.7-.6.7-1.4.1-.4-.2-2-.7-2.3h-.2zm-40.2-.6c.2 0 .3.1.4.3.1.2 0 .4-.1.5l-.4.1c-.2 0-.3 0-.4-.2-.1-.2.1-.4.2-.5l.3-.2zm-5.1-.7c-1.6 0-3.9 2.1-4 3.2l5-2.4c-.2-.4 0-.8-1-.8zm26.7-.5l.4.1c.2.1.4.3.3.5h-.6c-.2-.1-.4-.3-.3-.5l.2-.1zm19.2-.4L78 31.7c-.3.3-.2 1.2 0 1.1.2.1 3.3-2 3.2-2.2.2.1.3-1 0-1.1zm-22.1-.9l-.3.3v.3c-.1.1-.3 0-.3-.3l-.1-.3h-.1l-.1.1-.1.2-.1.2h-.1l-.1-.1v-.3l-.2-.1c-.4 0-.4.4-.4.6 0 0 0 .8.4 1 .7.3 2.2.1 1.8-.9v-.5c0-.1-.1-.2-.3-.2zm-5.4-.8c-.1 0-.1 0 0 0l-.3.3c-.4.3-.4.5-.4 1.2l1 2.6c.3 1.1.6 2.3.4 3.5a8.1 8.1 0 0 1-3.5 3.6c-.7.2-1.3.1-1.5 0-.4-.3-.4-.8-.4-.9 1.2-.8 2.5-1.5 3.5-3.6.3-.8.4-1.3.1-2.6-.1-.5-.3-.9-.6-1.2.2-.1.7.3.8 0a4 4 0 0 0-1-1.9c-.4-.4-.9-.4-1.2-.1-.4.2-.5 1.1-.3 1.8.2.6.8.7 1.3 1.8 0 .1.1.8-.1 1.1-.2.6-2.5 2.4-2.6 2.5v-.3l.1-1.2c-.8.5-1 2-1.1 2.4-1.9 1.3-4.1 2.3-5.3 3.6-.7 1 4.5-1.2 5.1-1.4.1.1.1.6.5 1 .5.7 1.7 1.2 2.8.9a8.7 8.7 0 0 0 4-3.3c.2-.2.4-.4.6-.2.7 1.7 2.9 2.9 5.7 3 .6-.8.3-1.2.1-1.3-.1-.1-1.4-.6-1.6-1.1-.1-.5.2-.9.8-1.2a31 31 0 0 0 5.3-1c0-.6.4-1.4.6-1.8l.3-.3-.3-.2h-5.7l-.2-.1.2-.1c1.4-.2 3.8-.6 4-2.9 0-1.2-.5-2-2-2.2-1.1.1-1.9 1.1-1.8 2.3-.1.3.1.9-.2 1-2.1.2-4.4 1.5-4.5 2.4-.1 0-.3-.3-.3-.6a12 12 0 0 0-1.4-4.9l-.9-.6zm25.8-2.2c-.3 0-.7.2-.8.6l.1.6c0 .1-.2.2-.5.1l-.2-.4c-.3-.2-.6 0-.8.2-.1.2-.2.6-.1 1 .4.7 1.6 1.9 2.3 1.9l.1-2 .2-.5c.2 0 .5.2.5 0 0-.4-.1-1-.3-1.2a.5.5 0 0 0-.5-.3zm-31.2-.1l-.3.1c-.6.3-.8 1.2-.4 1.8.3.5.9.3.9.3.6.1.9-1.1.9-1.1s0-.3-.7.3c-.3.1-.3 0-.4-.2-.1-.3 0-.6.1-.9.1-.2 0-.3-.1-.3zm22.1-.3l-.3.3v.3c-.1.1-.3 0-.3-.3l-.1-.3h-.1l-.1.1v.2l-.1.2h-.1l-.1-.1v-.3l-.2-.1c-.4 0-.4.4-.4.6 0 0 0 .8.4 1 .7.3 1.9.2 1.8-.9v-.5l-.4-.2zm-4.9-2.3l.1.4.2.8-.5-.7c-.6-.7 0-.5.2-.5zm21.1-.6c-.3 0-.6.2-.5.7-.1.2.7 1.1.8 1.6.1.3-.2 1.4.1 1.5.2.1.5-.7.6-1.5.1-.4-.3-1.9-.8-2.2l-.2-.1zm-38-.9c.2 0 .3.1.4.3.1.2 0 .4-.1.5a.5.5 0 0 1-.5-.3c-.1-.3 0-.5.2-.5-.1 0-.1 0 0 0zm20.4-.8c-.3 0-.7.2-.6.6-.1.2.7 1 .9 1.4.2.7-.2 1.3.1 1.4.2.1.5-.7.7-1.4.1-.6-.3-1.8-.9-2H69zm-26.3 0l-.3.1c-.4.1-.8.5-.7 1.2L43 30c.1.3-.2.8-.6.8-.6-.4-.8-1.3-1.9-1.3-.8 0-1.7.9-1.8 1.7a4 4 0 0 0 0 1.9c.5.7 1.2.6 1.8.4.5-.2.9-.7 1-.5.1.2 0 1.7-2.2 2.9-1.4.6-2.5.8-3-.4-.4-.7 0-3.3-.9-2.7-2.6 6.8 6.2 7.7 7.2.3l.4-.4.1.3c-.2 6.8-6.8 7.2-7.9 5.1-.3-.5-.4-1.6-.4-2.3l-.3-.7c-.3-.2-.6.3-.7 1.2l-.1 1.6c.4 5.3 8.9 3 10.2-1.4.7-2.3 0-4 .2-4.2.8.9 2 .1 2.3-.2.1-.2.4-.3.6-.1.7.5 1.8.3 2.1-.6l.3-2.5c-.4.1-.8.2-.9.4l-.1.1-.1.7v.1l-.1.1c-.2.1-.4 0-.4-.2-.2-.9-1-1-1.6.4-.3.3-1 .3-1-.1.1-1-.3-1.1-1.1-.6l-.8-5.6c.3 0 .6.2.9-.1-.3-1-1-3-1.4-3.2l-.1-.1h-.1l.1-.2zm-6.7 0c-.2 0-.4.2-.4.4v2.1l.6 3.4c0 1.6-.9.7-.9-.1.2-1 .2-2.6 0-3s-.3-.5-.7-.4c-.3 0-1.1.8-1.3 2.2l-.3 1.4c-.1.7-.6 1.2-.9-.1-.3-1-.5-3.4-1-2.8-.1 1.9-.3 5.2 1.3 5.5 1.9.2.9-3.2 1.6-3.9.1-.3.4-.3.4.1v2.9c0 .9.6 1.2 1.1 1.4.5 0 .8 0 1 .5l.2 5s1.2.3 1.2-2.8c.1-1.9-.4-3.4-.1-3.8 0-.4.5-.4.8-.2.5.4.7.8 1.5.6 1.2-.3 1.9-.9 1.9-1.8a12 12 0 0 0-.5-2.6c.1-.2-.2-.6-.2-.7.2.3.5.3.6 0-.2-.7-.5-1.3-1-1.6-.4-.4-1-.3-1.3.5a4 4 0 0 0 1 2.8c.1.3.3.9.2 1.4-.3.2-.7.1-1-.2 0 0-.9-.7-.9-.9.3-1.6.1-1.8-.1-2.2-.1-.6-.4-.8-.6-1.2-.2-.3-.6-.3-.7 0-.4.7-.2 2.3.1 3 .2.6.6 1 .4 1-.1.4-.4.3-.6-.1-.3-.9-.3-2.1-.3-2.7-.1-.7-.2-2.3-.6-2.6-.2-.4-.4-.5-.5-.5zm35.8-.1l-.3.4A4 4 0 0 0 71 23c.6 4.5.8 8.3 1.3 12.8 0 .4 0 1.1-.3 1.3a13.1 13.1 0 0 1-4.2 3.1c-.2.2.4 1.1 1.2 1.1 1.3-.2 2.5-.9 3.6-2.9.3-.5.8-1.5.8-2.2.1-4.5-.2-8-.9-11.3v-.8c.1-.1.4 0 .5-.3.2-.2-.6-2.2-1.1-2.9l-.1-.4zm-23.1 0l-.6.2c-.4.4-.5 1.1-.2 1.5.3.2.7.5.4.7-.9 1-3.4 2.7-3.5 3h1.8c.5-.2 3-3.1 3-3.1l-.4-.3c-.1-.1-.1-.2 0-.4.6-.4.4-1.2.1-1.5l-.6-.1zm-8.9 0l-.3.3-.1.3c-.1.1-.3 0-.3-.3l-.1-.2h-.1l-.1.1-.1.2-.1.2h-.1l-.1-.1v-.3l-.2-.1c-.4 0-.4.4-.4.6 0 0 0 .8.5 1 .7.3 1.9.2 1.8-.9v-.5c0-.3-.1-.4-.3-.3zm34.5-.1l-.3.3c-.4 1.2-.5 2.2-.4 3 1 5 2 9.6 1.8 14.4.5 0 1-1 1.2-2.1.1-1.4-.1-2.3-.1-3.2 0-.8-1-7.7-1.1-8.3-.2-1.2.9-.2.8-.9l-1.6-2.9-.3-.3zm14.1-.1l-.3.4c-.3.5-.4 1.4-.3 2.1.7 4.8 1.2 9.5 1.4 13.8l-.3 1.1c-.4.5-.9 1.2-1.3 1.5s-1.4.6-1.7.9c-1 .6-1 1.2-.2 1.2 1.3-.2 2.9-.3 4-1.9.3-.5.6-1.7.7-2.5.1-4.5-.1-8.9-.7-12.2 0-.3-.2-1-.1-1.1.1-.2.5 0 .7-.2s-1.1-2-1.6-2.7l-.3-.4zm-55.5 0c-.3 0-.6.2-.5.5-.1.2.6.8.7 1.2.1.3-.1 1.1.1 1.1.2.1.5-.6.6-1.2.1-.3 0-1.4-.7-1.7l-.2.1zm48.7-.1c-.1 0-.2 0-.3.2-.2.2-.4.5-.4.9l.2 2.1.1.3-.2-.2c-1.3-1.4.6-.2-.3-1.3-.7-.8-1-1.1-1.6-1.5-.3-.2-.5-.6-.6.1v1.8c0 .3.3.8.5 1.1l2.7 3.5.4 7.2c0 1.1-.4 2.5-.7 2.6 0 0-.5.3-.8 0-.2-.1-1.1-1.5-1.1-1.5-.5-.4-.8-.3-1.1 0-.9.9-1.3 2.6-2 3.7-.2.3-.6.5-1.1 0-1.3-1.8-.5-4.3-.7-3.6-1.1 1.3-.6 3.4-.4 3.9.4.8.7 1.2 1.4 1.6.7.5 1.2.2 1.5-.2.7-.7.7-2.5 1-2.8.2-.6.8-.5 1.1-.2.3.4.6.6 1 .8.6.6 1.4.7 2.1.1.5-.3.8-.7 1.1-1.4.3-.8.2-5.3.1-7.8l1.4 2c.2 2.2.3 4.3.2 6.4 0 .4 1.4-1.2 1.4-2v-1.9a108 108 0 0 1 2.1 3.5c.4-.2.3-2.5 0-2.8l-2.2-3.4a35.4 35.4 0 0 0-.9-5.6l-.2-1.4c.1-.2.4 0 .5-.3.2-.2-.8-2.8-1.3-3.6-.2-.3-.5-.2-.9.3-.4.4-.2 1.2-.1 1.9l1 5.9-1.7-2.4-.1-.4-.2-2 .1-.2.3.2c.2 0 .3-.3.2-.5l-1.6-2.9c.3-.1.2-.2.1-.2zM62.7 20c-.2 0-.3.1-.4.4-.1.6 0 .9.1 1.4l.8 1.2 3.2 4.5.4 3.4c.2 2.4.2 5.5.1 8.1.5 0 1.2-.7 1.4-1.8.2-1.5-.1-4.7-.1-5.6l-.1-1.3a89 89 0 0 1 3.5 6.3c.4-.2.3-2.5.1-2.9-.9-2-2.2-3.9-2.6-4.6l-1.2-1.9-.3-2.6c-.2-1.3.5.1.4-.6-.2-1.3-1-2.2-1.8-3.4-.3-.4-.3-.5-.7.1-.3.6-.2 1-.2 1.5a2 2 0 0 0-.4-.6l-1.4-1.2c-.1-.2-.5-.4-.8-.4zm-6.4-.1c-.2 0-.3.2-.5.6l-.3 1.7c-.1.4.5.6.7.1.4-1 .4-1.5.4-1.9.1-.3-.1-.5-.3-.5zm1.8-.1l-.4.5c-.1.3-.7.8-.3 1.9.3.7.5 1.8.3 3l-.6.8c-.4.4-.9.3-1.2.2-.3-.2-.6-.3-.7-1 0-1.1.1-2.9-.1-3.3-.3-.6-.8-.4-1-.2-1 .9-1.5 2.5-1.8 3.7-.3.9-.6.6-.8.3-.5-.6-.5-4.3-1.1-3.7-1 2.8.6 5.8 1.6 5.6.8.3 1.3-1.1 1.6-2.7.2-.4.4-.5.5-.3 0 2.1.2 2.6.7 3.2 1.2.9 2.2.1 2.3 0l.9-.9c.2-.2.5-.2.8 0 .3.3.3.7.9 1 .5.2 1.6.1 1.9-.4l.6-1c.2-.3.7-.2.7-.1 0 .2-.3.4-.1.7.3.2.4.1.5 0 .6-.3 1.1-1.6 1.1-1.6 0-.5-.3-.5-.4-.4l-.5.3c-.3 0-.9.2-1.2-.2-.3-.5-.3-1.3-.5-1.8 0 0-.4-.9 0-.9.2 0 .6.1.6-.2.2-.3-.4-1.2-.8-1.7-.4-.4-.9-.4-1.3 0-.3.3-.3.7-.4 1-.1.4-.1.8.3 1.4.3.7 1 1.5.8 2.7 0 0-.4.6-1 .5-.3-.1-.7-.2-.9-1.8-.2-1.3 0-3-.5-3.9l-.5-.7zm-5.5 0l-.3.1c-.3.2-.9.8-.9 1.5 0 .4-.1.4.2.6.2.3.4.2.7 0l.4-.5c.1-.4-.5.2-.5-.3-.1-.5.2-.6.6-1.1 0-.2 0-.3-.2-.3z"/>
</svg>
